  0
SECTION
  2
HEADER
  9
$ACADVER
  1
AC1024
  9
$ACADMAINTVER
 70
6
  9
$DWGCODEPAGE
  3
ANSI_1252
  9
$LASTSAVEDBY
  1
ezdxf
  9
$INSBASE
 10
0.0
 20
0.0
 30
0.0
  9
$EXTMIN
 10
1e+20
 20
1e+20
 30
1e+20
  9
$EXTMAX
 10
-1e+20
 20
-1e+20
 30
-1e+20
  9
$LIMMIN
 10
0.0
 20
0.0
  9
$LIMMAX
 10
420.0
 20
297.0
  9
$ORTHOMODE
 70
0
  9
$REGENMODE
 70
1
  9
$FILLMODE
 70
1
  9
$QTEXTMODE
 70
0
  9
$MIRRTEXT
 70
1
  9
$LTSCALE
 40
1.0
  9
$ATTMODE
 70
1
  9
$TEXTSIZE
 40
2.5
  9
$TRACEWID
 40
1.0
  9
$TEXTSTYLE
  7
Standard
  9
$CLAYER
  8
0
  9
$CELTYPE
  6
ByLayer
  9
$CECOLOR
 62
256
  9
$CELTSCALE
 40
1.0
  9
$DISPSILH
 70
0
  9
$DIMSCALE
 40
1.0
  9
$DIMASZ
 40
2.5
  9
$DIMEXO
 40
0.625
  9
$DIMDLI
 40
3.75
  9
$DIMRND
 40
0.0
  9
$DIMDLE
 40
0.0
  9
$DIMEXE
 40
1.25
  9
$DIMTP
 40
0.0
  9
$DIMTM
 40
0.0
  9
$DIMTXT
 40
2.5
  9
$DIMCEN
 40
2.5
  9
$DIMTSZ
 40
0.0
  9
$DIMTOL
 70
0
  9
$DIMLIM
 70
0
  9
$DIMTIH
 70
0
  9
$DIMTOH
 70
0
  9
$DIMSE1
 70
0
  9
$DIMSE2
 70
0
  9
$DIMTAD
 70
1
  9
$DIMZIN
 70
8
  9
$DIMBLK
  1

  9
$DIMASO
 70
1
  9
$DIMSHO
 70
1
  9
$DIMPOST
  1

  9
$DIMAPOST
  1

  9
$DIMALT
 70
0
  9
$DIMALTD
 70
3
  9
$DIMALTF
 40
0.03937007874
  9
$DIMLFAC
 40
1.0
  9
$DIMTOFL
 70
1
  9
$DIMTVP
 40
0.0
  9
$DIMTIX
 70
0
  9
$DIMSOXD
 70
0
  9
$DIMSAH
 70
0
  9
$DIMBLK1
  1

  9
$DIMBLK2
  1

  9
$DIMSTYLE
  2
ISO-25
  9
$DIMCLRD
 70
0
  9
$DIMCLRE
 70
0
  9
$DIMCLRT
 70
0
  9
$DIMTFAC
 40
1.0
  9
$DIMGAP
 40
0.625
  9
$DIMJUST
 70
0
  9
$DIMSD1
 70
0
  9
$DIMSD2
 70
0
  9
$DIMTOLJ
 70
0
  9
$DIMTZIN
 70
8
  9
$DIMALTZ
 70
0
  9
$DIMALTTZ
 70
0
  9
$DIMUPT
 70
0
  9
$DIMDEC
 70
2
  9
$DIMTDEC
 70
2
  9
$DIMALTU
 70
2
  9
$DIMALTTD
 70
3
  9
$DIMTXSTY
  7
Standard
  9
$DIMAUNIT
 70
0
  9
$DIMADEC
 70
0
  9
$DIMALTRND
 40
0.0
  9
$DIMAZIN
 70
0
  9
$DIMDSEP
 70
44
  9
$DIMATFIT
 70
3
  9
$DIMFRAC
 70
0
  9
$DIMLDRBLK
  1

  9
$DIMLUNIT
 70
2
  9
$DIMLWD
 70
-2
  9
$DIMLWE
 70
-2
  9
$DIMTMOVE
 70
0
  9
$DIMFXL
 40
1.0
  9
$DIMFXLON
 70
0
  9
$DIMJOGANG
 40
0.785398163397
  9
$DIMTFILL
 70
0
  9
$DIMTFILLCLR
 70
0
  9
$DIMARCSYM
 70
0
  9
$DIMLTYPE
  6

  9
$DIMLTEX1
  6

  9
$DIMLTEX2
  6

  9
$DIMTXTDIRECTION
 70
0
  9
$LUNITS
 70
2
  9
$LUPREC
 70
4
  9
$SKETCHINC
 40
1.0
  9
$FILLETRAD
 40
10.0
  9
$AUNITS
 70
0
  9
$AUPREC
 70
2
  9
$MENU
  1
.
  9
$ELEVATION
 40
0.0
  9
$PELEVATION
 40
0.0
  9
$THICKNESS
 40
0.0
  9
$LIMCHECK
 70
0
  9
$CHAMFERA
 40
0.0
  9
$CHAMFERB
 40
0.0
  9
$CHAMFERC
 40
0.0
  9
$CHAMFERD
 40
0.0
  9
$SKPOLY
 70
0
  9
$TDCREATE
 40
2460839.631134259
  9
$TDUCREATE
 40
2458532.153996898
  9
$TDUPDATE
 40
2460839.631134259
  9
$TDUUPDATE
 40
2458532.1544311
  9
$TDINDWG
 40
0.0
  9
$TDUSRTIMER
 40
0.0
  9
$USRTIMER
 70
1
  9
$ANGBASE
 50
0.0
  9
$ANGDIR
 70
0
  9
$PDMODE
 70
0
  9
$PDSIZE
 40
0.0
  9
$PLINEWID
 40
0.0
  9
$SPLFRAME
 70
0
  9
$SPLINETYPE
 70
6
  9
$SPLINESEGS
 70
8
  9
$HANDSEED
  5
441
  9
$SURFTAB1
 70
6
  9
$SURFTAB2
 70
6
  9
$SURFTYPE
 70
6
  9
$SURFU
 70
6
  9
$SURFV
 70
6
  9
$UCSBASE
  2

  9
$UCSNAME
  2

  9
$UCSORG
 10
0.0
 20
0.0
 30
0.0
  9
$UCSXDIR
 10
1.0
 20
0.0
 30
0.0
  9
$UCSYDIR
 10
0.0
 20
1.0
 30
0.0
  9
$UCSORTHOREF
  2

  9
$UCSORTHOVIEW
 70
0
  9
$UCSORGTOP
 10
0.0
 20
0.0
 30
0.0
  9
$UCSORGBOTTOM
 10
0.0
 20
0.0
 30
0.0
  9
$UCSORGLEFT
 10
0.0
 20
0.0
 30
0.0
  9
$UCSORGRIGHT
 10
0.0
 20
0.0
 30
0.0
  9
$UCSORGFRONT
 10
0.0
 20
0.0
 30
0.0
  9
$UCSORGBACK
 10
0.0
 20
0.0
 30
0.0
  9
$PUCSBASE
  2

  9
$PUCSNAME
  2

  9
$PUCSORG
 10
0.0
 20
0.0
 30
0.0
  9
$PUCSXDIR
 10
1.0
 20
0.0
 30
0.0
  9
$PUCSYDIR
 10
0.0
 20
1.0
 30
0.0
  9
$PUCSORTHOREF
  2

  9
$PUCSORTHOVIEW
 70
0
  9
$PUCSORGTOP
 10
0.0
 20
0.0
 30
0.0
  9
$PUCSORGBOTTOM
 10
0.0
 20
0.0
 30
0.0
  9
$PUCSORGLEFT
 10
0.0
 20
0.0
 30
0.0
  9
$PUCSORGRIGHT
 10
0.0
 20
0.0
 30
0.0
  9
$PUCSORGFRONT
 10
0.0
 20
0.0
 30
0.0
  9
$PUCSORGBACK
 10
0.0
 20
0.0
 30
0.0
  9
$USERI1
 70
0
  9
$USERI2
 70
0
  9
$USERI3
 70
0
  9
$USERI4
 70
0
  9
$USERI5
 70
0
  9
$USERR1
 40
0.0
  9
$USERR2
 40
0.0
  9
$USERR3
 40
0.0
  9
$USERR4
 40
0.0
  9
$USERR5
 40
0.0
  9
$WORLDVIEW
 70
1
  9
$SHADEDGE
 70
3
  9
$SHADEDIF
 70
70
  9
$TILEMODE
 70
1
  9
$MAXACTVP
 70
64
  9
$PINSBASE
 10
0.0
 20
0.0
 30
0.0
  9
$PLIMCHECK
 70
0
  9
$PEXTMIN
 10
1e+20
 20
1e+20
 30
1e+20
  9
$PEXTMAX
 10
-1e+20
 20
-1e+20
 30
-1e+20
  9
$PLIMMIN
 10
0.0
 20
0.0
  9
$PLIMMAX
 10
420.0
 20
297.0
  9
$UNITMODE
 70
0
  9
$VISRETAIN
 70
1
  9
$PLINEGEN
 70
0
  9
$PSLTSCALE
 70
1
  9
$TREEDEPTH
 70
3020
  9
$CMLSTYLE
  2
Standard
  9
$CMLJUST
 70
0
  9
$CMLSCALE
 40
20.0
  9
$PROXYGRAPHICS
 70
1
  9
$MEASUREMENT
 70
1
  9
$CELWEIGHT
370
-1
  9
$ENDCAPS
280
0
  9
$JOINSTYLE
280
0
  9
$LWDISPLAY
290
0
  9
$INSUNITS
 70
6
  9
$HYPERLINKBASE
  1

  9
$STYLESHEET
  1

  9
$XEDIT
290
1
  9
$CEPSNTYPE
380
0
  9
$PSTYLEMODE
290
1
  9
$FINGERPRINTGUID
  2
{8B37E27F-21AA-4361-A9EC-47C8B2E3CBD9}
  9
$VERSIONGUID
  2
{C97739DF-3356-4491-8027-AD0F13F30C1E}
  9
$EXTNAMES
290
1
  9
$PSVPSCALE
 40
0.0
  9
$OLESTARTUP
290
0
  9
$SORTENTS
280
127
  9
$INDEXCTL
280
0
  9
$HIDETEXT
280
1
  9
$XCLIPFRAME
280
1
  9
$HALOGAP
280
0
  9
$OBSCOLOR
 70
257
  9
$OBSLTYPE
280
0
  9
$INTERSECTIONDISPLAY
280
0
  9
$INTERSECTIONCOLOR
 70
257
  9
$DIMASSOC
280
2
  9
$PROJECTNAME
  1

  9
$CAMERADISPLAY
290
0
  9
$LENSLENGTH
 40
50.0
  9
$CAMERAHEIGHT
 40
0.0
  9
$STEPSPERSEC
 40
24.0
  9
$STEPSIZE
 40
100.0
  9
$3DDWFPREC
 40
2.0
  9
$PSOLWIDTH
 40
0.005
  9
$PSOLHEIGHT
 40
0.08
  9
$LOFTANG1
 40
1.570796326795
  9
$LOFTANG2
 40
1.570796326795
  9
$LOFTMAG1
 40
0.0
  9
$LOFTMAG2
 40
0.0
  9
$LOFTPARAM
 70
7
  9
$LOFTNORMALS
280
1
  9
$LATITUDE
 40
37.795
  9
$LONGITUDE
 40
-122.394
  9
$NORTHDIRECTION
 40
0.0
  9
$TIMEZONE
 70
-8000
  9
$LIGHTGLYPHDISPLAY
280
1
  9
$TILEMODELIGHTSYNCH
280
1
  9
$CMATERIAL
347
20
  9
$SOLIDHIST
280
0
  9
$SHOWHIST
280
1
  9
$DWFFRAME
280
2
  9
$DGNFRAME
280
2
  9
$REALWORLDSCALE
290
1
  9
$INTERFERECOLOR
 62
256
  9
$CSHADOW
280
0
  9
$SHADOWPLANELOCATION
 40
0.0
  0
ENDSEC
  0
SECTION
  2
CLASSES
  0
CLASS
  1
ACDBDICTIONARYWDFLT
  2
AcDbDictionaryWithDefault
  3
ObjectDBX Classes
 90
0
 91
0
280
0
281
0
  0
CLASS
  1
SUN
  2
AcDbSun
  3
SCENEOE
 90
1153
 91
0
280
0
281
0
  0
CLASS
  1
VISUALSTYLE
  2
AcDbVisualStyle
  3
ObjectDBX Classes
 90
4095
 91
0
280
0
281
0
  0
CLASS
  1
MATERIAL
  2
AcDbMaterial
  3
ObjectDBX Classes
 90
1153
 91
0
280
0
281
0
  0
CLASS
  1
SCALE
  2
AcDbScale
  3
ObjectDBX Classes
 90
1153
 91
0
280
0
281
0
  0
CLASS
  1
TABLESTYLE
  2
AcDbTableStyle
  3
ObjectDBX Classes
 90
4095
 91
0
280
0
281
0
  0
CLASS
  1
MLEADERSTYLE
  2
AcDbMLeaderStyle
  3
ACDB_MLEADERSTYLE_CLASS
 90
4095
 91
0
280
0
281
0
  0
CLASS
  1
DICTIONARYVAR
  2
AcDbDictionaryVar
  3
ObjectDBX Classes
 90
0
 91
0
280
0
281
0
  0
CLASS
  1
CELLSTYLEMAP
  2
AcDbCellStyleMap
  3
ObjectDBX Classes
 90
1152
 91
0
280
0
281
0
  0
CLASS
  1
MENTALRAYRENDERSETTINGS
  2
AcDbMentalRayRenderSettings
  3
SCENEOE
 90
1024
 91
0
280
0
281
0
  0
CLASS
  1
ACDBDETAILVIEWSTYLE
  2
AcDbDetailViewStyle
  3
ObjectDBX Classes
 90
1025
 91
0
280
0
281
0
  0
CLASS
  1
ACDBSECTIONVIEWSTYLE
  2
AcDbSectionViewStyle
  3
ObjectDBX Classes
 90
1025
 91
0
280
0
281
0
  0
CLASS
  1
RASTERVARIABLES
  2
AcDbRasterVariables
  3
ISM
 90
0
 91
0
280
0
281
0
  0
CLASS
  1
ACDBPLACEHOLDER
  2
AcDbPlaceHolder
  3
ObjectDBX Classes
 90
0
 91
0
280
0
281
0
  0
CLASS
  1
LAYOUT
  2
AcDbLayout
  3
ObjectDBX Classes
 90
0
 91
0
280
0
281
0
  0
ENDSEC
  0
SECTION
  2
TABLES
  0
TABLE
  2
VPORT
  5
8
330
0
100
AcDbSymbolTable
 70
1
  0
VPORT
  5
23
330
8
100
AcDbSymbolTableRecord
100
AcDbViewportTableRecord
  2
*Active
 70
0
 10
0.0
 20
0.0
 11
1.0
 21
1.0
 12
0.0
 22
0.0
 13
0.0
 23
0.0
 14
0.5
 24
0.5
 15
0.5
 25
0.5
 16
0.0
 26
0.0
 36
1.0
 17
0.0
 27
0.0
 37
0.0
 40
1000.0
 41
1.34
 42
50.0
 43
0.0
 44
0.0
 50
0.0
 51
0.0
 71
0
 72
1000
 73
1
 74
3
 75
0
 76
0
 77
0
 78
0
281
0
 65
0
146
0.0
  0
ENDTAB
  0
TABLE
  2
LTYPE
  5
2
330
0
100
AcDbSymbolTable
 70
3
  0
LTYPE
  5
24
330
2
100
AcDbSymbolTableRecord
100
AcDbLinetypeTableRecord
  2
ByBlock
 70
0
  3

 72
65
 73
0
 40
0.0
  0
LTYPE
  5
25
330
2
100
AcDbSymbolTableRecord
100
AcDbLinetypeTableRecord
  2
ByLayer
 70
0
  3

 72
65
 73
0
 40
0.0
  0
LTYPE
  5
26
330
2
100
AcDbSymbolTableRecord
100
AcDbLinetypeTableRecord
  2
Continuous
 70
0
  3

 72
65
 73
0
 40
0.0
  0
ENDTAB
  0
TABLE
  2
LAYER
  5
1
330
0
100
AcDbSymbolTable
 70
8
  0
LAYER
  5
27
330
1
100
AcDbSymbolTableRecord
100
AcDbLayerTableRecord
  2
0
 70
0
 62
7
  6
Continuous
370
-3
390
13
347
21
  0
LAYER
  5
28
330
1
100
AcDbSymbolTableRecord
100
AcDbLayerTableRecord
  2
Defpoints
 70
0
 62
7
  6
Continuous
290
0
370
-3
390
13
347
21
  0
LAYER
  5
2F
330
1
100
AcDbSymbolTableRecord
100
AcDbLayerTableRecord
  2
Lines
 70
0
 62
7
  6
Continuous
370
-3
390
13
347
21
  0
LAYER
  5
30
330
1
100
AcDbSymbolTableRecord
100
AcDbLayerTableRecord
  2
Circles
 70
0
 62
1
  6
Continuous
370
-3
390
13
347
21
  0
LAYER
  5
31
330
1
100
AcDbSymbolTableRecord
100
AcDbLayerTableRecord
  2
Rectangles
 70
0
 62
5
  6
Continuous
370
-3
390
13
347
21
  0
LAYER
  5
32
330
1
100
AcDbSymbolTableRecord
100
AcDbLayerTableRecord
  2
Walls
 70
0
 62
2
  6
Continuous
370
-3
390
13
347
21
  0
LAYER
  5
33
330
1
100
AcDbSymbolTableRecord
100
AcDbLayerTableRecord
  2
Doors
 70
0
 62
3
  6
Continuous
370
-3
390
13
347
21
  0
LAYER
  5
34
330
1
100
AcDbSymbolTableRecord
100
AcDbLayerTableRecord
  2
Windows
 70
0
 62
4
  6
Continuous
370
-3
390
13
347
21
  0
ENDTAB
  0
TABLE
  2
STYLE
  5
5
330
0
100
AcDbSymbolTable
 70
1
  0
STYLE
  5
29
330
5
100
AcDbSymbolTableRecord
100
AcDbTextStyleTableRecord
  2
Standard
 70
0
 40
0.0
 41
1.0
 50
0.0
 71
0
 42
2.5
  3
txt
  4

  0
ENDTAB
  0
TABLE
  2
VIEW
  5
7
330
0
100
AcDbSymbolTable
 70
0
  0
ENDTAB
  0
TABLE
  2
UCS
  5
6
330
0
100
AcDbSymbolTable
 70
0
  0
ENDTAB
  0
TABLE
  2
APPID
  5
3
330
0
100
AcDbSymbolTable
 70
3
  0
APPID
  5
2A
330
3
100
AcDbSymbolTableRecord
100
AcDbRegAppTableRecord
  2
ACAD
 70
0
  0
APPID
  5
43E
330
3
100
AcDbSymbolTableRecord
100
AcDbRegAppTableRecord
  2
HATCHBACKGROUNDCOLOR
 70
0
  0
APPID
  5
43F
330
3
100
AcDbSymbolTableRecord
100
AcDbRegAppTableRecord
  2
EZDXF
 70
0
  0
ENDTAB
  0
TABLE
  2
DIMSTYLE
  5
4
330
0
100
AcDbSymbolTable
 70
1
100
AcDbDimStyleTable
  0
DIMSTYLE
105
2B
330
4
100
AcDbSymbolTableRecord
100
AcDbDimStyleTableRecord
  2
Standard
 70
0
 40
1.0
 41
2.5
 42
0.625
 43
3.75
 44
1.25
 45
0.0
 46
0.0
 47
0.0
 48
0.0
 49
2.5
140
2.5
141
2.5
142
0.0
143
0.03937007874
144
1.0
145
0.0
146
1.0
147
0.625
148
0.0
 69
0
 70
0
 71
0
 72
0
 73
0
 74
0
 75
0
 76
0
 77
1
 78
8
 79
3
170
0
171
3
172
1
173
0
174
0
175
0
176
0
177
0
178
0
179
2
271
2
272
2
273
2
274
3
275
0
276
0
277
2
278
44
279
0
280
0
281
0
282
0
283
0
284
8
285
0
286
0
288
0
289
3
290
0
371
-2
372
-2
  0
ENDTAB
  0
TABLE
  2
BLOCK_RECORD
  5
9
330
0
100
AcDbSymbolTable
 70
2
  0
BLOCK_RECORD
  5
17
330
9
100
AcDbSymbolTableRecord
100
AcDbBlockTableRecord
  2
*Model_Space
340
1A
 70
0
280
1
281
0
  0
BLOCK_RECORD
  5
1B
330
9
100
AcDbSymbolTableRecord
100
AcDbBlockTableRecord
  2
*Paper_Space
340
1E
 70
0
280
1
281
0
  0
ENDTAB
  0
ENDSEC
  0
SECTION
  2
BLOCKS
  0
BLOCK
  5
18
330
17
100
AcDbEntity
  8
0
100
AcDbBlockBegin
  2
*Model_Space
 70
0
 10
0.0
 20
0.0
 30
0.0
  3
*Model_Space
  1

  0
ENDBLK
  5
19
330
17
100
AcDbEntity
  8
0
100
AcDbBlockEnd
  0
BLOCK
  5
1C
330
1B
100
AcDbEntity
  8
0
100
AcDbBlockBegin
  2
*Paper_Space
 70
0
 10
0.0
 20
0.0
 30
0.0
  3
*Paper_Space
  1

  0
ENDBLK
  5
1D
330
1B
100
AcDbEntity
  8
0
100
AcDbBlockEnd
  0
ENDSEC
  0
SECTION
  2
ENTITIES
  0
LINE
  5
35
330
17
100
AcDbEntity
  8
Lines
100
AcDbLine
 10
17.12
 20
-5.22
 30
0.0
 11
32.26
 21
-5.22
 31
0.0
  0
LINE
  5
36
330
17
100
AcDbEntity
  8
Lines
100
AcDbLine
 10
4.1
 20
-5.57
 30
0.0
 11
11.43
 21
-5.57
 31
0.0
  0
LINE
  5
37
330
17
100
AcDbEntity
  8
Lines
100
AcDbLine
 10
16.15
 20
-5.5600000000000005
 30
0.0
 11
30.05
 21
-5.5600000000000005
 31
0.0
  0
LINE
  5
38
330
17
100
AcDbEntity
  8
Lines
100
AcDbLine
 10
16.76
 20
-5.21
 30
0.0
 11
29.490000000000002
 21
-5.21
 31
0.0
  0
LINE
  5
39
330
17
100
AcDbEntity
  8
Lines
100
AcDbLine
 10
17.51
 20
-5.58
 30
0.0
 11
26.8
 21
-5.58
 31
0.0
  0
LINE
  5
3A
330
17
100
AcDbEntity
  8
Lines
100
AcDbLine
 10
4.15
 20
-5.2
 30
0.0
 11
18.2
 21
-5.2
 31
0.0
  0
LINE
  5
3B
330
17
100
AcDbEntity
  8
Lines
100
AcDbLine
 10
3.94
 20
-18.29
 30
0.0
 11
24.09
 21
-18.29
 31
0.0
  0
LINE
  5
3C
330
17
100
AcDbEntity
  8
Lines
100
AcDbLine
 10
5.92
 20
-4.29
 30
0.0
 11
11.8
 21
-4.29
 31
0.0
  0
LINE
  5
3D
330
17
100
AcDbEntity
  8
Lines
100
AcDbLine
 10
4.3100000000000005
 20
-17.92
 30
0.0
 11
24.09
 21
-17.92
 31
0.0
  0
LINE
  5
3E
330
17
100
AcDbEntity
  8
Lines
100
AcDbLine
 10
3.94
 20
-18.28
 30
0.0
 11
12.42
 21
-18.28
 31
0.0
  0
LINE
  5
3F
330
17
100
AcDbEntity
  8
Lines
100
AcDbLine
 10
24.34
 20
-4.3
 30
0.0
 11
26.91
 21
-4.3
 31
0.0
  0
LINE
  5
40
330
17
100
AcDbEntity
  8
Lines
100
AcDbLine
 10
25.32
 20
-8.81
 30
0.0
 11
26.26
 21
-8.81
 31
0.0
  0
LINE
  5
41
330
17
100
AcDbEntity
  8
Lines
100
AcDbLine
 10
21.89
 20
-8.82
 30
0.0
 11
22.64
 21
-8.82
 31
0.0
  0
LINE
  5
42
330
17
100
AcDbEntity
  8
Lines
100
AcDbLine
 10
3.97
 20
-14.68
 30
0.0
 11
10.44
 21
-14.68
 31
0.0
  0
LINE
  5
43
330
17
100
AcDbEntity
  8
Lines
100
AcDbLine
 10
17.37
 20
-14.69
 30
0.0
 11
23.62
 21
-14.69
 31
0.0
  0
LINE
  5
44
330
17
100
AcDbEntity
  8
Lines
100
AcDbLine
 10
4.32
 20
-17.93
 30
0.0
 11
18.27
 21
-17.93
 31
0.0
  0
LINE
  5
45
330
17
100
AcDbEntity
  8
Lines
100
AcDbLine
 10
11.13
 20
-15.11
 30
0.0
 11
11.76
 21
-15.11
 31
0.0
  0
LINE
  5
46
330
17
100
AcDbEntity
  8
Lines
100
AcDbLine
 10
4.59
 20
-8.83
 30
0.0
 11
5.92
 21
-8.83
 31
0.0
  0
LINE
  5
47
330
17
100
AcDbEntity
  8
Lines
100
AcDbLine
 10
18.72
 20
-4.28
 30
0.0
 11
26.92
 21
-4.28
 31
0.0
  0
LINE
  5
48
330
17
100
AcDbEntity
  8
Lines
100
AcDbLine
 10
8.33
 20
-13.780000000000001
 30
0.0
 11
13.01
 21
-13.780000000000001
 31
0.0
  0
LINE
  5
49
330
17
100
AcDbEntity
  8
Lines
100
AcDbLine
 10
3.94
 20
-18.27
 30
0.0
 11
11.69
 21
-18.27
 31
0.0
  0
LINE
  5
4A
330
17
100
AcDbEntity
  8
Lines
100
AcDbLine
 10
15.08
 20
-11.47
 30
0.0
 11
16.67
 21
-11.47
 31
0.0
  0
LINE
  5
4B
330
17
100
AcDbEntity
  8
Lines
100
AcDbLine
 10
4.3100000000000005
 20
-17.91
 30
0.0
 11
10.25
 21
-17.91
 31
0.0
  0
LINE
  5
4C
330
17
100
AcDbEntity
  8
Lines
100
AcDbLine
 10
23.78
 20
-4.2700000000000005
 30
0.0
 11
26.77
 21
-4.2700000000000005
 31
0.0
  0
LINE
  5
4D
330
17
100
AcDbEntity
  8
Lines
100
AcDbLine
 10
14.82
 20
-13.8
 30
0.0
 11
19.580000000000002
 21
-13.8
 31
0.0
  0
LINE
  5
4E
330
17
100
AcDbEntity
  8
Lines
100
AcDbLine
 10
20.53
 20
-15.07
 30
0.0
 11
27.37
 21
-15.07
 31
0.0
  0
LINE
  5
4F
330
17
100
AcDbEntity
  8
Lines
100
AcDbLine
 10
6.94
 20
-5.55
 30
0.0
 11
17.84
 21
-5.55
 31
0.0
  0
LINE
  5
50
330
17
100
AcDbEntity
  8
Lines
100
AcDbLine
 10
31.220000000000002
 20
-11.48
 30
0.0
 11
31.76
 21
-11.48
 31
0.0
  0
LINE
  5
51
330
17
100
AcDbEntity
  8
Lines
100
AcDbLine
 10
10.38
 20
-14.71
 30
0.0
 11
17.39
 21
-14.71
 31
0.0
  0
LINE
  5
52
330
17
100
AcDbEntity
  8
Lines
100
AcDbLine
 10
10.43
 20
-15.09
 30
0.0
 11
17.39
 21
-15.09
 31
0.0
  0
LINE
  5
53
330
17
100
AcDbEntity
  8
Lines
100
AcDbLine
 10
9.9
 20
-18.3
 30
0.0
 11
17.14
 21
-18.3
 31
0.0
  0
LINE
  5
54
330
17
100
AcDbEntity
  8
Lines
100
AcDbLine
 10
12.61
 20
-11.47
 30
0.0
 11
14.84
 21
-11.47
 31
0.0
  0
LINE
  5
55
330
17
100
AcDbEntity
  8
Lines
100
AcDbLine
 10
19.41
 20
-17.94
 30
0.0
 11
23.51
 21
-17.94
 31
0.0
  0
LINE
  5
56
330
17
100
AcDbEntity
  8
Lines
100
AcDbLine
 10
12.59
 20
-8.82
 30
0.0
 11
14.74
 21
-8.82
 31
0.0
  0
LINE
  5
57
330
17
100
AcDbEntity
  8
Lines
100
AcDbLine
 10
23.6
 20
-14.72
 30
0.0
 11
27.0
 21
-14.72
 31
0.0
  0
LINE
  5
58
330
17
100
AcDbEntity
  8
Lines
100
AcDbLine
 10
4.13
 20
-5.23
 30
0.0
 11
7.05
 21
-5.23
 31
0.0
  0
LINE
  5
59
330
17
100
AcDbEntity
  8
Lines
100
AcDbLine
 10
24.41
 20
-15.120000000000001
 30
0.0
 11
26.92
 21
-15.120000000000001
 31
0.0
  0
LINE
  5
5A
330
17
100
AcDbEntity
  8
Lines
100
AcDbLine
 10
4.36
 20
-15.11
 30
0.0
 11
10.450000000000001
 21
-15.11
 31
0.0
  0
LINE
  5
5B
330
17
100
AcDbEntity
  8
Lines
100
AcDbLine
 10
27.36
 20
-17.89
 30
0.0
 11
32.12
 21
-17.89
 31
0.0
  0
LINE
  5
5C
330
17
100
AcDbEntity
  8
Lines
100
AcDbLine
 10
10.43
 20
-15.1
 30
0.0
 11
16.98
 21
-15.1
 31
0.0
  0
LINE
  5
5D
330
17
100
AcDbEntity
  8
Lines
100
AcDbLine
 10
9.94
 20
-5.18
 30
0.0
 11
17.31
 21
-5.18
 31
0.0
  0
LINE
  5
5E
330
17
100
AcDbEntity
  8
Lines
100
AcDbLine
 10
29.68
 20
-19.41
 30
0.0
 11
32.15
 21
-19.41
 31
0.0
  0
LINE
  5
5F
330
17
100
AcDbEntity
  8
Lines
100
AcDbLine
 10
17.71
 20
-11.49
 30
0.0
 11
18.31
 21
-11.49
 31
0.0
  0
LINE
  5
60
330
17
100
AcDbEntity
  8
Lines
100
AcDbLine
 10
8.71
 20
-5.19
 30
0.0
 11
17.44
 21
-5.19
 31
0.0
  0
LINE
  5
61
330
17
100
AcDbEntity
  8
Lines
100
AcDbLine
 10
8.93
 20
-5.54
 30
0.0
 11
17.36
 21
-5.54
 31
0.0
  0
LINE
  5
62
330
17
100
AcDbEntity
  8
Lines
100
AcDbLine
 10
28.39
 20
-5.59
 30
0.0
 11
31.91
 21
-5.59
 31
0.0
  0
LINE
  5
63
330
17
100
AcDbEntity
  8
Lines
100
AcDbLine
 10
24.42
 20
-19.400000000000002
 30
0.0
 11
32.160000000000004
 21
-19.400000000000002
 31
0.0
  0
LINE
  5
64
330
17
100
AcDbEntity
  8
Lines
100
AcDbLine
 10
24.07
 20
-19.76
 30
0.0
 11
32.53
 21
-19.76
 31
0.0
  0
LINE
  5
65
330
17
100
AcDbEntity
  8
Lines
100
AcDbLine
 10
28.36
 20
-5.24
 30
0.0
 11
32.27
 21
-5.24
 31
0.0
  0
LINE
  5
66
330
17
100
AcDbEntity
  8
Lines
100
AcDbLine
 10
4.49
 20
-4.3100000000000005
 30
0.0
 11
7.44
 21
-4.3100000000000005
 31
0.0
  0
LINE
  5
67
330
17
100
AcDbEntity
  8
Lines
100
AcDbLine
 10
19.09
 20
-8.81
 30
0.0
 11
20.66
 21
-8.81
 31
0.0
  0
LINE
  5
68
330
17
100
AcDbEntity
  8
Lines
100
AcDbLine
 10
25.310000000000002
 20
-19.38
 30
0.0
 11
32.160000000000004
 21
-19.38
 31
0.0
  0
LINE
  5
69
330
17
100
AcDbEntity
  8
Lines
100
AcDbLine
 10
6.32
 20
-11.48
 30
0.0
 11
8.44
 21
-11.48
 31
0.0
  0
LINE
  5
6A
330
17
100
AcDbEntity
  8
Lines
100
AcDbLine
 10
26.89
 20
-12.030000000000001
 30
0.0
 11
32.04
 21
-12.030000000000001
 31
0.0
  0
LINE
  5
6B
330
17
100
AcDbEntity
  8
Lines
100
AcDbLine
 10
26.98
 20
-8.74
 30
0.0
 11
31.96
 21
-8.74
 31
0.0
  0
LINE
  5
6C
330
17
100
AcDbEntity
  8
Lines
100
AcDbLine
 10
10.43
 20
-14.74
 30
0.0
 11
16.93
 21
-14.74
 31
0.0
  0
LINE
  5
6D
330
17
100
AcDbEntity
  8
Lines
100
AcDbLine
 10
26.09
 20
-11.49
 30
0.0
 11
26.82
 21
-11.49
 31
0.0
  0
LINE
  5
6E
330
17
100
AcDbEntity
  8
Lines
100
AcDbLine
 10
8.96
 20
-4.26
 30
0.0
 11
14.8
 21
-4.26
 31
0.0
  0
LINE
  5
6F
330
17
100
AcDbEntity
  8
Lines
100
AcDbLine
 10
26.900000000000002
 20
-11.620000000000001
 30
0.0
 11
32.04
 21
-11.620000000000001
 31
0.0
  0
LINE
  5
70
330
17
100
AcDbEntity
  8
Lines
100
AcDbLine
 10
6.32
 20
-9.72
 30
0.0
 11
8.47
 21
-9.72
 31
0.0
  0
LINE
  5
71
330
17
100
AcDbEntity
  8
Lines
100
AcDbLine
 10
27.96
 20
-19.740000000000002
 30
0.0
 11
32.160000000000004
 21
-19.740000000000002
 31
0.0
  0
LINE
  5
72
330
17
100
AcDbEntity
  8
Lines
100
AcDbLine
 10
11.18
 20
-5.53
 30
0.0
 11
17.09
 21
-5.53
 31
0.0
  0
LINE
  5
73
330
17
100
AcDbEntity
  8
Lines
100
AcDbLine
 10
24.43
 20
-17.900000000000002
 30
0.0
 11
26.96
 21
-17.900000000000002
 31
0.0
  0
LINE
  5
74
330
17
100
AcDbEntity
  8
Lines
100
AcDbLine
 10
6.23
 20
-9.71
 30
0.0
 11
11.78
 21
-9.71
 31
0.0
  0
LINE
  5
75
330
17
100
AcDbEntity
  8
Lines
100
AcDbLine
 10
25.990000000000002
 20
-12.030000000000001
 30
0.0
 11
26.7
 21
-12.030000000000001
 31
0.0
  0
LINE
  5
76
330
17
100
AcDbEntity
  8
Lines
100
AcDbLine
 10
32.57
 20
-8.72
 30
0.0
 11
33.29
 21
-8.72
 31
0.0
  0
LINE
  5
77
330
17
100
AcDbEntity
  8
Lines
100
AcDbLine
 10
19.06
 20
-11.48
 30
0.0
 11
20.77
 21
-11.46
 31
0.0
  0
LINE
  5
78
330
17
100
AcDbEntity
  8
Lines
100
AcDbLine
 10
17.06
 20
-19.23
 30
0.0
 11
20.240000000000002
 21
-19.23
 31
0.0
  0
LINE
  5
79
330
17
100
AcDbEntity
  8
Lines
100
AcDbLine
 10
21.490000000000002
 20
-19.240000000000002
 30
0.0
 11
24.02
 21
-19.240000000000002
 31
0.0
  0
LINE
  5
7A
330
17
100
AcDbEntity
  8
Lines
100
AcDbLine
 10
32.74
 20
-17.87
 30
0.0
 11
33.45
 21
-17.87
 31
0.0
  0
LINE
  5
7B
330
17
100
AcDbEntity
  8
Lines
100
AcDbLine
 10
20.59
 20
-14.8
 30
0.0
 11
22.77
 21
-14.8
 31
0.0
  0
LINE
  5
7C
330
17
100
AcDbEntity
  8
Lines
100
AcDbLine
 10
27.25
 20
-8.31
 30
0.0
 11
31.95
 21
-8.31
 31
0.0
  0
LINE
  5
7D
330
17
100
AcDbEntity
  8
Lines
100
AcDbLine
 10
17.17
 20
-19.22
 30
0.0
 11
19.72
 21
-19.22
 31
0.0
  0
LINE
  5
7E
330
17
100
AcDbEntity
  8
Lines
100
AcDbLine
 10
10.1
 20
-4.25
 30
0.0
 11
14.8
 21
-4.25
 31
0.0
  0
LINE
  5
7F
330
17
100
AcDbEntity
  8
Lines
100
AcDbLine
 10
4.61
 20
-4.32
 30
0.0
 11
6.87
 21
-4.32
 31
0.0
  0
LINE
  5
80
330
17
100
AcDbEntity
  8
Lines
100
AcDbLine
 10
2.88
 20
-8.91
 30
0.0
 11
3.75
 21
-8.91
 31
0.0
  0
LINE
  5
81
330
17
100
AcDbEntity
  8
Lines
100
AcDbLine
 10
28.51
 20
-8.75
 30
0.0
 11
31.96
 21
-8.75
 31
0.0
  0
LINE
  5
82
330
17
100
AcDbEntity
  8
Lines
100
AcDbLine
 10
28.37
 20
-17.86
 30
0.0
 11
32.04
 21
-17.86
 31
0.0
  0
LINE
  5
83
330
17
100
AcDbEntity
  8
Lines
100
AcDbLine
 10
8.73
 20
-8.83
 30
0.0
 11
9.91
 21
-8.83
 31
0.0
  0
LINE
  5
84
330
17
100
AcDbEntity
  8
Lines
100
AcDbLine
 10
23.740000000000002
 20
-11.51
 30
0.0
 11
25.150000000000002
 21
-11.51
 31
0.0
  0
LINE
  5
85
330
17
100
AcDbEntity
  8
Lines
100
AcDbLine
 10
27.580000000000002
 20
-11.61
 30
0.0
 11
31.970000000000002
 21
-11.61
 31
0.0
  0
LINE
  5
86
330
17
100
AcDbEntity
  8
Lines
100
AcDbLine
 10
7.19
 20
-8.82
 30
0.0
 11
8.32
 21
-8.81
 31
0.0
  0
LINE
  5
87
330
17
100
AcDbEntity
  8
Lines
100
AcDbLine
 10
17.35
 20
-8.790000000000001
 30
0.0
 11
18.18
 21
-8.790000000000001
 31
0.0
  0
LINE
  5
88
330
17
100
AcDbEntity
  8
Lines
100
AcDbLine
 10
28.39
 20
-12.0
 30
0.0
 11
29.1
 21
-12.0
 31
0.0
  0
LINE
  5
89
330
17
100
AcDbEntity
  8
Lines
100
AcDbLine
 10
29.12
 20
-5.6000000000000005
 30
0.0
 11
31.91
 21
-5.6000000000000005
 31
0.0
  0
LINE
  5
8A
330
17
100
AcDbEntity
  8
Lines
100
AcDbLine
 10
26.23
 20
-8.84
 30
0.0
 11
26.82
 21
-8.84
 31
0.0
  0
LINE
  5
8B
330
17
100
AcDbEntity
  8
Lines
100
AcDbLine
 10
4.59
 20
-11.48
 30
0.0
 11
6.01
 21
-11.46
 31
0.0
  0
LINE
  5
8C
330
17
100
AcDbEntity
  8
Lines
100
AcDbLine
 10
32.56
 20
-8.38
 30
0.0
 11
33.28
 21
-8.38
 31
0.0
  0
LINE
  5
8D
330
17
100
AcDbEntity
  8
Lines
100
AcDbLine
 10
17.490000000000002
 20
-4.3
 30
0.0
 11
24.18
 21
-4.3
 31
0.0
  0
LINE
  5
8E
330
17
100
AcDbEntity
  8
Lines
100
AcDbLine
 10
29.580000000000002
 20
-8.370000000000001
 30
0.0
 11
31.95
 21
-8.370000000000001
 31
0.0
  0
LINE
  5
8F
330
17
100
AcDbEntity
  8
Lines
100
AcDbLine
 10
8.81
 20
-11.49
 30
0.0
 11
9.51
 21
-11.49
 31
0.0
  0
LINE
  5
90
330
17
100
AcDbEntity
  8
Lines
100
AcDbLine
 10
30.75
 20
-8.4
 30
0.0
 11
31.95
 21
-8.38
 31
0.0
  0
LINE
  5
91
330
17
100
AcDbEntity
  8
Lines
100
AcDbLine
 10
13.56
 20
-5.17
 30
0.0
 11
16.46
 21
-5.17
 31
0.0
  0
LINE
  5
92
330
17
100
AcDbEntity
  8
Lines
100
AcDbLine
 10
2.83
 20
-11.5
 30
0.0
 11
3.8200000000000003
 21
-11.49
 31
0.0
  0
LINE
  5
93
330
17
100
AcDbEntity
  8
Lines
100
AcDbLine
 10
9.65
 20
-17.94
 30
0.0
 11
17.03
 21
-17.94
 31
0.0
  0
LINE
  5
94
330
17
100
AcDbEntity
  8
Lines
100
AcDbLine
 10
7.53
 20
-4.2700000000000005
 30
0.0
 11
15.370000000000001
 21
-4.2700000000000005
 31
0.0
  0
LINE
  5
95
330
17
100
AcDbEntity
  8
Lines
100
AcDbLine
 10
18.76
 20
-15.11
 30
0.0
 11
20.47
 21
-15.13
 31
0.0
  0
LINE
  5
96
330
17
100
AcDbEntity
  8
Lines
100
AcDbLine
 10
27.3
 20
-8.72
 30
0.0
 11
29.7
 21
-8.72
 31
0.0
  0
LINE
  5
97
330
17
100
AcDbEntity
  8
Lines
100
AcDbLine
 10
19.03
 20
-19.25
 30
0.0
 11
20.240000000000002
 21
-19.25
 31
0.0
  0
LINE
  5
98
330
17
100
AcDbEntity
  8
Lines
100
AcDbLine
 10
8.73
 20
-8.82
 30
0.0
 11
9.5
 21
-8.81
 31
0.0
  0
LINE
  5
99
330
17
100
AcDbEntity
  8
Lines
100
AcDbLine
 10
15.11
 20
-8.8
 30
0.0
 11
16.740000000000002
 21
-8.8
 31
0.0
  0
LINE
  5
9A
330
17
100
AcDbEntity
  8
Lines
100
AcDbLine
 10
15.08
 20
-11.48
 30
0.0
 11
16.21
 21
-11.48
 31
0.0
  0
LINE
  5
9B
330
17
100
AcDbEntity
  8
Lines
100
AcDbLine
 10
28.5
 20
-19.37
 30
0.0
 11
30.62
 21
-19.37
 31
0.0
  0
LINE
  5
9C
330
17
100
AcDbEntity
  8
Lines
100
AcDbLine
 10
16.330000000000002
 20
-17.95
 30
0.0
 11
16.330000000000002
 21
-15.08
 31
0.0
  0
LINE
  5
9D
330
17
100
AcDbEntity
  8
Lines
100
AcDbLine
 10
10.98
 20
-9.69
 30
0.0
 11
12.43
 21
-9.69
 31
0.0
  0
LINE
  5
9E
330
17
100
AcDbEntity
  8
Lines
100
AcDbLine
 10
6.25
 20
-8.83
 30
0.0
 11
7.4
 21
-8.83
 31
0.0
  0
LINE
  5
9F
330
17
100
AcDbEntity
  8
Lines
100
AcDbLine
 10
6.22
 20
-11.46
 30
0.0
 11
6.72
 21
-11.46
 31
0.0
  0
LINE
  5
A0
330
17
100
AcDbEntity
  8
Lines
100
AcDbLine
 10
17.5
 20
-14.790000000000001
 30
0.0
 11
19.61
 21
-14.790000000000001
 31
0.0
  0
LINE
  5
A1
330
17
100
AcDbEntity
  8
Lines
100
AcDbLine
 10
32.85
 20
-11.620000000000001
 30
0.0
 11
33.37
 21
-11.620000000000001
 31
0.0
  0
LINE
  5
A2
330
17
100
AcDbEntity
  8
Lines
100
AcDbLine
 10
29.87
 20
-8.76
 30
0.0
 11
31.78
 21
-8.76
 31
0.0
  0
LINE
  5
A3
330
17
100
AcDbEntity
  8
Lines
100
AcDbLine
 10
22.650000000000002
 20
-5.23
 30
0.0
 11
25.490000000000002
 21
-5.23
 31
0.0
  0
LINE
  5
A4
330
17
100
AcDbEntity
  8
Lines
100
AcDbLine
 10
22.1
 20
-8.8
 30
0.0
 11
23.0
 21
-8.81
 31
0.0
  0
LINE
  5
A5
330
17
100
AcDbEntity
  8
Lines
100
AcDbLine
 10
19.740000000000002
 20
-8.790000000000001
 30
0.0
 11
21.26
 21
-8.81
 31
0.0
  0
LINE
  5
A6
330
17
100
AcDbEntity
  8
Lines
100
AcDbLine
 10
21.69
 20
-13.8
 30
0.0
 11
23.400000000000002
 21
-13.780000000000001
 31
0.0
  0
LINE
  5
A7
330
17
100
AcDbEntity
  8
Lines
100
AcDbLine
 10
23.82
 20
-8.82
 30
0.0
 11
25.11
 21
-8.82
 31
0.0
  0
LINE
  5
A8
330
17
100
AcDbEntity
  8
Lines
100
AcDbLine
 10
20.73
 20
-8.790000000000001
 30
0.0
 11
21.25
 21
-8.790000000000001
 31
0.0
  0
LINE
  5
A9
330
17
100
AcDbEntity
  8
Lines
100
AcDbLine
 10
23.59
 20
-8.84
 30
0.0
 11
24.84
 21
-8.84
 31
0.0
  0
LINE
  5
AA
330
17
100
AcDbEntity
  8
Lines
100
AcDbLine
 10
16.4
 20
-16.51
 30
0.0
 11
17.05
 21
-16.51
 31
0.0
  0
LINE
  5
AB
330
17
100
AcDbEntity
  8
Lines
100
AcDbLine
 10
10.75
 20
-11.48
 30
0.0
 11
12.200000000000001
 21
-11.46
 31
0.0
  0
LINE
  5
AC
330
17
100
AcDbEntity
  8
Lines
100
AcDbLine
 10
15.58
 20
-15.07
 30
0.0
 11
16.71
 21
-15.08
 31
0.0
  0
LINE
  5
AD
330
17
100
AcDbEntity
  8
Lines
100
AcDbLine
 10
4.88
 20
-13.780000000000001
 30
0.0
 11
6.53
 21
-13.8
 31
0.0
  0
LINE
  5
AE
330
17
100
AcDbEntity
  8
Lines
100
AcDbLine
 10
29.23
 20
-10.94
 30
0.0
 11
30.22
 21
-10.97
 31
0.0
  0
LINE
  5
AF
330
17
100
AcDbEntity
  8
Lines
100
AcDbLine
 10
23.18
 20
-19.22
 30
0.0
 11
24.11
 21
-19.23
 31
0.0
  0
LINE
  5
B0
330
17
100
AcDbEntity
  8
Lines
100
AcDbLine
 10
1.56
 20
-14.700000000000001
 30
0.0
 11
3.2600000000000002
 21
-14.68
 31
0.0
  0
LINE
  5
B1
330
17
100
AcDbEntity
  8
Lines
100
AcDbLine
 10
2.83
 20
-5.57
 30
0.0
 11
3.52
 21
-5.57
 31
0.0
  0
LINE
  5
B2
330
17
100
AcDbEntity
  8
Lines
100
AcDbLine
 10
1.87
 20
-11.51
 30
0.0
 11
2.71
 21
-11.5
 31
0.0
  0
LINE
  5
B3
330
17
100
AcDbEntity
  8
Lines
100
AcDbLine
 10
30.27
 20
-12.0
 30
0.0
 11
31.970000000000002
 21
-12.0
 31
0.0
  0
LINE
  5
B4
330
17
100
AcDbEntity
  8
Lines
100
AcDbLine
 10
18.6
 20
-13.780000000000001
 30
0.0
 11
19.580000000000002
 21
-13.790000000000001
 31
0.0
  0
LINE
  5
B5
330
17
100
AcDbEntity
  8
Lines
100
AcDbLine
 10
16.73
 20
-4.26
 30
0.0
 11
17.87
 21
-4.29
 31
0.0
  0
LINE
  5
B6
330
17
100
AcDbEntity
  8
Lines
100
AcDbLine
 10
4.64
 20
-13.790000000000001
 30
0.0
 11
5.51
 21
-13.8
 31
0.0
  0
LINE
  5
B7
330
17
100
AcDbEntity
  8
Lines
100
AcDbLine
 10
24.43
 20
-19.41
 30
0.0
 11
29.55
 21
-19.41
 31
0.0
  0
LINE
  5
B8
330
17
100
AcDbEntity
  8
Lines
100
AcDbLine
 10
23.03
 20
-14.15
 30
0.0
 11
23.56
 21
-14.16
 31
0.0
  0
LINE
  5
B9
330
17
100
AcDbEntity
  8
Lines
100
AcDbLine
 10
16.94
 20
-5.57
 30
0.0
 11
31.900000000000002
 21
-5.57
 31
0.0
  0
LINE
  5
BA
330
17
100
AcDbEntity
  8
Lines
100
AcDbLine
 10
26.060000000000002
 20
-15.06
 30
0.0
 11
26.810000000000002
 21
-15.06
 31
0.0
  0
LINE
  5
BB
330
17
100
AcDbEntity
  8
Lines
100
AcDbLine
 10
2.2
 20
-14.700000000000001
 30
0.0
 11
3.7800000000000002
 21
-14.68
 31
0.0
  0
LINE
  5
BC
330
17
100
AcDbEntity
  8
Lines
100
AcDbLine
 10
4.54
 20
-11.450000000000001
 30
0.0
 11
5.17
 21
-11.450000000000001
 31
0.0
  0
LINE
  5
BD
330
17
100
AcDbEntity
  8
Lines
100
AcDbLine
 10
10.73
 20
-8.82
 30
0.0
 11
12.030000000000001
 21
-8.84
 31
0.0
  0
LINE
  5
BE
330
17
100
AcDbEntity
  8
Lines
100
AcDbLine
 10
30.42
 20
-4.32
 30
0.0
 11
31.63
 21
-4.3
 31
0.0
  0
LINE
  5
BF
330
17
100
AcDbEntity
  8
Lines
100
AcDbLine
 10
4.91
 20
-9.73
 30
0.0
 11
5.74
 21
-9.71
 31
0.0
  0
LINE
  5
C0
330
17
100
AcDbEntity
  8
Lines
100
AcDbLine
 10
21.38
 20
-13.8
 30
0.0
 11
22.830000000000002
 21
-13.780000000000001
 31
0.0
  0
LINE
  5
C1
330
17
100
AcDbEntity
  8
Lines
100
AcDbLine
 10
17.88
 20
-4.29
 30
0.0
 11
26.92
 21
-4.29
 31
0.0
  0
LINE
  5
C2
330
17
100
AcDbEntity
  8
Lines
100
AcDbLine
 10
20.6
 20
-11.47
 30
0.0
 11
21.32
 21
-11.46
 31
0.0
  0
LINE
  5
C3
330
17
100
AcDbEntity
  8
Lines
100
AcDbLine
 10
22.330000000000002
 20
-14.14
 30
0.0
 11
23.27
 21
-14.18
 31
0.0
  0
LINE
  5
C4
330
17
100
AcDbEntity
  8
Lines
100
AcDbLine
 10
17.29
 20
-11.46
 30
0.0
 11
18.14
 21
-11.48
 31
0.0
  0
LINE
  5
C5
330
17
100
AcDbEntity
  8
Lines
100
AcDbLine
 10
1.9000000000000001
 20
-8.92
 30
0.0
 11
2.77
 21
-8.92
 31
0.0
  0
LINE
  5
C6
330
17
100
AcDbEntity
  8
Lines
100
AcDbLine
 10
20.23
 20
-18.3
 30
0.0
 11
20.79
 21
-18.3
 31
0.0
  0
LINE
  5
C7
330
17
100
AcDbEntity
  8
Lines
100
AcDbLine
 10
1.95
 20
-5.62
 30
0.0
 11
2.79
 21
-5.63
 31
0.0
  0
LINE
  5
C8
330
17
100
AcDbEntity
  8
Lines
100
AcDbLine
 10
27.25
 20
-4.28
 30
0.0
 11
28.650000000000002
 21
-4.32
 31
0.0
  0
LINE
  5
C9
330
17
100
AcDbEntity
  8
Lines
100
AcDbLine
 10
17.37
 20
-15.11
 30
0.0
 11
18.85
 21
-15.13
 31
0.0
  0
LINE
  5
CA
330
17
100
AcDbEntity
  8
Lines
100
AcDbLine
 10
21.22
 20
-17.91
 30
0.0
 11
24.09
 21
-17.91
 31
0.0
  0
LINE
  5
CB
330
17
100
AcDbEntity
  8
Lines
100
AcDbLine
 10
20.900000000000002
 20
-14.68
 30
0.0
 11
21.46
 21
-14.68
 31
0.0
  0
LINE
  5
CC
330
17
100
AcDbEntity
  8
Lines
100
AcDbLine
 10
22.17
 20
-14.14
 30
0.0
 11
22.7
 21
-14.16
 31
0.0
  0
LINE
  5
CD
330
17
100
AcDbEntity
  8
Lines
100
AcDbLine
 10
4.13
 20
-5.58
 30
0.0
 11
5.26
 21
-5.59
 31
0.0
  0
LINE
  5
CE
330
17
100
AcDbEntity
  8
Lines
100
AcDbLine
 10
16.6
 20
-4.26
 30
0.0
 11
17.580000000000002
 21
-4.29
 31
0.0
  0
LINE
  5
CF
330
17
100
AcDbEntity
  8
Lines
100
AcDbLine
 10
30.740000000000002
 20
-4.32
 30
0.0
 11
31.91
 21
-4.3
 31
0.0
  0
LINE
  5
D0
330
17
100
AcDbEntity
  8
Lines
100
AcDbLine
 10
21.490000000000002
 20
-19.23
 30
0.0
 11
22.580000000000002
 21
-19.22
 31
0.0
  0
LINE
  5
D1
330
17
100
AcDbEntity
  8
Lines
100
AcDbLine
 10
7.83
 20
-11.46
 30
0.0
 11
8.44
 21
-11.47
 31
0.0
  0
LINE
  5
D2
330
17
100
AcDbEntity
  8
Lines
100
AcDbLine
 10
1.86
 20
-11.53
 30
0.0
 11
3.87
 21
-11.49
 31
0.0
  0
LINE
  5
D3
330
17
100
AcDbEntity
  8
Lines
100
AcDbLine
 10
19.12
 20
-18.27
 30
0.0
 11
20.25
 21
-18.28
 31
0.0
  0
LINE
  5
D4
330
17
100
AcDbEntity
  8
Lines
100
AcDbLine
 10
25.75
 20
-8.83
 30
0.0
 11
26.82
 21
-8.83
 31
0.0
  0
LINE
  5
D5
330
17
100
AcDbEntity
  8
Lines
100
AcDbLine
 10
27.38
 20
-12.58
 30
0.0
 11
28.63
 21
-12.56
 31
0.0
  0
LINE
  5
D6
330
17
100
AcDbEntity
  8
Lines
100
AcDbLine
 10
24.07
 20
-19.78
 30
0.0
 11
25.3
 21
-19.78
 31
0.0
  0
LINE
  5
D7
330
17
100
AcDbEntity
  8
Lines
100
AcDbLine
 10
1.9100000000000001
 20
-14.68
 30
0.0
 11
2.44
 21
-14.68
 31
0.0
  0
LINE
  5
D8
330
17
100
AcDbEntity
  8
Lines
100
AcDbLine
 10
22.89
 20
-18.27
 30
0.0
 11
24.02
 21
-18.28
 31
0.0
  0
LINE
  5
D9
330
17
100
AcDbEntity
  8
Lines
100
AcDbLine
 10
25.96
 20
-8.64
 30
0.0
 11
26.05
 21
-14.35
 31
0.0
  0
LINE
  5
DA
330
17
100
AcDbEntity
  8
Lines
100
AcDbLine
 10
19.07
 20
-8.790000000000001
 30
0.0
 11
20.02
 21
-8.8
 31
0.0
  0
LINE
  5
DB
330
17
100
AcDbEntity
  8
Lines
100
AcDbLine
 10
11.43
 20
-9.68
 30
0.0
 11
12.51
 21
-9.68
 31
0.0
  0
LINE
  5
DC
330
17
100
AcDbEntity
  8
Lines
100
AcDbLine
 10
27.64
 20
-17.56
 30
0.0
 11
28.34
 21
-17.56
 31
0.0
  0
LINE
  5
DD
330
17
100
AcDbEntity
  8
Lines
100
AcDbLine
 10
17.66
 20
-18.27
 30
0.0
 11
18.79
 21
-18.28
 31
0.0
  0
LINE
  5
DE
330
17
100
AcDbEntity
  8
Lines
100
AcDbLine
 10
6.78
 20
-17.900000000000002
 30
0.0
 11
9.14
 21
-17.900000000000002
 31
0.0
  0
LINE
  5
DF
330
17
100
AcDbEntity
  8
Lines
100
AcDbLine
 10
11.6
 20
-11.48
 30
0.0
 11
12.200000000000001
 21
-11.48
 31
0.0
  0
LINE
  5
E0
330
17
100
AcDbEntity
  8
Lines
100
AcDbLine
 10
18.36
 20
-15.11
 30
0.0
 11
19.21
 21
-15.13
 31
0.0
  0
LINE
  5
E1
330
17
100
AcDbEntity
  8
Lines
100
AcDbLine
 10
4.49
 20
-4.3
 30
0.0
 11
5.53
 21
-4.29
 31
0.0
  0
LINE
  5
E2
330
17
100
AcDbEntity
  8
Lines
100
AcDbLine
 10
19.7
 20
-15.11
 30
0.0
 11
20.55
 21
-15.120000000000001
 31
0.0
  0
LINE
  5
E3
330
17
100
AcDbEntity
  8
Lines
100
AcDbLine
 10
25.68
 20
-19.68
 30
0.0
 11
26.240000000000002
 21
-19.68
 31
0.0
  0
LINE
  5
E4
330
17
100
AcDbEntity
  8
Lines
100
AcDbLine
 10
21.71
 20
-18.3
 30
0.0
 11
22.27
 21
-18.3
 31
0.0
  0
LINE
  5
E5
330
17
100
AcDbEntity
  8
Lines
100
AcDbLine
 10
8.81
 20
-9.72
 30
0.0
 11
10.73
 21
-9.72
 31
0.0
  0
LINE
  5
E6
330
17
100
AcDbEntity
  8
Lines
100
AcDbLine
 10
28.95
 20
-10.96
 30
0.0
 11
29.5
 21
-10.950000000000001
 31
0.0
  0
LINE
  5
E7
330
17
100
AcDbEntity
  8
Lines
100
AcDbLine
 10
23.76
 20
-14.71
 30
0.0
 11
24.32
 21
-14.71
 31
0.0
  0
LINE
  5
E8
330
17
100
AcDbEntity
  8
Lines
100
AcDbLine
 10
17.43
 20
-14.8
 30
0.0
 11
20.5
 21
-14.8
 31
0.0
  0
LINE
  5
E9
330
17
100
AcDbEntity
  8
Lines
100
AcDbLine
 10
21.72
 20
-14.68
 30
0.0
 11
22.28
 21
-14.68
 31
0.0
  0
LINE
  5
EA
330
17
100
AcDbEntity
  8
Lines
100
AcDbLine
 10
6.640000000000001
 20
-11.47
 30
0.0
 11
7.26
 21
-11.46
 31
0.0
  0
LINE
  5
EB
330
17
100
AcDbEntity
  8
Lines
100
AcDbLine
 10
20.8
 20
-18.27
 30
0.0
 11
21.93
 21
-18.28
 31
0.0
  0
LINE
  5
EC
330
17
100
AcDbEntity
  8
Lines
100
AcDbLine
 10
14.82
 20
-13.790000000000001
 30
0.0
 11
15.48
 21
-13.780000000000001
 31
0.0
  0
LINE
  5
ED
330
17
100
AcDbEntity
  8
Lines
100
AcDbLine
 10
22.650000000000002
 20
-13.8
 30
0.0
 11
23.63
 21
-13.780000000000001
 31
0.0
  0
LINE
  5
EE
330
17
100
AcDbEntity
  8
Lines
100
AcDbLine
 10
25.72
 20
-14.73
 30
0.0
 11
26.28
 21
-14.73
 31
0.0
  0
LINE
  5
EF
330
17
100
AcDbEntity
  8
Lines
100
AcDbLine
 10
12.8
 20
-12.42
 30
0.0
 11
13.31
 21
-12.42
 31
0.0
  0
LINE
  5
F0
330
17
100
AcDbEntity
  8
Lines
100
AcDbLine
 10
29.650000000000002
 20
-8.4
 30
0.0
 11
30.900000000000002
 21
-8.38
 31
0.0
  0
LINE
  5
F1
330
17
100
AcDbEntity
  8
Lines
100
AcDbLine
 10
27.43
 20
-10.97
 30
0.0
 11
27.98
 21
-10.99
 31
0.0
  0
LINE
  5
F2
330
17
100
AcDbEntity
  8
Lines
100
AcDbLine
 10
24.42
 20
-17.91
 30
0.0
 11
25.52
 21
-17.92
 31
0.0
  0
LINE
  5
F3
330
17
100
AcDbEntity
  8
Lines
100
AcDbLine
 10
17.900000000000002
 20
-17.89
 30
0.0
 11
19.35
 21
-17.91
 31
0.0
  0
LINE
  5
F4
330
17
100
AcDbEntity
  8
Lines
100
AcDbLine
 10
10.67
 20
-4.3500000000000005
 30
0.0
 11
11.59
 21
-4.3500000000000005
 31
0.0
  0
LINE
  5
F5
330
17
100
AcDbEntity
  8
Lines
100
AcDbLine
 10
27.6
 20
-5.23
 30
0.0
 11
32.27
 21
-5.23
 31
0.0
  0
LINE
  5
F6
330
17
100
AcDbEntity
  8
Lines
100
AcDbLine
 10
4.32
 20
-13.790000000000001
 30
0.0
 11
5.1000000000000005
 21
-13.8
 31
0.0
  0
LINE
  5
F7
330
17
100
AcDbEntity
  8
Lines
100
AcDbLine
 10
19.12
 20
-14.700000000000001
 30
0.0
 11
19.68
 21
-14.700000000000001
 31
0.0
  0
LINE
  5
F8
330
17
100
AcDbEntity
  8
Lines
100
AcDbLine
 10
16.2
 20
-15.07
 30
0.0
 11
17.29
 21
-15.08
 31
0.0
  0
LINE
  5
F9
330
17
100
AcDbEntity
  8
Lines
100
AcDbLine
 10
17.86
 20
-11.47
 30
0.0
 11
18.75
 21
-11.46
 31
0.0
  0
LINE
  5
FA
330
17
100
AcDbEntity
  8
Lines
100
AcDbLine
 10
23.87
 20
-14.73
 30
0.0
 11
24.72
 21
-14.74
 31
0.0
  0
LINE
  5
FB
330
17
100
AcDbEntity
  8
Lines
100
AcDbLine
 10
22.990000000000002
 20
-14.68
 30
0.0
 11
23.55
 21
-14.68
 31
0.0
  0
LINE
  5
FC
330
17
100
AcDbEntity
  8
Lines
100
AcDbLine
 10
17.900000000000002
 20
-18.26
 30
0.0
 11
19.52
 21
-18.28
 31
0.0
  0
LINE
  5
FD
330
17
100
AcDbEntity
  8
Lines
100
AcDbLine
 10
4.28
 20
-14.69
 30
0.0
 11
6.08
 21
-14.69
 31
0.0
  0
LINE
  5
FE
330
17
100
AcDbEntity
  8
Lines
100
AcDbLine
 10
20.59
 20
-15.09
 30
0.0
 11
21.72
 21
-15.1
 31
0.0
  0
LINE
  5
FF
330
17
100
AcDbEntity
  8
Lines
100
AcDbLine
 10
3.89
 20
-7.86
 30
0.0
 11
4.71
 21
-7.86
 31
0.0
  0
LINE
  5
100
330
17
100
AcDbEntity
  8
Lines
100
AcDbLine
 10
4.7
 20
-5.58
 30
0.0
 11
8.77
 21
-5.58
 31
0.0
  0
LINE
  5
101
330
17
100
AcDbEntity
  8
Lines
100
AcDbLine
 10
23.66
 20
-8.85
 30
0.0
 11
24.22
 21
-8.85
 31
0.0
  0
LINE
  5
102
330
17
100
AcDbEntity
  8
Lines
100
AcDbLine
 10
23.02
 20
-15.09
 30
0.0
 11
24.150000000000002
 21
-15.1
 31
0.0
  0
LINE
  5
103
330
17
100
AcDbEntity
  8
Lines
100
AcDbLine
 10
22.0
 20
-18.28
 30
0.0
 11
22.56
 21
-18.27
 31
0.0
  0
LINE
  5
104
330
17
100
AcDbEntity
  8
Lines
100
AcDbLine
 10
18.0
 20
-4.3100000000000005
 30
0.0
 11
18.75
 21
-4.32
 31
0.0
  0
LINE
  5
105
330
17
100
AcDbEntity
  8
Lines
100
AcDbLine
 10
32.68
 20
-12.02
 30
0.0
 11
33.2
 21
-12.030000000000001
 31
0.0
  0
LINE
  5
106
330
17
100
AcDbEntity
  8
Lines
100
AcDbLine
 10
21.38
 20
-13.790000000000001
 30
0.0
 11
22.21
 21
-13.780000000000001
 31
0.0
  0
LINE
  5
107
330
17
100
AcDbEntity
  8
Lines
100
AcDbLine
 10
22.71
 20
-14.15
 30
0.0
 11
23.42
 21
-14.18
 31
0.0
  0
LINE
  5
108
330
17
100
AcDbEntity
  8
Lines
100
AcDbLine
 10
4.39
 20
-14.63
 30
0.0
 11
4.54
 21
-5.73
 31
0.0
  0
LINE
  5
109
330
17
100
AcDbEntity
  8
Lines
100
AcDbLine
 10
31.96
 20
-8.97
 30
0.0
 11
32.05
 21
-14.63
 31
0.0
  0
LINE
  5
10A
330
17
100
AcDbEntity
  8
Lines
100
AcDbLine
 10
32.31
 20
-8.65
 30
0.0
 11
32.42
 21
-15.25
 31
0.0
  0
LINE
  5
10B
330
17
100
AcDbEntity
  8
Lines
100
AcDbLine
 10
31.88
 20
-5.69
 30
0.0
 11
31.94
 21
-9.53
 31
0.0
  0
LINE
  5
10C
330
17
100
AcDbEntity
  8
Lines
100
AcDbLine
 10
32.24
 20
-5.23
 30
0.0
 11
32.32
 21
-9.98
 31
0.0
  0
LINE
  5
10D
330
17
100
AcDbEntity
  8
Lines
100
AcDbLine
 10
26.84
 20
-7.4
 30
0.0
 11
26.91
 21
-11.64
 31
0.0
  0
LINE
  5
10E
330
17
100
AcDbEntity
  8
Lines
100
AcDbLine
 10
26.96
 20
-15.14
 30
0.0
 11
27.03
 21
-19.42
 31
0.0
  0
LINE
  5
10F
330
17
100
AcDbEntity
  8
Lines
100
AcDbLine
 10
33.410000000000004
 20
-17.71
 30
0.0
 11
33.44
 21
-19.330000000000002
 31
0.0
  0
LINE
  5
110
330
17
100
AcDbEntity
  8
Lines
100
AcDbLine
 10
2.72
 20
-13.67
 30
0.0
 11
2.86
 21
-5.55
 31
0.0
  0
LINE
  5
111
330
17
100
AcDbEntity
  8
Lines
100
AcDbLine
 10
1.74
 20
-14.39
 30
0.0
 11
1.79
 21
-11.73
 31
0.0
  0
LINE
  5
112
330
17
100
AcDbEntity
  8
Lines
100
AcDbLine
 10
4.18
 20
-14.620000000000001
 30
0.0
 11
4.33
 21
-5.72
 31
0.0
  0
LINE
  5
113
330
17
100
AcDbEntity
  8
Lines
100
AcDbLine
 10
1.74
 20
-14.17
 30
0.0
 11
1.82
 21
-9.17
 31
0.0
  0
LINE
  5
114
330
17
100
AcDbEntity
  8
Lines
100
AcDbLine
 10
4.43
 20
-11.88
 30
0.0
 11
4.53
 21
-5.64
 31
0.0
  0
LINE
  5
115
330
17
100
AcDbEntity
  8
Lines
100
AcDbLine
 10
33.33
 20
-13.99
 30
0.0
 11
33.39
 21
-17.81
 31
0.0
  0
LINE
  5
116
330
17
100
AcDbEntity
  8
Lines
100
AcDbLine
 10
3.97
 20
-14.700000000000001
 30
0.0
 11
4.12
 21
-5.5600000000000005
 31
0.0
  0
LINE
  5
117
330
17
100
AcDbEntity
  8
Lines
100
AcDbLine
 10
32.230000000000004
 20
-5.4
 30
0.0
 11
32.29
 21
-9.16
 31
0.0
  0
LINE
  5
118
330
17
100
AcDbEntity
  8
Lines
100
AcDbLine
 10
4.38
 20
-7.8
 30
0.0
 11
4.42
 21
-6.38
 31
0.0
  0
LINE
  5
119
330
17
100
AcDbEntity
  8
Lines
100
AcDbLine
 10
4.0
 20
-12.1
 30
0.0
 11
4.03
 21
-9.82
 31
0.0
  0
LINE
  5
11A
330
17
100
AcDbEntity
  8
Lines
100
AcDbLine
 10
25.02
 20
-14.67
 30
0.0
 11
25.02
 21
-11.48
 31
0.0
  0
LINE
  5
11B
330
17
100
AcDbEntity
  8
Lines
100
AcDbLine
 10
10.790000000000001
 20
-13.73
 30
0.0
 11
10.83
 21
-11.57
 31
0.0
  0
LINE
  5
11C
330
17
100
AcDbEntity
  8
Lines
100
AcDbLine
 10
2.71
 20
-14.47
 30
0.0
 11
2.86
 21
-5.78
 31
0.0
  0
LINE
  5
11D
330
17
100
AcDbEntity
  8
Lines
100
AcDbLine
 10
17.19
 20
-13.75
 30
0.0
 11
17.23
 21
-11.36
 31
0.0
  0
LINE
  5
11E
330
17
100
AcDbEntity
  8
Lines
100
AcDbLine
 10
4.08
 20
-14.4
 30
0.0
 11
4.14
 21
-10.4
 31
0.0
  0
LINE
  5
11F
330
17
100
AcDbEntity
  8
Lines
100
AcDbLine
 10
25.35
 20
-14.67
 30
0.0
 11
25.35
 21
-11.44
 31
0.0
  0
LINE
  5
120
330
17
100
AcDbEntity
  8
Lines
100
AcDbLine
 10
4.3100000000000005
 20
-17.94
 30
0.0
 11
4.36
 21
-14.69
 31
0.0
  0
LINE
  5
121
330
17
100
AcDbEntity
  8
Lines
100
AcDbLine
 10
32.02
 20
-13.38
 30
0.0
 11
32.11
 21
-19.04
 31
0.0
  0
LINE
  5
122
330
17
100
AcDbEntity
  8
Lines
100
AcDbLine
 10
25.36
 20
-8.77
 30
0.0
 11
25.36
 21
-5.5600000000000005
 31
0.0
  0
LINE
  5
123
330
17
100
AcDbEntity
  8
Lines
100
AcDbLine
 10
18.67
 20
-8.91
 30
0.0
 11
18.73
 21
-5.65
 31
0.0
  0
LINE
  5
124
330
17
100
AcDbEntity
  8
Lines
100
AcDbLine
 10
4.3
 20
-14.620000000000001
 30
0.0
 11
4.34
 21
-12.290000000000001
 31
0.0
  0
LINE
  5
125
330
17
100
AcDbEntity
  8
Lines
100
AcDbLine
 10
12.66
 20
-8.83
 30
0.0
 11
12.69
 21
-6.5600000000000005
 31
0.0
  0
LINE
  5
126
330
17
100
AcDbEntity
  8
Lines
100
AcDbLine
 10
27.310000000000002
 20
-12.02
 30
0.0
 11
27.35
 21
-14.72
 31
0.0
  0
LINE
  5
127
330
17
100
AcDbEntity
  8
Lines
100
AcDbLine
 10
14.82
 20
-17.95
 30
0.0
 11
14.82
 21
-15.08
 31
0.0
  0
LINE
  5
128
330
17
100
AcDbEntity
  8
Lines
100
AcDbLine
 10
27.28
 20
-8.74
 30
0.0
 11
27.330000000000002
 21
-11.65
 31
0.0
  0
LINE
  5
129
330
17
100
AcDbEntity
  8
Lines
100
AcDbLine
 10
17.29
 20
-8.76
 30
0.0
 11
17.330000000000002
 21
-6.08
 31
0.0
  0
LINE
  5
12A
330
17
100
AcDbEntity
  8
Lines
100
AcDbLine
 10
26.92
 20
-14.64
 30
0.0
 11
26.92
 21
-12.39
 31
0.0
  0
LINE
  5
12B
330
17
100
AcDbEntity
  8
Lines
100
AcDbLine
 10
12.31
 20
-8.21
 30
0.0
 11
12.35
 21
-5.62
 31
0.0
  0
LINE
  5
12C
330
17
100
AcDbEntity
  8
Lines
100
AcDbLine
 10
27.22
 20
-5.7
 30
0.0
 11
27.26
 21
-8.55
 31
0.0
  0
LINE
  5
12D
330
17
100
AcDbEntity
  8
Lines
100
AcDbLine
 10
33.27
 20
-9.08
 30
0.0
 11
33.36
 21
-14.58
 31
0.0
  0
LINE
  5
12E
330
17
100
AcDbEntity
  8
Lines
100
AcDbLine
 10
26.84
 20
-6.49
 30
0.0
 11
26.92
 21
-11.540000000000001
 31
0.0
  0
LINE
  5
12F
330
17
100
AcDbEntity
  8
Lines
100
AcDbLine
 10
25.96
 20
-8.09
 30
0.0
 11
26.03
 21
-12.64
 31
0.0
  0
LINE
  5
130
330
17
100
AcDbEntity
  8
Lines
100
AcDbLine
 10
14.780000000000001
 20
-8.86
 30
0.0
 11
14.84
 21
-5.61
 31
0.0
  0
LINE
  5
131
330
17
100
AcDbEntity
  8
Lines
100
AcDbLine
 10
12.55
 20
-15.91
 30
0.0
 11
12.56
 21
-15.09
 31
0.0
  0
LINE
  5
132
330
17
100
AcDbEntity
  8
Lines
100
AcDbLine
 10
22.75
 20
-17.900000000000002
 30
0.0
 11
22.77
 21
-16.2
 31
0.0
  0
LINE
  5
133
330
17
100
AcDbEntity
  8
Lines
100
AcDbLine
 10
4.17
 20
-8.370000000000001
 30
0.0
 11
4.21
 21
-5.66
 31
0.0
  0
LINE
  5
134
330
17
100
AcDbEntity
  8
Lines
100
AcDbLine
 10
28.27
 20
-15.46
 30
0.0
 11
28.310000000000002
 21
-17.97
 31
0.0
  0
LINE
  5
135
330
17
100
AcDbEntity
  8
Lines
100
AcDbLine
 10
32.47
 20
-18.7
 30
0.0
 11
32.5
 21
-19.79
 31
0.0
  0
LINE
  5
136
330
17
100
AcDbEntity
  8
Lines
100
AcDbLine
 10
22.89
 20
-8.88
 30
0.0
 11
22.94
 21
-5.63
 31
0.0
  0
LINE
  5
137
330
17
100
AcDbEntity
  8
Lines
100
AcDbLine
 10
2.72
 20
-14.74
 30
0.0
 11
2.74
 21
-13.26
 31
0.0
  0
LINE
  5
138
330
17
100
AcDbEntity
  8
Lines
100
AcDbLine
 10
14.84
 20
-6.49
 30
0.0
 11
14.85
 21
-5.61
 31
0.0
  0
LINE
  5
139
330
17
100
AcDbEntity
  8
Lines
100
AcDbLine
 10
10.75
 20
-17.88
 30
0.0
 11
10.8
 21
-15.15
 31
0.0
  0
LINE
  5
13A
330
17
100
AcDbEntity
  8
Lines
100
AcDbLine
 10
12.57
 20
-14.68
 30
0.0
 11
12.57
 21
-13.85
 31
0.0
  0
LINE
  5
13B
330
17
100
AcDbEntity
  8
Lines
100
AcDbLine
 10
24.060000000000002
 20
-19.79
 30
0.0
 11
24.060000000000002
 21
-15.16
 31
0.0
  0
LINE
  5
13C
330
17
100
AcDbEntity
  8
Lines
100
AcDbLine
 10
18.6
 20
-13.74
 30
0.0
 11
18.64
 21
-11.35
 31
0.0
  0
LINE
  5
13D
330
17
100
AcDbEntity
  8
Lines
100
AcDbLine
 10
1.84
 20
-8.96
 30
0.0
 11
1.8900000000000001
 21
-5.94
 31
0.0
  0
LINE
  5
13E
330
17
100
AcDbEntity
  8
Lines
100
AcDbLine
 10
27.32
 20
-13.69
 30
0.0
 11
27.38
 21
-17.69
 31
0.0
  0
LINE
  5
13F
330
17
100
AcDbEntity
  8
Lines
100
AcDbLine
 10
33.29
 20
-9.78
 30
0.0
 11
33.35
 21
-13.280000000000001
 31
0.0
  0
LINE
  5
140
330
17
100
AcDbEntity
  8
Lines
100
AcDbLine
 10
21.14
 20
-8.73
 30
0.0
 11
21.16
 21
-7.22
 31
0.0
  0
LINE
  5
141
330
17
100
AcDbEntity
  8
Lines
100
AcDbLine
 10
10.43
 20
-17.95
 30
0.0
 11
10.43
 21
-14.69
 31
0.0
  0
LINE
  5
142
330
17
100
AcDbEntity
  8
Lines
100
AcDbLine
 10
12.32
 20
-8.21
 30
0.0
 11
12.33
 21
-7.18
 31
0.0
  0
LINE
  5
143
330
17
100
AcDbEntity
  8
Lines
100
AcDbLine
 10
23.67
 20
-12.84
 30
0.0
 11
23.67
 21
-11.43
 31
0.0
  0
LINE
  5
144
330
17
100
AcDbEntity
  8
Lines
100
AcDbLine
 10
10.200000000000001
 20
-8.86
 30
0.0
 11
10.24
 21
-6.13
 31
0.0
  0
LINE
  5
145
330
17
100
AcDbEntity
  8
Lines
100
AcDbLine
 10
15.040000000000001
 20
-14.68
 30
0.0
 11
15.05
 21
-13.85
 31
0.0
  0
LINE
  5
146
330
17
100
AcDbEntity
  8
Lines
100
AcDbLine
 10
6.24
 20
-13.74
 30
0.0
 11
6.24
 21
-11.44
 31
0.0
  0
LINE
  5
147
330
17
100
AcDbEntity
  8
Lines
100
AcDbLine
 10
17.09
 20
-17.95
 30
0.0
 11
17.09
 21
-15.08
 31
0.0
  0
LINE
  5
148
330
17
100
AcDbEntity
  8
Lines
100
AcDbLine
 10
15.13
 20
-8.870000000000001
 30
0.0
 11
15.15
 21
-7.3100000000000005
 31
0.0
  0
LINE
  5
149
330
17
100
AcDbEntity
  8
Lines
100
AcDbLine
 10
17.080000000000002
 20
-19.29
 30
0.0
 11
17.080000000000002
 21
-18.56
 31
0.0
  0
LINE
  5
14A
330
17
100
AcDbEntity
  8
Lines
100
AcDbLine
 10
26.01
 20
-12.09
 30
0.0
 11
26.05
 21
-14.76
 31
0.0
  0
LINE
  5
14B
330
17
100
AcDbEntity
  8
Lines
100
AcDbLine
 10
8.78
 20
-8.790000000000001
 30
0.0
 11
8.8
 21
-7.63
 31
0.0
  0
LINE
  5
14C
330
17
100
AcDbEntity
  8
Lines
100
AcDbLine
 10
1.74
 20
-15.39
 30
0.0
 11
1.78
 21
-12.66
 31
0.0
  0
LINE
  5
14D
330
17
100
AcDbEntity
  8
Lines
100
AcDbLine
 10
5.88
 20
-14.64
 30
0.0
 11
5.88
 21
-13.86
 31
0.0
  0
LINE
  5
14E
330
17
100
AcDbEntity
  8
Lines
100
AcDbLine
 10
10.19
 20
-8.86
 30
0.0
 11
10.24
 21
-5.62
 31
0.0
  0
LINE
  5
14F
330
17
100
AcDbEntity
  8
Lines
100
AcDbLine
 10
24.44
 20
-19.42
 30
0.0
 11
24.44
 21
-15.120000000000001
 31
0.0
  0
LINE
  5
150
330
17
100
AcDbEntity
  8
Lines
100
AcDbLine
 10
18.69
 20
-7.18
 30
0.0
 11
18.7
 21
-6.3100000000000005
 31
0.0
  0
LINE
  5
151
330
17
100
AcDbEntity
  8
Lines
100
AcDbLine
 10
25.0
 20
-14.67
 30
0.0
 11
25.0
 21
-12.94
 31
0.0
  0
LINE
  5
152
330
17
100
AcDbEntity
  8
Lines
100
AcDbLine
 10
17.27
 20
-8.88
 30
0.0
 11
17.3
 21
-7.0600000000000005
 31
0.0
  0
LINE
  5
153
330
17
100
AcDbEntity
  8
Lines
100
AcDbLine
 10
10.94
 20
-7.13
 30
0.0
 11
10.94
 21
-5.72
 31
0.0
  0
LINE
  5
154
330
17
100
AcDbEntity
  8
Lines
100
AcDbLine
 10
15.120000000000001
 20
-8.790000000000001
 30
0.0
 11
15.17
 21
-5.62
 31
0.0
  0
LINE
  5
155
330
17
100
AcDbEntity
  8
Lines
100
AcDbLine
 10
24.42
 20
-19.42
 30
0.0
 11
24.42
 21
-16.57
 31
0.0
  0
LINE
  5
156
330
17
100
AcDbEntity
  8
Lines
100
AcDbLine
 10
3.94
 20
-18.31
 30
0.0
 11
4.0
 21
-14.75
 31
0.0
  0
LINE
  5
157
330
17
100
AcDbEntity
  8
Lines
100
AcDbLine
 10
23.68
 20
-14.68
 30
0.0
 11
23.68
 21
-11.43
 31
0.0
  0
LINE
  5
158
330
17
100
AcDbEntity
  8
Lines
100
AcDbLine
 10
33.38
 20
-16.56
 30
0.0
 11
33.4
 21
-18.03
 31
0.0
  0
LINE
  5
159
330
17
100
AcDbEntity
  8
Lines
100
AcDbLine
 10
28.23
 20
-12.040000000000001
 30
0.0
 11
28.26
 21
-14.200000000000001
 31
0.0
  0
LINE
  5
15A
330
17
100
AcDbEntity
  8
Lines
100
AcDbLine
 10
10.77
 20
-17.54
 30
0.0
 11
10.790000000000001
 21
-16.18
 31
0.0
  0
LINE
  5
15B
330
17
100
AcDbEntity
  8
Lines
100
AcDbLine
 10
2.81
 20
-7.91
 30
0.0
 11
2.82
 21
-6.87
 31
0.0
  0
LINE
  5
15C
330
17
100
AcDbEntity
  8
Lines
100
AcDbLine
 10
25.94
 20
-6.01
 30
0.0
 11
25.98
 21
-8.86
 31
0.0
  0
LINE
  5
15D
330
17
100
AcDbEntity
  8
Lines
100
AcDbLine
 10
12.18
 20
-14.450000000000001
 30
0.0
 11
12.19
 21
-13.88
 31
0.0
  0
LINE
  5
15E
330
17
100
AcDbEntity
  8
Lines
100
AcDbLine
 10
8.78
 20
-8.28
 30
0.0
 11
8.82
 21
-5.63
 31
0.0
  0
LINE
  5
15F
330
17
100
AcDbEntity
  8
Lines
100
AcDbLine
 10
3.98
 20
-14.71
 30
0.0
 11
4.01
 21
-12.530000000000001
 31
0.0
  0
LINE
  5
160
330
17
100
AcDbEntity
  8
Lines
100
AcDbLine
 10
1.86
 20
-6.66
 30
0.0
 11
1.87
 21
-5.91
 31
0.0
  0
LINE
  5
161
330
17
100
AcDbEntity
  8
Lines
100
AcDbLine
 10
24.41
 20
-19.25
 30
0.0
 11
24.41
 21
-17.92
 31
0.0
  0
LINE
  5
162
330
17
100
AcDbEntity
  8
Lines
100
AcDbLine
 10
8.69
 20
-14.63
 30
0.0
 11
8.71
 21
-13.85
 31
0.0
  0
LINE
  5
163
330
17
100
AcDbEntity
  8
Lines
100
AcDbLine
 10
8.41
 20
-8.77
 30
0.0
 11
8.43
 21
-7.390000000000001
 31
0.0
  0
LINE
  5
164
330
17
100
AcDbEntity
  8
Lines
100
AcDbLine
 10
4.16
 20
-7.73
 30
0.0
 11
4.2
 21
-5.66
 31
0.0
  0
LINE
  5
165
330
17
100
AcDbEntity
  8
Lines
100
AcDbLine
 10
5.93
 20
-7.640000000000001
 30
0.0
 11
5.96
 21
-5.66
 31
0.0
  0
LINE
  5
166
330
17
100
AcDbEntity
  8
Lines
100
AcDbLine
 10
24.05
 20
-18.3
 30
0.0
 11
24.05
 21
-15.07
 31
0.0
  0
LINE
  5
167
330
17
100
AcDbEntity
  8
Lines
100
AcDbLine
 10
25.03
 20
-11.99
 30
0.0
 11
25.03
 21
-11.48
 31
0.0
  0
LINE
  5
168
330
17
100
AcDbEntity
  8
Lines
100
AcDbLine
 10
32.4
 20
-15.74
 30
0.0
 11
32.49
 21
-18.59
 31
0.0
  0
LINE
  5
169
330
17
100
AcDbEntity
  8
Lines
100
AcDbLine
 10
6.26
 20
-8.69
 30
0.0
 11
6.3
 21
-5.84
 31
0.0
  0
LINE
  5
16A
330
17
100
AcDbEntity
  8
Lines
100
AcDbLine
 10
10.9
 20
-7.44
 30
0.0
 11
10.92
 21
-8.74
 31
0.0
  0
LINE
  5
16B
330
17
100
AcDbEntity
  8
Lines
100
AcDbLine
 10
8.44
 20
-7.3100000000000005
 30
0.0
 11
8.44
 21
-5.64
 31
0.0
  0
LINE
  5
16C
330
17
100
AcDbEntity
  8
Lines
100
AcDbLine
 10
4.28
 20
-7.74
 30
0.0
 11
4.29
 21
-7.09
 31
0.0
  0
LINE
  5
16D
330
17
100
AcDbEntity
  8
Lines
100
AcDbLine
 10
26.96
 20
-7.17
 30
0.0
 11
27.0
 21
-8.59
 31
0.0
  0
LINE
  5
16E
330
17
100
AcDbEntity
  8
Lines
100
AcDbLine
 10
10.120000000000001
 20
-13.74
 30
0.0
 11
10.15
 21
-12.15
 31
0.0
  0
LINE
  5
16F
330
17
100
AcDbEntity
  8
Lines
100
AcDbLine
 10
21.44
 20
-8.89
 30
0.0
 11
21.490000000000002
 21
-5.65
 31
0.0
  0
LINE
  5
170
330
17
100
AcDbEntity
  8
Lines
100
AcDbLine
 10
27.35
 20
-15.98
 30
0.0
 11
27.38
 21
-18.22
 31
0.0
  0
LINE
  5
171
330
17
100
AcDbEntity
  8
Lines
100
AcDbLine
 10
11.81
 20
-17.95
 30
0.0
 11
11.81
 21
-15.09
 31
0.0
  0
LINE
  5
172
330
17
100
AcDbEntity
  8
Lines
100
AcDbLine
 10
15.57
 20
-17.95
 30
0.0
 11
15.57
 21
-15.08
 31
0.0
  0
LINE
  5
173
330
17
100
AcDbEntity
  8
Lines
100
AcDbLine
 10
12.57
 20
-13.74
 30
0.0
 11
12.61
 21
-11.44
 31
0.0
  0
LINE
  5
174
330
17
100
AcDbEntity
  8
Lines
100
AcDbLine
 10
3.95
 20
-18.31
 30
0.0
 11
4.0
 21
-15.700000000000001
 31
0.0
  0
LINE
  5
175
330
17
100
AcDbEntity
  8
Lines
100
AcDbLine
 10
24.07
 20
-19.8
 30
0.0
 11
24.07
 21
-16.18
 31
0.0
  0
LINE
  5
176
330
17
100
AcDbEntity
  8
Lines
100
AcDbLine
 10
33.36
 20
-16.39
 30
0.0
 11
33.37
 21
-17.34
 31
0.0
  0
LINE
  5
177
330
17
100
AcDbEntity
  8
Lines
100
AcDbLine
 10
11.06
 20
-17.95
 30
0.0
 11
11.06
 21
-15.09
 31
0.0
  0
LINE
  5
178
330
17
100
AcDbEntity
  8
Lines
100
AcDbLine
 10
27.36
 20
-17.88
 30
0.0
 11
27.38
 21
-18.73
 31
0.0
  0
LINE
  5
179
330
17
100
AcDbEntity
  8
Lines
100
AcDbLine
 10
24.080000000000002
 20
-19.8
 30
0.0
 11
24.080000000000002
 21
-16.76
 31
0.0
  0
LINE
  5
17A
330
17
100
AcDbEntity
  8
Lines
100
AcDbLine
 10
16.34
 20
-16.25
 30
0.0
 11
16.34
 21
-15.08
 31
0.0
  0
LINE
  5
17B
330
17
100
AcDbEntity
  8
Lines
100
AcDbLine
 10
14.06
 20
-17.96
 30
0.0
 11
14.06
 21
-15.08
 31
0.0
  0
LINE
  5
17C
330
17
100
AcDbEntity
  8
Lines
100
AcDbLine
 10
6.23
 20
-14.63
 30
0.0
 11
6.23
 21
-13.85
 31
0.0
  0
LINE
  5
17D
330
17
100
AcDbEntity
  8
Lines
100
AcDbLine
 10
28.27
 20
-15.870000000000001
 30
0.0
 11
28.330000000000002
 21
-19.44
 31
0.0
  0
LINE
  5
17E
330
17
100
AcDbEntity
  8
Lines
100
AcDbLine
 10
10.42
 20
-17.95
 30
0.0
 11
10.42
 21
-15.1
 31
0.0
  0
LINE
  5
17F
330
17
100
AcDbEntity
  8
Lines
100
AcDbLine
 10
32.410000000000004
 20
-12.69
 30
0.0
 11
32.410000000000004
 21
-13.200000000000001
 31
0.0
  0
LINE
  5
180
330
17
100
AcDbEntity
  8
Lines
100
AcDbLine
 10
26.91
 20
-14.41
 30
0.0
 11
26.91
 21
-12.02
 31
0.0
  0
LINE
  5
181
330
17
100
AcDbEntity
  8
Lines
100
AcDbLine
 10
18.94
 20
-14.64
 30
0.0
 11
18.95
 21
-13.84
 31
0.0
  0
LINE
  5
182
330
17
100
AcDbEntity
  8
Lines
100
AcDbLine
 10
23.650000000000002
 20
-8.77
 30
0.0
 11
23.650000000000002
 21
-5.64
 31
0.0
  0
LINE
  5
183
330
17
100
AcDbEntity
  8
Lines
100
AcDbLine
 10
16.48
 20
-14.75
 30
0.0
 11
16.490000000000002
 21
-13.85
 31
0.0
  0
LINE
  5
184
330
17
100
AcDbEntity
  8
Lines
100
AcDbLine
 10
26.97
 20
-8.94
 30
0.0
 11
27.01
 21
-11.6
 31
0.0
  0
LINE
  5
185
330
17
100
AcDbEntity
  8
Lines
100
AcDbLine
 10
18.96
 20
-13.74
 30
0.0
 11
18.96
 21
-11.370000000000001
 31
0.0
  0
LINE
  5
186
330
17
100
AcDbEntity
  8
Lines
100
AcDbLine
 10
24.45
 20
-17.93
 30
0.0
 11
24.45
 21
-15.120000000000001
 31
0.0
  0
LINE
  5
187
330
17
100
AcDbEntity
  8
Lines
100
AcDbLine
 10
16.56
 20
-8.870000000000001
 30
0.0
 11
16.57
 21
-8.16
 31
0.0
  0
LINE
  5
188
330
17
100
AcDbEntity
  8
Lines
100
AcDbLine
 10
19.02
 20
-6.46
 30
0.0
 11
19.03
 21
-5.49
 31
0.0
  0
LINE
  5
189
330
17
100
AcDbEntity
  8
Lines
100
AcDbLine
 10
4.04
 20
-9.71
 30
0.0
 11
4.07
 21
-7.68
 31
0.0
  0
LINE
  5
18A
330
17
100
AcDbEntity
  8
Lines
100
AcDbLine
 10
26.84
 20
-5.79
 30
0.0
 11
26.86
 21
-7.5
 31
0.0
  0
LINE
  5
18B
330
17
100
AcDbEntity
  8
Lines
100
AcDbLine
 10
12.65
 20
-8.69
 30
0.0
 11
12.700000000000001
 21
-5.62
 31
0.0
  0
LINE
  5
18C
330
17
100
AcDbEntity
  8
Lines
100
AcDbLine
 10
16.55
 20
-8.870000000000001
 30
0.0
 11
16.6
 21
-5.79
 31
0.0
  0
LINE
  5
18D
330
17
100
AcDbEntity
  8
Lines
100
AcDbLine
 10
26.85
 20
-5.5600000000000005
 30
0.0
 11
26.86
 21
-6.5600000000000005
 31
0.0
  0
LINE
  5
18E
330
17
100
AcDbEntity
  8
Lines
100
AcDbLine
 10
21.45
 20
-8.89
 30
0.0
 11
21.490000000000002
 21
-6.19
 31
0.0
  0
LINE
  5
18F
330
17
100
AcDbEntity
  8
Lines
100
AcDbLine
 10
10.19
 20
-8.22
 30
0.0
 11
10.23
 21
-5.62
 31
0.0
  0
LINE
  5
190
330
17
100
AcDbEntity
  8
Lines
100
AcDbLine
 10
15.07
 20
-13.74
 30
0.0
 11
15.07
 21
-11.73
 31
0.0
  0
LINE
  5
191
330
17
100
AcDbEntity
  8
Lines
100
AcDbLine
 10
13.32
 20
-17.89
 30
0.0
 11
13.32
 21
-15.08
 31
0.0
  0
LINE
  5
192
330
17
100
AcDbEntity
  8
Lines
100
AcDbLine
 10
26.900000000000002
 20
-15.120000000000001
 30
0.0
 11
26.93
 21
-17.400000000000002
 31
0.0
  0
LINE
  5
193
330
17
100
AcDbEntity
  8
Lines
100
AcDbLine
 10
27.36
 20
-18.27
 30
0.0
 11
27.39
 21
-19.41
 31
0.0
  0
LINE
  5
194
330
17
100
AcDbEntity
  8
Lines
100
AcDbLine
 10
19.03
 20
-7.2700000000000005
 30
0.0
 11
19.04
 21
-6.29
 31
0.0
  0
LINE
  5
195
330
17
100
AcDbEntity
  8
Lines
100
AcDbLine
 10
14.83
 20
-7.62
 30
0.0
 11
14.83
 21
-6.32
 31
0.0
  0
LINE
  5
196
330
17
100
AcDbEntity
  8
Lines
100
AcDbLine
 10
8.35
 20
-13.72
 30
0.0
 11
8.38
 21
-12.280000000000001
 31
0.0
  0
LINE
  5
197
330
17
100
AcDbEntity
  8
Lines
100
AcDbLine
 10
25.0
 20
-8.73
 30
0.0
 11
25.03
 21
-6.45
 31
0.0
  0
LINE
  5
198
330
17
100
AcDbEntity
  8
Lines
100
AcDbLine
 10
22.75
 20
-16.36
 30
0.0
 11
22.76
 21
-15.23
 31
0.0
  0
LINE
  5
199
330
17
100
AcDbEntity
  8
Lines
100
AcDbLine
 10
5.92
 20
-7.22
 30
0.0
 11
5.94
 21
-5.66
 31
0.0
  0
LINE
  5
19A
330
17
100
AcDbEntity
  8
Lines
100
AcDbLine
 10
12.540000000000001
 20
-17.96
 30
0.0
 11
12.58
 21
-15.38
 31
0.0
  0
LINE
  5
19B
330
17
100
AcDbEntity
  8
Lines
100
AcDbLine
 10
23.63
 20
-8.2
 30
0.0
 11
23.63
 21
-5.65
 31
0.0
  0
LINE
  5
19C
330
17
100
AcDbEntity
  8
Lines
100
AcDbLine
 10
25.97
 20
-7.25
 30
0.0
 11
25.98
 21
-8.25
 31
0.0
  0
LINE
  5
19D
330
17
100
AcDbEntity
  8
Lines
100
AcDbLine
 10
21.13
 20
-8.72
 30
0.0
 11
21.18
 21
-5.63
 31
0.0
  0
LINE
  5
19E
330
17
100
AcDbEntity
  8
Lines
100
AcDbLine
 10
5.88
 20
-13.73
 30
0.0
 11
5.88
 21
-11.46
 31
0.0
  0
LINE
  5
19F
330
17
100
AcDbEntity
  8
Lines
100
AcDbLine
 10
16.35
 20
-17.95
 30
0.0
 11
16.35
 21
-16.45
 31
0.0
  0
LINE
  5
1A0
330
17
100
AcDbEntity
  8
Lines
100
AcDbLine
 10
21.080000000000002
 20
-13.030000000000001
 30
0.0
 11
21.11
 21
-11.540000000000001
 31
0.0
  0
LINE
  5
1A1
330
17
100
AcDbEntity
  8
Lines
100
AcDbLine
 10
27.22
 20
-6.2700000000000005
 30
0.0
 11
27.26
 21
-8.75
 31
0.0
  0
LINE
  5
1A2
330
17
100
AcDbEntity
  8
Lines
100
AcDbLine
 10
19.0
 20
-8.57
 30
0.0
 11
19.04
 21
-5.72
 31
0.0
  0
LINE
  5
1A3
330
17
100
AcDbEntity
  8
Lines
100
AcDbLine
 10
33.24
 20
-8.700000000000001
 30
0.0
 11
33.27
 21
-10.0
 31
0.0
  0
LINE
  5
1A4
330
17
100
AcDbEntity
  8
Lines
100
AcDbLine
 10
12.55
 20
-16.71
 30
0.0
 11
12.58
 21
-15.09
 31
0.0
  0
LINE
  5
1A5
330
17
100
AcDbEntity
  8
Lines
100
AcDbLine
 10
14.05
 20
-17.96
 30
0.0
 11
14.05
 21
-15.81
 31
0.0
  0
LINE
  5
1A6
330
17
100
AcDbEntity
  8
Lines
100
AcDbLine
 10
1.83
 20
-10.31
 30
0.0
 11
1.83
 21
-8.01
 31
0.0
  0
LINE
  5
1A7
330
17
100
AcDbEntity
  8
Lines
100
AcDbLine
 10
26.990000000000002
 20
-13.32
 30
0.0
 11
27.02
 21
-14.56
 31
0.0
  0
LINE
  5
1A8
330
17
100
AcDbEntity
  8
Lines
100
AcDbLine
 10
14.72
 20
-12.15
 30
0.0
 11
14.73
 21
-11.46
 31
0.0
  0
LINE
  5
1A9
330
17
100
AcDbEntity
  8
Lines
100
AcDbLine
 10
5.87
 20
-13.73
 30
0.0
 11
5.87
 21
-12.84
 31
0.0
  0
LINE
  5
1AA
330
17
100
AcDbEntity
  8
Lines
100
AcDbLine
 10
3.99
 20
-14.71
 30
0.0
 11
4.0
 21
-13.85
 31
0.0
  0
LINE
  5
1AB
330
17
100
AcDbEntity
  8
Lines
100
AcDbLine
 10
4.3100000000000005
 20
-17.490000000000002
 30
0.0
 11
4.3100000000000005
 21
-16.990000000000002
 31
0.0
  0
LINE
  5
1AC
330
17
100
AcDbEntity
  8
Lines
100
AcDbLine
 10
32.4
 20
-16.080000000000002
 30
0.0
 11
32.49
 21
-18.93
 31
0.0
  0
LINE
  5
1AD
330
17
100
AcDbEntity
  8
Lines
100
AcDbLine
 10
26.94
 20
-14.74
 30
0.0
 11
26.94
 21
-14.06
 31
0.0
  0
LINE
  5
1AE
330
17
100
AcDbEntity
  8
Lines
100
AcDbLine
 10
8.790000000000001
 20
-6.96
 30
0.0
 11
8.81
 21
-5.63
 31
0.0
  0
LINE
  5
1AF
330
17
100
AcDbEntity
  8
Lines
100
AcDbLine
 10
16.51
 20
-13.73
 30
0.0
 11
16.51
 21
-11.42
 31
0.0
  0
LINE
  5
1B0
330
17
100
AcDbEntity
  8
Lines
100
AcDbLine
 10
24.400000000000002
 20
-16.95
 30
0.0
 11
24.400000000000002
 21
-15.08
 31
0.0
  0
LINE
  5
1B1
330
17
100
AcDbEntity
  8
Lines
100
AcDbLine
 10
12.21
 20
-13.74
 30
0.0
 11
12.25
 21
-11.41
 31
0.0
  0
LINE
  5
1B2
330
17
100
AcDbEntity
  8
Lines
100
AcDbLine
 10
32.1
 20
-17.330000000000002
 30
0.0
 11
32.13
 21
-19.42
 31
0.0
  0
LINE
  5
1B3
330
17
100
AcDbEntity
  8
Lines
100
AcDbLine
 10
8.36
 20
-13.73
 30
0.0
 11
8.38
 21
-12.76
 31
0.0
  0
LINE
  5
1B4
330
17
100
AcDbEntity
  8
Lines
100
AcDbLine
 10
33.19
 20
-7.8100000000000005
 30
0.0
 11
33.19
 21
-5.67
 31
0.0
  0
LINE
  5
1B5
330
17
100
AcDbEntity
  8
Lines
100
AcDbLine
 10
27.32
 20
-13.06
 30
0.0
 11
27.34
 21
-14.76
 31
0.0
  0
LINE
  5
1B6
330
17
100
AcDbEntity
  8
Lines
100
AcDbLine
 10
26.96
 20
-5.57
 30
0.0
 11
26.98
 21
-7.0600000000000005
 31
0.0
  0
LINE
  5
1B7
330
17
100
AcDbEntity
  8
Lines
100
AcDbLine
 10
25.01
 20
-6.92
 30
0.0
 11
25.04
 21
-5.65
 31
0.0
  0
LINE
  5
1B8
330
17
100
AcDbEntity
  8
Lines
100
AcDbLine
 10
18.57
 20
-14.71
 30
0.0
 11
18.59
 21
-13.85
 31
0.0
  0
LINE
  5
1B9
330
17
100
AcDbEntity
  8
Lines
100
AcDbLine
 10
24.04
 20
-17.32
 30
0.0
 11
24.04
 21
-15.07
 31
0.0
  0
LINE
  5
1BA
330
17
100
AcDbEntity
  8
Lines
100
AcDbLine
 10
2.84
 20
-8.09
 30
0.0
 11
2.84
 21
-7.59
 31
0.0
  0
LINE
  5
1BB
330
17
100
AcDbEntity
  8
Lines
100
AcDbLine
 10
23.69
 20
-14.68
 30
0.0
 11
23.69
 21
-12.39
 31
0.0
  0
LINE
  5
1BC
330
17
100
AcDbEntity
  8
Lines
100
AcDbLine
 10
32.03
 20
-11.6
 30
0.0
 11
32.04
 21
-12.66
 31
0.0
  0
LINE
  5
1BD
330
17
100
AcDbEntity
  8
Lines
100
AcDbLine
 10
6.2700000000000005
 20
-6.93
 30
0.0
 11
6.28
 21
-6.08
 31
0.0
  0
LINE
  5
1BE
330
17
100
AcDbEntity
  8
Lines
100
AcDbLine
 10
8.35
 20
-14.71
 30
0.0
 11
8.370000000000001
 21
-13.89
 31
0.0
  0
LINE
  5
1BF
330
17
100
AcDbEntity
  8
Lines
100
AcDbLine
 10
32.38
 20
-14.46
 30
0.0
 11
32.42
 21
-15.4
 31
0.0
  0
LINE
  5
1C0
330
17
100
AcDbEntity
  8
Lines
100
AcDbLine
 10
10.76
 20
-16.91
 30
0.0
 11
10.790000000000001
 21
-15.08
 31
0.0
  0
LINE
  5
1C1
330
17
100
AcDbEntity
  8
Lines
100
AcDbLine
 10
5.91
 20
-8.84
 30
0.0
 11
5.93
 21
-7.82
 31
0.0
  0
LINE
  5
1C2
330
17
100
AcDbEntity
  8
Lines
100
AcDbLine
 10
10.77
 20
-14.68
 30
0.0
 11
10.78
 21
-13.870000000000001
 31
0.0
  0
LINE
  5
1C3
330
17
100
AcDbEntity
  8
Lines
100
AcDbLine
 10
26.01
 20
-12.76
 30
0.0
 11
26.02
 21
-13.67
 31
0.0
  0
LINE
  5
1C4
330
17
100
AcDbEntity
  8
Lines
100
AcDbLine
 10
10.93
 20
-8.2
 30
0.0
 11
10.93
 21
-6.3
 31
0.0
  0
LINE
  5
1C5
330
17
100
AcDbEntity
  8
Lines
100
AcDbLine
 10
4.17
 20
-9.1
 30
0.0
 11
4.19
 21
-7.390000000000001
 31
0.0
  0
LINE
  5
1C6
330
17
100
AcDbEntity
  8
Lines
100
AcDbLine
 10
11.07
 20
-16.94
 30
0.0
 11
11.07
 21
-15.08
 31
0.0
  0
LINE
  5
1C7
330
17
100
AcDbEntity
  8
Lines
100
AcDbLine
 10
8.700000000000001
 20
-13.73
 30
0.0
 11
8.73
 21
-12.620000000000001
 31
0.0
  0
LINE
  5
1C8
330
17
100
AcDbEntity
  8
Lines
100
AcDbLine
 10
8.43
 20
-8.870000000000001
 30
0.0
 11
8.44
 21
-7.87
 31
0.0
  0
LINE
  5
1C9
330
17
100
AcDbEntity
  8
Lines
100
AcDbLine
 10
26.98
 20
-8.03
 30
0.0
 11
27.0
 21
-9.46
 31
0.0
  0
LINE
  5
1CA
330
17
100
AcDbEntity
  8
Lines
100
AcDbLine
 10
33.21
 20
-8.32
 30
0.0
 11
33.21
 21
-6.49
 31
0.0
  0
LINE
  5
1CB
330
17
100
AcDbEntity
  8
Lines
100
AcDbLine
 10
10.41
 20
-17.95
 30
0.0
 11
10.41
 21
-16.02
 31
0.0
  0
LINE
  5
1CC
330
17
100
AcDbEntity
  8
Lines
100
AcDbLine
 10
33.18
 20
-7.26
 30
0.0
 11
33.18
 21
-5.55
 31
0.0
  0
LINE
  5
1CD
330
17
100
AcDbEntity
  8
Lines
100
AcDbLine
 10
31.85
 20
-4.39
 30
0.0
 11
31.87
 21
-4.97
 31
0.0
  0
LINE
  5
1CE
330
17
100
AcDbEntity
  8
Lines
100
AcDbLine
 10
15.08
 20
-13.17
 30
0.0
 11
15.08
 21
-11.63
 31
0.0
  0
LINE
  5
1CF
330
17
100
AcDbEntity
  8
Lines
100
AcDbLine
 10
6.26
 20
-8.950000000000001
 30
0.0
 11
6.28
 21
-7.61
 31
0.0
  0
LINE
  5
1D0
330
17
100
AcDbEntity
  8
Lines
100
AcDbLine
 10
11.790000000000001
 20
-17.89
 30
0.0
 11
11.790000000000001
 21
-16.18
 31
0.0
  0
LINE
  5
1D1
330
17
100
AcDbEntity
  8
Lines
100
AcDbLine
 10
4.39
 20
-14.32
 30
0.0
 11
4.39
 21
-13.76
 31
0.0
  0
LINE
  5
1D2
330
17
100
AcDbEntity
  8
Lines
100
AcDbLine
 10
33.2
 20
-7.930000000000001
 30
0.0
 11
33.2
 21
-6.11
 31
0.0
  0
LINE
  5
1D3
330
17
100
AcDbEntity
  8
Lines
100
AcDbLine
 10
32.45
 20
-17.84
 30
0.0
 11
32.5
 21
-19.54
 31
0.0
  0
LINE
  5
1D4
330
17
100
AcDbEntity
  8
Lines
100
AcDbLine
 10
5.92
 20
-7.930000000000001
 30
0.0
 11
5.92
 21
-7.37
 31
0.0
  0
LINE
  5
1D5
330
17
100
AcDbEntity
  8
Lines
100
AcDbLine
 10
13.290000000000001
 20
-17.96
 30
0.0
 11
13.290000000000001
 21
-16.22
 31
0.0
  0
LINE
  5
1D6
330
17
100
AcDbEntity
  8
Lines
100
AcDbLine
 10
31.91
 20
-7.15
 30
0.0
 11
31.92
 21
-6.3
 31
0.0
  0
LINE
  5
1D7
330
17
100
AcDbEntity
  8
Lines
100
AcDbLine
 10
22.73
 20
-15.06
 30
0.0
 11
22.75
 21
-15.790000000000001
 31
0.0
  0
LINE
  5
1D8
330
17
100
AcDbEntity
  8
Lines
100
AcDbLine
 10
10.120000000000001
 20
-14.64
 30
0.0
 11
10.120000000000001
 21
-13.86
 31
0.0
  0
LINE
  5
1D9
330
17
100
AcDbEntity
  8
Lines
100
AcDbLine
 10
27.23
 20
-4.38
 30
0.0
 11
27.240000000000002
 21
-4.96
 31
0.0
  0
LINE
  5
1DA
330
17
100
AcDbEntity
  8
Lines
100
AcDbLine
 10
32.37
 20
-10.47
 30
0.0
 11
32.38
 21
-11.15
 31
0.0
  0
LINE
  5
1DB
330
17
100
AcDbEntity
  8
Lines
100
AcDbLine
 10
22.900000000000002
 20
-8.88
 30
0.0
 11
22.92
 21
-7.51
 31
0.0
  0
LINE
  5
1DC
330
17
100
AcDbEntity
  8
Lines
100
AcDbLine
 10
4.33
 20
-13.49
 30
0.0
 11
4.34
 21
-12.82
 31
0.0
  0
LINE
  5
1DD
330
17
100
AcDbEntity
  8
Lines
100
AcDbLine
 10
26.96
 20
-6.61
 30
0.0
 11
27.0
 21
-8.03
 31
0.0
  0
LINE
  5
1DE
330
17
100
AcDbEntity
  8
Lines
100
AcDbLine
 10
18.66
 20
-8.77
 30
0.0
 11
18.68
 21
-7.44
 31
0.0
  0
LINE
  5
1DF
330
17
100
AcDbEntity
  8
Lines
100
AcDbLine
 10
2.82
 20
-9.26
 30
0.0
 11
2.83
 21
-8.31
 31
0.0
  0
LINE
  5
1E0
330
17
100
AcDbEntity
  8
Lines
100
AcDbLine
 10
4.38
 20
-7.3
 30
0.0
 11
4.43
 21
-5.72
 31
0.0
  0
LINE
  5
1E1
330
17
100
AcDbEntity
  8
Lines
100
AcDbLine
 10
14.84
 20
-17.71
 30
0.0
 11
14.84
 21
-16.56
 31
0.0
  0
LINE
  5
1E2
330
17
100
AcDbEntity
  8
Lines
100
AcDbLine
 10
12.34
 20
-7.0600000000000005
 30
0.0
 11
12.35
 21
-6.11
 31
0.0
  0
LINE
  5
1E3
330
17
100
AcDbEntity
  8
Lines
100
AcDbLine
 10
2.72
 20
-13.1
 30
0.0
 11
2.74
 21
-11.59
 31
0.0
  0
LINE
  5
1E4
330
17
100
AcDbEntity
  8
Lines
100
AcDbLine
 10
18.95
 20
-13.74
 30
0.0
 11
18.95
 21
-12.17
 31
0.0
  0
LINE
  5
1E5
330
17
100
AcDbEntity
  8
Lines
100
AcDbLine
 10
10.77
 20
-17.95
 30
0.0
 11
10.790000000000001
 21
-16.42
 31
0.0
  0
LINE
  5
1E6
330
17
100
AcDbEntity
  8
Lines
100
AcDbLine
 10
14.72
 20
-13.040000000000001
 30
0.0
 11
14.74
 21
-11.46
 31
0.0
  0
LINE
  5
1E7
330
17
100
AcDbEntity
  8
Lines
100
AcDbLine
 10
27.23
 20
-5.57
 30
0.0
 11
27.26
 21
-7.32
 31
0.0
  0
LINE
  5
1E8
330
17
100
AcDbEntity
  8
Lines
100
AcDbLine
 10
4.49
 20
-9.91
 30
0.0
 11
4.5
 21
-8.94
 31
0.0
  0
LINE
  5
1E9
330
17
100
AcDbEntity
  8
Lines
100
AcDbLine
 10
25.34
 20
-8.77
 30
0.0
 11
25.34
 21
-7.26
 31
0.0
  0
LINE
  5
1EA
330
17
100
AcDbEntity
  8
Lines
100
AcDbLine
 10
18.59
 20
-13.74
 30
0.0
 11
18.59
 21
-12.96
 31
0.0
  0
LINE
  5
1EB
330
17
100
AcDbEntity
  8
Lines
100
AcDbLine
 10
12.66
 20
-7.0200000000000005
 30
0.0
 11
12.68
 21
-5.63
 31
0.0
  0
LINE
  5
1EC
330
17
100
AcDbEntity
  8
Lines
100
AcDbLine
 10
25.02
 20
-7.76
 30
0.0
 11
25.03
 21
-8.75
 31
0.0
  0
LINE
  5
1ED
330
17
100
AcDbEntity
  8
Lines
100
AcDbLine
 10
25.95
 20
-5.66
 30
0.0
 11
25.97
 21
-7.0
 31
0.0
  0
LINE
  5
1EE
330
17
100
AcDbEntity
  8
Lines
100
AcDbLine
 10
26.89
 20
-12.030000000000001
 30
0.0
 11
26.900000000000002
 21
-13.1
 31
0.0
  0
LINE
  5
1EF
330
17
100
AcDbEntity
  8
Lines
100
AcDbLine
 10
12.200000000000001
 20
-13.74
 30
0.0
 11
12.200000000000001
 21
-13.13
 31
0.0
  0
LINE
  5
1F0
330
17
100
AcDbEntity
  8
Lines
100
AcDbLine
 10
26.97
 20
-14.69
 30
0.0
 11
26.98
 21
-15.540000000000001
 31
0.0
  0
LINE
  5
1F1
330
17
100
AcDbEntity
  8
Lines
100
AcDbLine
 10
4.22
 20
-12.67
 30
0.0
 11
4.25
 21
-11.03
 31
0.0
  0
LINE
  5
1F2
330
17
100
AcDbEntity
  8
Lines
100
AcDbLine
 10
19.0
 20
-7.92
 30
0.0
 11
19.01
 21
-7.1000000000000005
 31
0.0
  0
LINE
  5
1F3
330
17
100
AcDbEntity
  8
Lines
100
AcDbLine
 10
33.31
 20
-11.97
 30
0.0
 11
33.32
 21
-12.92
 31
0.0
  0
LINE
  5
1F4
330
17
100
AcDbEntity
  8
Lines
100
AcDbLine
 10
16.580000000000002
 20
-6.2
 30
0.0
 11
16.59
 21
-5.62
 31
0.0
  0
LINE
  5
1F5
330
17
100
AcDbEntity
  8
Lines
100
AcDbLine
 10
25.38
 20
-14.67
 30
0.0
 11
25.38
 21
-13.700000000000001
 31
0.0
  0
LINE
  5
1F6
330
17
100
AcDbEntity
  8
Lines
100
AcDbLine
 10
1.84
 20
-8.790000000000001
 30
0.0
 11
1.84
 21
-7.94
 31
0.0
  0
LINE
  5
1F7
330
17
100
AcDbEntity
  8
Lines
100
AcDbLine
 10
31.95
 20
-10.02
 30
0.0
 11
31.95
 21
-8.61
 31
0.0
  0
LINE
  5
1F8
330
17
100
AcDbEntity
  8
Lines
100
AcDbLine
 10
27.310000000000002
 20
-10.88
 30
0.0
 11
27.330000000000002
 21
-10.11
 31
0.0
  0
LINE
  5
1F9
330
17
100
AcDbEntity
  8
Lines
100
AcDbLine
 10
4.08
 20
-5.94
 30
0.0
 11
4.11
 21
-6.91
 31
0.0
  0
LINE
  5
1FA
330
17
100
AcDbEntity
  8
Lines
100
AcDbLine
 10
15.6
 20
-16.04
 30
0.0
 11
15.6
 21
-15.15
 31
0.0
  0
LINE
  5
1FB
330
17
100
AcDbEntity
  8
Lines
100
AcDbLine
 10
21.07
 20
-13.030000000000001
 30
0.0
 11
21.080000000000002
 21
-12.15
 31
0.0
  0
LINE
  5
1FC
330
17
100
AcDbEntity
  8
Lines
100
AcDbLine
 10
8.73
 20
-12.26
 30
0.0
 11
8.75
 21
-11.540000000000001
 31
0.0
  0
LINE
  5
1FD
330
17
100
AcDbEntity
  8
Lines
100
AcDbLine
 10
4.3100000000000005
 20
-6.25
 30
0.0
 11
4.32
 21
-5.72
 31
0.0
  0
LINE
  5
1FE
330
17
100
AcDbEntity
  8
Lines
100
AcDbLine
 10
4.09
 20
-14.620000000000001
 30
0.0
 11
4.1
 21
-13.540000000000001
 31
0.0
  0
LINE
  5
1FF
330
17
100
AcDbEntity
  8
Lines
100
AcDbLine
 10
4.09
 20
-13.030000000000001
 30
0.0
 11
4.1
 21
-13.530000000000001
 31
0.0
  0
LINE
  5
200
330
17
100
AcDbEntity
  8
Lines
100
AcDbLine
 10
17.17
 20
-14.76
 30
0.0
 11
17.19
 21
-13.85
 31
0.0
  0
LINE
  5
201
330
17
100
AcDbEntity
  8
Lines
100
AcDbLine
 10
22.92
 20
-6.53
 30
0.0
 11
22.93
 21
-5.64
 31
0.0
  0
LINE
  5
202
330
17
100
AcDbEntity
  8
Lines
100
AcDbLine
 10
22.77
 20
-17.97
 30
0.0
 11
22.77
 21
-16.77
 31
0.0
  0
LINE
  5
203
330
17
100
AcDbEntity
  8
Lines
100
AcDbLine
 10
8.39
 20
-12.11
 30
0.0
 11
8.39
 21
-11.56
 31
0.0
  0
LINE
  5
204
330
17
100
AcDbEntity
  8
Lines
100
AcDbLine
 10
4.36
 20
-15.58
 30
0.0
 11
4.36
 21
-16.14
 31
0.0
  0
LINE
  5
205
330
17
100
AcDbEntity
  8
Lines
100
AcDbLine
 10
14.700000000000001
 20
-14.67
 30
0.0
 11
14.700000000000001
 21
-13.85
 31
0.0
  0
LINE
  5
206
330
17
100
AcDbEntity
  8
Lines
100
AcDbLine
 10
12.55
 20
-17.96
 30
0.0
 11
12.56
 21
-17.39
 31
0.0
  0
LINE
  5
207
330
17
100
AcDbEntity
  8
Lines
100
AcDbLine
 10
23.66
 20
-8.77
 30
0.0
 11
23.66
 21
-7.44
 31
0.0
  0
LINE
  5
208
330
17
100
AcDbEntity
  8
Lines
100
AcDbLine
 10
18.6
 20
-13.43
 30
0.0
 11
18.6
 21
-12.38
 31
0.0
  0
LINE
  5
209
330
17
100
AcDbEntity
  8
Lines
100
AcDbLine
 10
17.37
 20
-14.46
 30
0.0
 11
17.38
 21
-13.76
 31
0.0
  0
LINE
  5
20A
330
17
100
AcDbEntity
  8
Lines
100
AcDbLine
 10
27.02
 20
-17.57
 30
0.0
 11
27.03
 21
-18.56
 31
0.0
  0
LINE
  5
20B
330
17
100
AcDbEntity
  8
Lines
100
AcDbLine
 10
31.89
 20
-6.25
 30
0.0
 11
31.900000000000002
 21
-5.59
 31
0.0
  0
LINE
  5
20C
330
17
100
AcDbEntity
  8
Lines
100
AcDbLine
 10
27.36
 20
-15.13
 30
0.0
 11
27.39
 21
-17.41
 31
0.0
  0
LINE
  5
20D
330
17
100
AcDbEntity
  8
Lines
100
AcDbLine
 10
33.33
 20
-13.65
 30
0.0
 11
33.35
 21
-14.5
 31
0.0
  0
LINE
  5
20E
330
17
100
AcDbEntity
  8
Lines
100
AcDbLine
 10
28.240000000000002
 20
-13.31
 30
0.0
 11
28.25
 21
-14.200000000000001
 31
0.0
  0
LINE
  5
20F
330
17
100
AcDbEntity
  8
Lines
100
AcDbLine
 10
4.33
 20
-11.950000000000001
 30
0.0
 11
4.33
 21
-12.51
 31
0.0
  0
LINE
  5
210
330
17
100
AcDbEntity
  8
Lines
100
AcDbLine
 10
4.01
 20
-11.61
 30
0.0
 11
4.0200000000000005
 21
-12.17
 31
0.0
  0
LINE
  5
211
330
17
100
AcDbEntity
  8
Lines
100
AcDbLine
 10
17.31
 20
-7.22
 30
0.0
 11
17.31
 21
-5.64
 31
0.0
  0
LINE
  5
212
330
17
100
AcDbEntity
  8
Lines
100
AcDbLine
 10
13.33
 20
-16.240000000000002
 30
0.0
 11
13.33
 21
-15.08
 31
0.0
  0
LINE
  5
213
330
17
100
AcDbEntity
  8
Lines
100
AcDbLine
 10
25.01
 20
-8.17
 30
0.0
 11
25.02
 21
-8.77
 31
0.0
  0
LINE
  5
214
330
17
100
AcDbEntity
  8
Lines
100
AcDbLine
 10
5.86
 20
-9.75
 30
0.0
 11
5.87
 21
-9.120000000000001
 31
0.0
  0
LINE
  5
215
330
17
100
AcDbEntity
  8
Lines
100
AcDbLine
 10
31.900000000000002
 20
-6.7700000000000005
 30
0.0
 11
31.91
 21
-6.1000000000000005
 31
0.0
  0
LINE
  5
216
330
17
100
AcDbEntity
  8
Lines
100
AcDbLine
 10
1.75
 20
-15.42
 30
0.0
 11
1.77
 21
-13.96
 31
0.0
  0
LINE
  5
217
330
17
100
AcDbEntity
  8
Lines
100
AcDbLine
 10
14.83
 20
-15.08
 30
0.0
 11
14.84
 21
-16.2
 31
0.0
  0
LINE
  5
218
330
17
100
AcDbEntity
  8
Lines
100
AcDbLine
 10
32.38
 20
-13.66
 30
0.0
 11
32.38
 21
-13.1
 31
0.0
  0
LINE
  5
219
330
17
100
AcDbEntity
  8
Lines
100
AcDbLine
 10
4.26
 20
-11.07
 30
0.0
 11
4.26
 21
-10.51
 31
0.0
  0
LINE
  5
21A
330
17
100
AcDbEntity
  8
Lines
100
AcDbLine
 10
28.3
 20
-18.16
 30
0.0
 11
28.32
 21
-19.44
 31
0.0
  0
LINE
  5
21B
330
17
100
AcDbEntity
  8
Lines
100
AcDbLine
 10
4.1
 20
-6.08
 30
0.0
 11
4.1
 21
-5.57
 31
0.0
  0
LINE
  5
21C
330
17
100
AcDbEntity
  8
Lines
100
AcDbLine
 10
32.39
 20
-14.64
 30
0.0
 11
32.39
 21
-13.540000000000001
 31
0.0
  0
LINE
  5
21D
330
17
100
AcDbEntity
  8
Lines
100
AcDbLine
 10
4.34
 20
-16.72
 30
0.0
 11
4.3500000000000005
 21
-17.28
 31
0.0
  0
LINE
  5
21E
330
17
100
AcDbEntity
  8
Lines
100
AcDbLine
 10
4.19
 20
-13.13
 30
0.0
 11
4.2
 21
-12.44
 31
0.0
  0
LINE
  5
21F
330
17
100
AcDbEntity
  8
Lines
100
AcDbLine
 10
32.38
 20
-14.65
 30
0.0
 11
32.42
 21
-16.03
 31
0.0
  0
LINE
  5
220
330
17
100
AcDbEntity
  8
Lines
100
AcDbLine
 10
27.22
 20
-5.57
 30
0.0
 11
27.26
 21
-7.97
 31
0.0
  0
LINE
  5
221
330
17
100
AcDbEntity
  8
Lines
100
AcDbLine
 10
31.150000000000002
 20
-9.64
 30
0.0
 11
31.16
 21
-10.31
 31
0.0
  0
LINE
  5
222
330
17
100
AcDbEntity
  8
Lines
100
AcDbLine
 10
18.98
 20
-12.38
 30
0.0
 11
18.98
 21
-11.36
 31
0.0
  0
LINE
  5
223
330
17
100
AcDbEntity
  8
Lines
100
AcDbLine
 10
15.09
 20
-12.76
 30
0.0
 11
15.09
 21
-11.63
 31
0.0
  0
LINE
  5
224
330
17
100
AcDbEntity
  8
Lines
100
AcDbLine
 10
8.44
 20
-7.86
 30
0.0
 11
8.45
 21
-7.09
 31
0.0
  0
LINE
  5
225
330
17
100
AcDbEntity
  8
Lines
100
AcDbLine
 10
27.28
 20
-9.53
 30
0.0
 11
27.28
 21
-8.92
 31
0.0
  0
LINE
  5
226
330
17
100
AcDbEntity
  8
Lines
100
AcDbLine
 10
31.17
 20
-10.72
 30
0.0
 11
31.17
 21
-9.73
 31
0.0
  0
LINE
  5
227
330
17
100
AcDbEntity
  8
Lines
100
AcDbLine
 10
26.86
 20
-4.38
 30
0.0
 11
26.88
 21
-4.97
 31
0.0
  0
LINE
  5
228
330
17
100
AcDbEntity
  8
Lines
100
AcDbLine
 10
4.15
 20
-10.1
 30
0.0
 11
4.15
 21
-9.23
 31
0.0
  0
LINE
  5
229
330
17
100
AcDbEntity
  8
Lines
100
AcDbLine
 10
33.36
 20
-14.59
 30
0.0
 11
33.37
 21
-15.6
 31
0.0
  0
LINE
  5
22A
330
17
100
AcDbEntity
  8
Lines
100
AcDbLine
 10
12.61
 20
-12.57
 30
0.0
 11
12.61
 21
-11.51
 31
0.0
  0
LINE
  5
22B
330
17
100
AcDbEntity
  8
Lines
100
AcDbLine
 10
17.23
 20
-12.48
 30
0.0
 11
17.23
 21
-11.92
 31
0.0
  0
LINE
  5
22C
330
17
100
AcDbEntity
  8
Lines
100
AcDbLine
 10
4.37
 20
-14.72
 30
0.0
 11
4.38
 21
-15.280000000000001
 31
0.0
  0
LINE
  5
22D
330
17
100
AcDbEntity
  8
Lines
100
AcDbLine
 10
21.16
 20
-5.93
 30
0.0
 11
21.17
 21
-7.0600000000000005
 31
0.0
  0
LINE
  5
22E
330
17
100
AcDbEntity
  8
Lines
100
AcDbLine
 10
3.98
 20
-13.280000000000001
 30
0.0
 11
3.99
 21
-12.44
 31
0.0
  0
LINE
  5
22F
330
17
100
AcDbEntity
  8
Lines
100
AcDbLine
 10
24.03
 20
-16.0
 30
0.0
 11
24.03
 21
-15.08
 31
0.0
  0
LINE
  5
230
330
17
100
AcDbEntity
  8
Lines
100
AcDbLine
 10
1.75
 20
-12.73
 30
0.0
 11
1.76
 21
-12.0
 31
0.0
  0
LINE
  5
231
330
17
100
AcDbEntity
  8
Lines
100
AcDbLine
 10
14.8
 20
-8.71
 30
0.0
 11
14.81
 21
-7.72
 31
0.0
  0
LINE
  5
232
330
17
100
AcDbEntity
  8
Lines
100
AcDbLine
 10
4.01
 20
-15.860000000000001
 30
0.0
 11
4.0200000000000005
 21
-15.030000000000001
 31
0.0
  0
LINE
  5
233
330
17
100
AcDbEntity
  8
Lines
100
AcDbLine
 10
12.23
 20
-11.56
 30
0.0
 11
12.23
 21
-12.08
 31
0.0
  0
LINE
  5
234
330
17
100
AcDbEntity
  8
Lines
100
AcDbLine
 10
10.4
 20
-17.95
 30
0.0
 11
10.4
 21
-17.04
 31
0.0
  0
LINE
  5
235
330
17
100
AcDbEntity
  8
Lines
100
AcDbLine
 10
1.85
 20
-7.44
 30
0.0
 11
1.87
 21
-6.59
 31
0.0
  0
LINE
  5
236
330
17
100
AcDbEntity
  8
Lines
100
AcDbLine
 10
10.13
 20
-13.11
 30
0.0
 11
10.13
 21
-12.38
 31
0.0
  0
LINE
  5
237
330
17
100
AcDbEntity
  8
Lines
100
AcDbLine
 10
27.27
 20
-13.85
 30
0.0
 11
27.28
 21
-14.55
 31
0.0
  0
LINE
  5
238
330
17
100
AcDbEntity
  8
Lines
100
AcDbLine
 10
22.16
 20
-21.28
 30
0.0
 11
22.19
 21
-20.55
 31
0.0
  0
LINE
  5
239
330
17
100
AcDbEntity
  8
Lines
100
AcDbLine
 10
18.7
 20
-8.01
 30
0.0
 11
18.71
 21
-7.09
 31
0.0
  0
LINE
  5
23A
330
17
100
AcDbEntity
  8
Lines
100
AcDbLine
 10
33.17
 20
-6.48
 30
0.0
 11
33.17
 21
-5.55
 31
0.0
  0
LINE
  5
23B
330
17
100
AcDbEntity
  8
Lines
100
AcDbLine
 10
18.62
 20
-11.78
 30
0.0
 11
18.62
 21
-12.280000000000001
 31
0.0
  0
LINE
  5
23C
330
17
100
AcDbEntity
  8
Lines
100
AcDbLine
 10
31.96
 20
-9.61
 30
0.0
 11
31.970000000000002
 21
-10.67
 31
0.0
  0
LINE
  5
23D
330
17
100
AcDbEntity
  8
Lines
100
AcDbLine
 10
26.97
 20
-17.32
 30
0.0
 11
26.98
 21
-16.72
 31
0.0
  0
LINE
  5
23E
330
17
100
AcDbEntity
  8
Lines
100
AcDbLine
 10
21.09
 20
-11.450000000000001
 30
0.0
 11
21.09
 21
-11.98
 31
0.0
  0
LINE
  5
23F
330
17
100
AcDbEntity
  8
Lines
100
AcDbLine
 10
27.01
 20
-11.22
 30
0.0
 11
27.01
 21
-10.61
 31
0.0
  0
LINE
  5
240
330
17
100
AcDbEntity
  8
Lines
100
AcDbLine
 10
6.26
 20
-7.97
 30
0.0
 11
6.2700000000000005
 21
-7.3500000000000005
 31
0.0
  0
LINE
  5
241
330
17
100
AcDbEntity
  8
Lines
100
AcDbLine
 10
31.900000000000002
 20
-5.94
 30
0.0
 11
31.91
 21
-6.5
 31
0.0
  0
LINE
  5
242
330
17
100
AcDbEntity
  8
Lines
100
AcDbLine
 10
18.71
 20
-5.69
 30
0.0
 11
18.71
 21
-6.19
 31
0.0
  0
LINE
  5
243
330
17
100
AcDbEntity
  8
Lines
100
AcDbLine
 10
2.74
 20
-14.71
 30
0.0
 11
2.74
 21
-14.15
 31
0.0
  0
LINE
  5
244
330
17
100
AcDbEntity
  8
Lines
100
AcDbLine
 10
1.81
 20
-11.46
 30
0.0
 11
1.81
 21
-10.18
 31
0.0
  0
LINE
  5
245
330
17
100
AcDbEntity
  8
Lines
100
AcDbLine
 10
26.84
 20
-8.26
 30
0.0
 11
26.85
 21
-8.82
 31
0.0
  0
LINE
  5
246
330
17
100
AcDbEntity
  8
Lines
100
AcDbLine
 10
23.67
 20
-8.77
 30
0.0
 11
23.67
 21
-8.19
 31
0.0
  0
LINE
  5
247
330
17
100
AcDbEntity
  8
Lines
100
AcDbLine
 10
27.03
 20
-18.69
 30
0.0
 11
27.04
 21
-19.25
 31
0.0
  0
LINE
  5
248
330
17
100
AcDbEntity
  8
Lines
100
AcDbLine
 10
14.83
 20
-17.95
 30
0.0
 11
14.83
 21
-15.64
 31
0.0
  0
LINE
  5
249
330
17
100
AcDbEntity
  8
Lines
100
AcDbLine
 10
32.06
 20
-15.36
 30
0.0
 11
32.06
 21
-14.81
 31
0.0
  0
LINE
  5
24A
330
17
100
AcDbEntity
  8
Lines
100
AcDbLine
 10
33.22
 20
-8.42
 30
0.0
 11
33.22
 21
-7.62
 31
0.0
  0
LINE
  5
24B
330
17
100
AcDbEntity
  8
Lines
100
AcDbLine
 10
10.8
 20
-15.8
 30
0.0
 11
10.8
 21
-15.200000000000001
 31
0.0
  0
LINE
  5
24C
330
17
100
AcDbEntity
  8
Walls
100
AcDbLine
 10
17.12
 20
-5.22
 30
0.0
 11
32.26
 21
-5.22
 31
0.0
  0
LINE
  5
24D
330
17
100
AcDbEntity
  8
Walls
100
AcDbLine
 10
16.94
 20
-5.57
 30
0.0
 11
31.900000000000002
 21
-5.57
 31
0.0
  0
LINE
  5
24E
330
17
100
AcDbEntity
  8
Walls
100
AcDbLine
 10
16.15
 20
-5.5600000000000005
 30
0.0
 11
30.05
 21
-5.5600000000000005
 31
0.0
  0
LINE
  5
24F
330
17
100
AcDbEntity
  8
Walls
100
AcDbLine
 10
16.76
 20
-5.21
 30
0.0
 11
29.490000000000002
 21
-5.21
 31
0.0
  0
LINE
  5
250
330
17
100
AcDbEntity
  8
Walls
100
AcDbLine
 10
3.94
 20
-18.29
 30
0.0
 11
24.09
 21
-18.29
 31
0.0
  0
LINE
  5
251
330
17
100
AcDbEntity
  8
Walls
100
AcDbLine
 10
4.3100000000000005
 20
-17.92
 30
0.0
 11
24.09
 21
-17.92
 31
0.0
  0
LINE
  5
252
330
17
100
AcDbEntity
  8
Walls
100
AcDbLine
 10
3.94
 20
-18.29
 30
0.0
 11
24.09
 21
-18.29
 31
0.0
  0
LINE
  5
253
330
17
100
AcDbEntity
  8
Walls
100
AcDbLine
 10
9.9
 20
-18.3
 30
0.0
 11
17.14
 21
-18.3
 31
0.0
  0
LINE
  5
254
330
17
100
AcDbEntity
  8
Walls
100
AcDbLine
 10
3.94
 20
-18.28
 30
0.0
 11
12.42
 21
-18.28
 31
0.0
  0
LINE
  5
255
330
17
100
AcDbEntity
  8
Walls
100
AcDbLine
 10
3.94
 20
-18.27
 30
0.0
 11
11.69
 21
-18.27
 31
0.0
  0
LINE
  5
256
330
17
100
AcDbEntity
  8
Walls
100
AcDbLine
 10
3.94
 20
-18.28
 30
0.0
 11
12.42
 21
-18.28
 31
0.0
  0
LINE
  5
257
330
17
100
AcDbEntity
  8
Walls
100
AcDbLine
 10
6.78
 20
-17.900000000000002
 30
0.0
 11
9.14
 21
-17.900000000000002
 31
0.0
  0
LINE
  5
258
330
17
100
AcDbEntity
  8
Walls
100
AcDbLine
 10
24.34
 20
-4.3
 30
0.0
 11
26.91
 21
-4.3
 31
0.0
  0
LINE
  5
259
330
17
100
AcDbEntity
  8
Walls
100
AcDbLine
 10
23.78
 20
-4.2700000000000005
 30
0.0
 11
26.77
 21
-4.2700000000000005
 31
0.0
  0
LINE
  5
25A
330
17
100
AcDbEntity
  8
Walls
100
AcDbLine
 10
25.32
 20
-8.81
 30
0.0
 11
26.26
 21
-8.81
 31
0.0
  0
LINE
  5
25B
330
17
100
AcDbEntity
  8
Walls
100
AcDbLine
 10
25.75
 20
-8.83
 30
0.0
 11
26.82
 21
-8.83
 31
0.0
  0
LINE
  5
25C
330
17
100
AcDbEntity
  8
Walls
100
AcDbLine
 10
3.97
 20
-14.68
 30
0.0
 11
10.44
 21
-14.68
 31
0.0
  0
LINE
  5
25D
330
17
100
AcDbEntity
  8
Walls
100
AcDbLine
 10
4.36
 20
-15.11
 30
0.0
 11
10.450000000000001
 21
-15.11
 31
0.0
  0
LINE
  5
25E
330
17
100
AcDbEntity
  8
Walls
100
AcDbLine
 10
17.37
 20
-14.69
 30
0.0
 11
23.62
 21
-14.69
 31
0.0
  0
LINE
  5
25F
330
17
100
AcDbEntity
  8
Walls
100
AcDbLine
 10
19.7
 20
-15.11
 30
0.0
 11
20.55
 21
-15.120000000000001
 31
0.0
  0
LINE
  5
260
330
17
100
AcDbEntity
  8
Walls
100
AcDbLine
 10
18.72
 20
-4.28
 30
0.0
 11
26.92
 21
-4.28
 31
0.0
  0
LINE
  5
261
330
17
100
AcDbEntity
  8
Walls
100
AcDbLine
 10
17.88
 20
-4.29
 30
0.0
 11
26.92
 21
-4.29
 31
0.0
  0
LINE
  5
262
330
17
100
AcDbEntity
  8
Walls
100
AcDbLine
 10
3.94
 20
-18.27
 30
0.0
 11
11.69
 21
-18.27
 31
0.0
  0
LINE
  5
263
330
17
100
AcDbEntity
  8
Walls
100
AcDbLine
 10
6.78
 20
-17.900000000000002
 30
0.0
 11
9.14
 21
-17.900000000000002
 31
0.0
  0
LINE
  5
264
330
17
100
AcDbEntity
  8
Walls
100
AcDbLine
 10
15.08
 20
-11.47
 30
0.0
 11
16.67
 21
-11.47
 31
0.0
  0
LINE
  5
265
330
17
100
AcDbEntity
  8
Walls
100
AcDbLine
 10
15.08
 20
-11.48
 30
0.0
 11
16.21
 21
-11.48
 31
0.0
  0
LINE
  5
266
330
17
100
AcDbEntity
  8
Walls
100
AcDbLine
 10
20.53
 20
-15.07
 30
0.0
 11
27.37
 21
-15.07
 31
0.0
  0
LINE
  5
267
330
17
100
AcDbEntity
  8
Walls
100
AcDbLine
 10
23.87
 20
-14.73
 30
0.0
 11
24.72
 21
-14.74
 31
0.0
  0
LINE
  5
268
330
17
100
AcDbEntity
  8
Walls
100
AcDbLine
 10
20.53
 20
-15.07
 30
0.0
 11
27.37
 21
-15.07
 31
0.0
  0
LINE
  5
269
330
17
100
AcDbEntity
  8
Walls
100
AcDbLine
 10
23.02
 20
-15.09
 30
0.0
 11
24.150000000000002
 21
-15.1
 31
0.0
  0
LINE
  5
26A
330
17
100
AcDbEntity
  8
Walls
100
AcDbLine
 10
10.38
 20
-14.71
 30
0.0
 11
17.39
 21
-14.71
 31
0.0
  0
LINE
  5
26B
330
17
100
AcDbEntity
  8
Walls
100
AcDbLine
 10
10.43
 20
-15.09
 30
0.0
 11
17.39
 21
-15.09
 31
0.0
  0
LINE
  5
26C
330
17
100
AcDbEntity
  8
Walls
100
AcDbLine
 10
10.38
 20
-14.71
 30
0.0
 11
17.39
 21
-14.71
 31
0.0
  0
LINE
  5
26D
330
17
100
AcDbEntity
  8
Walls
100
AcDbLine
 10
10.43
 20
-15.1
 30
0.0
 11
16.98
 21
-15.1
 31
0.0
  0
LINE
  5
26E
330
17
100
AcDbEntity
  8
Walls
100
AcDbLine
 10
10.38
 20
-14.71
 30
0.0
 11
17.39
 21
-14.71
 31
0.0
  0
LINE
  5
26F
330
17
100
AcDbEntity
  8
Walls
100
AcDbLine
 10
10.43
 20
-14.74
 30
0.0
 11
16.93
 21
-14.74
 31
0.0
  0
LINE
  5
270
330
17
100
AcDbEntity
  8
Walls
100
AcDbLine
 10
10.43
 20
-15.09
 30
0.0
 11
17.39
 21
-15.09
 31
0.0
  0
LINE
  5
271
330
17
100
AcDbEntity
  8
Walls
100
AcDbLine
 10
10.43
 20
-15.1
 30
0.0
 11
16.98
 21
-15.1
 31
0.0
  0
LINE
  5
272
330
17
100
AcDbEntity
  8
Walls
100
AcDbLine
 10
10.43
 20
-15.09
 30
0.0
 11
17.39
 21
-15.09
 31
0.0
  0
LINE
  5
273
330
17
100
AcDbEntity
  8
Walls
100
AcDbLine
 10
10.43
 20
-14.74
 30
0.0
 11
16.93
 21
-14.74
 31
0.0
  0
LINE
  5
274
330
17
100
AcDbEntity
  8
Walls
100
AcDbLine
 10
9.9
 20
-18.3
 30
0.0
 11
17.14
 21
-18.3
 31
0.0
  0
LINE
  5
275
330
17
100
AcDbEntity
  8
Walls
100
AcDbLine
 10
9.65
 20
-17.94
 30
0.0
 11
17.03
 21
-17.94
 31
0.0
  0
LINE
  5
276
330
17
100
AcDbEntity
  8
Walls
100
AcDbLine
 10
19.41
 20
-17.94
 30
0.0
 11
23.51
 21
-17.94
 31
0.0
  0
LINE
  5
277
330
17
100
AcDbEntity
  8
Walls
100
AcDbLine
 10
20.8
 20
-18.27
 30
0.0
 11
21.93
 21
-18.28
 31
0.0
  0
LINE
  5
278
330
17
100
AcDbEntity
  8
Walls
100
AcDbLine
 10
23.6
 20
-14.72
 30
0.0
 11
27.0
 21
-14.72
 31
0.0
  0
LINE
  5
279
330
17
100
AcDbEntity
  8
Walls
100
AcDbLine
 10
24.41
 20
-15.120000000000001
 30
0.0
 11
26.92
 21
-15.120000000000001
 31
0.0
  0
LINE
  5
27A
330
17
100
AcDbEntity
  8
Walls
100
AcDbLine
 10
27.36
 20
-17.89
 30
0.0
 11
32.12
 21
-17.89
 31
0.0
  0
LINE
  5
27B
330
17
100
AcDbEntity
  8
Walls
100
AcDbLine
 10
28.37
 20
-17.86
 30
0.0
 11
32.04
 21
-17.86
 31
0.0
  0
LINE
  5
27C
330
17
100
AcDbEntity
  8
Walls
100
AcDbLine
 10
10.43
 20
-15.1
 30
0.0
 11
16.98
 21
-15.1
 31
0.0
  0
LINE
  5
27D
330
17
100
AcDbEntity
  8
Walls
100
AcDbLine
 10
10.43
 20
-14.74
 30
0.0
 11
16.93
 21
-14.74
 31
0.0
  0
LINE
  5
27E
330
17
100
AcDbEntity
  8
Walls
100
AcDbLine
 10
9.94
 20
-5.18
 30
0.0
 11
17.31
 21
-5.18
 31
0.0
  0
LINE
  5
27F
330
17
100
AcDbEntity
  8
Walls
100
AcDbLine
 10
8.71
 20
-5.19
 30
0.0
 11
17.44
 21
-5.19
 31
0.0
  0
LINE
  5
280
330
17
100
AcDbEntity
  8
Walls
100
AcDbLine
 10
8.71
 20
-5.19
 30
0.0
 11
17.44
 21
-5.19
 31
0.0
  0
LINE
  5
281
330
17
100
AcDbEntity
  8
Walls
100
AcDbLine
 10
8.93
 20
-5.54
 30
0.0
 11
17.36
 21
-5.54
 31
0.0
  0
LINE
  5
282
330
17
100
AcDbEntity
  8
Walls
100
AcDbLine
 10
28.39
 20
-5.59
 30
0.0
 11
31.91
 21
-5.59
 31
0.0
  0
LINE
  5
283
330
17
100
AcDbEntity
  8
Walls
100
AcDbLine
 10
28.36
 20
-5.24
 30
0.0
 11
32.27
 21
-5.24
 31
0.0
  0
LINE
  5
284
330
17
100
AcDbEntity
  8
Walls
100
AcDbLine
 10
28.39
 20
-5.59
 30
0.0
 11
31.91
 21
-5.59
 31
0.0
  0
LINE
  5
285
330
17
100
AcDbEntity
  8
Walls
100
AcDbLine
 10
29.12
 20
-5.6000000000000005
 30
0.0
 11
31.91
 21
-5.6000000000000005
 31
0.0
  0
LINE
  5
286
330
17
100
AcDbEntity
  8
Walls
100
AcDbLine
 10
28.39
 20
-5.59
 30
0.0
 11
31.91
 21
-5.59
 31
0.0
  0
LINE
  5
287
330
17
100
AcDbEntity
  8
Walls
100
AcDbLine
 10
27.6
 20
-5.23
 30
0.0
 11
32.27
 21
-5.23
 31
0.0
  0
LINE
  5
288
330
17
100
AcDbEntity
  8
Walls
100
AcDbLine
 10
24.42
 20
-19.400000000000002
 30
0.0
 11
32.160000000000004
 21
-19.400000000000002
 31
0.0
  0
LINE
  5
289
330
17
100
AcDbEntity
  8
Walls
100
AcDbLine
 10
24.07
 20
-19.76
 30
0.0
 11
32.53
 21
-19.76
 31
0.0
  0
LINE
  5
28A
330
17
100
AcDbEntity
  8
Walls
100
AcDbLine
 10
24.42
 20
-19.400000000000002
 30
0.0
 11
32.160000000000004
 21
-19.400000000000002
 31
0.0
  0
LINE
  5
28B
330
17
100
AcDbEntity
  8
Walls
100
AcDbLine
 10
25.310000000000002
 20
-19.38
 30
0.0
 11
32.160000000000004
 21
-19.38
 31
0.0
  0
LINE
  5
28C
330
17
100
AcDbEntity
  8
Walls
100
AcDbLine
 10
24.07
 20
-19.76
 30
0.0
 11
32.53
 21
-19.76
 31
0.0
  0
LINE
  5
28D
330
17
100
AcDbEntity
  8
Walls
100
AcDbLine
 10
25.310000000000002
 20
-19.38
 30
0.0
 11
32.160000000000004
 21
-19.38
 31
0.0
  0
LINE
  5
28E
330
17
100
AcDbEntity
  8
Walls
100
AcDbLine
 10
28.36
 20
-5.24
 30
0.0
 11
32.27
 21
-5.24
 31
0.0
  0
LINE
  5
28F
330
17
100
AcDbEntity
  8
Walls
100
AcDbLine
 10
29.12
 20
-5.6000000000000005
 30
0.0
 11
31.91
 21
-5.6000000000000005
 31
0.0
  0
LINE
  5
290
330
17
100
AcDbEntity
  8
Walls
100
AcDbLine
 10
28.36
 20
-5.24
 30
0.0
 11
32.27
 21
-5.24
 31
0.0
  0
LINE
  5
291
330
17
100
AcDbEntity
  8
Walls
100
AcDbLine
 10
27.6
 20
-5.23
 30
0.0
 11
32.27
 21
-5.23
 31
0.0
  0
LINE
  5
292
330
17
100
AcDbEntity
  8
Walls
100
AcDbLine
 10
4.49
 20
-4.3100000000000005
 30
0.0
 11
7.44
 21
-4.3100000000000005
 31
0.0
  0
LINE
  5
293
330
17
100
AcDbEntity
  8
Walls
100
AcDbLine
 10
4.61
 20
-4.32
 30
0.0
 11
6.87
 21
-4.32
 31
0.0
  0
LINE
  5
294
330
17
100
AcDbEntity
  8
Walls
100
AcDbLine
 10
19.09
 20
-8.81
 30
0.0
 11
20.66
 21
-8.81
 31
0.0
  0
LINE
  5
295
330
17
100
AcDbEntity
  8
Walls
100
AcDbLine
 10
19.07
 20
-8.790000000000001
 30
0.0
 11
20.02
 21
-8.8
 31
0.0
  0
LINE
  5
296
330
17
100
AcDbEntity
  8
Walls
100
AcDbLine
 10
26.89
 20
-12.030000000000001
 30
0.0
 11
32.04
 21
-12.030000000000001
 31
0.0
  0
LINE
  5
297
330
17
100
AcDbEntity
  8
Walls
100
AcDbLine
 10
26.900000000000002
 20
-11.620000000000001
 30
0.0
 11
32.04
 21
-11.620000000000001
 31
0.0
  0
LINE
  5
298
330
17
100
AcDbEntity
  8
Walls
100
AcDbLine
 10
26.89
 20
-12.030000000000001
 30
0.0
 11
32.04
 21
-12.030000000000001
 31
0.0
  0
LINE
  5
299
330
17
100
AcDbEntity
  8
Walls
100
AcDbLine
 10
27.580000000000002
 20
-11.61
 30
0.0
 11
31.970000000000002
 21
-11.61
 31
0.0
  0
LINE
  5
29A
330
17
100
AcDbEntity
  8
Walls
100
AcDbLine
 10
26.98
 20
-8.74
 30
0.0
 11
31.96
 21
-8.74
 31
0.0
  0
LINE
  5
29B
330
17
100
AcDbEntity
  8
Walls
100
AcDbLine
 10
27.25
 20
-8.31
 30
0.0
 11
31.95
 21
-8.31
 31
0.0
  0
LINE
  5
29C
330
17
100
AcDbEntity
  8
Walls
100
AcDbLine
 10
8.96
 20
-4.26
 30
0.0
 11
14.8
 21
-4.26
 31
0.0
  0
LINE
  5
29D
330
17
100
AcDbEntity
  8
Walls
100
AcDbLine
 10
10.1
 20
-4.25
 30
0.0
 11
14.8
 21
-4.25
 31
0.0
  0
LINE
  5
29E
330
17
100
AcDbEntity
  8
Walls
100
AcDbLine
 10
8.96
 20
-4.26
 30
0.0
 11
14.8
 21
-4.26
 31
0.0
  0
LINE
  5
29F
330
17
100
AcDbEntity
  8
Walls
100
AcDbLine
 10
7.53
 20
-4.2700000000000005
 30
0.0
 11
15.370000000000001
 21
-4.2700000000000005
 31
0.0
  0
LINE
  5
2A0
330
17
100
AcDbEntity
  8
Walls
100
AcDbLine
 10
26.900000000000002
 20
-11.620000000000001
 30
0.0
 11
32.04
 21
-11.620000000000001
 31
0.0
  0
LINE
  5
2A1
330
17
100
AcDbEntity
  8
Walls
100
AcDbLine
 10
27.580000000000002
 20
-11.61
 30
0.0
 11
31.970000000000002
 21
-11.61
 31
0.0
  0
LINE
  5
2A2
330
17
100
AcDbEntity
  8
Walls
100
AcDbLine
 10
17.06
 20
-19.23
 30
0.0
 11
20.240000000000002
 21
-19.23
 31
0.0
  0
LINE
  5
2A3
330
17
100
AcDbEntity
  8
Walls
100
AcDbLine
 10
17.17
 20
-19.22
 30
0.0
 11
19.72
 21
-19.22
 31
0.0
  0
LINE
  5
2A4
330
17
100
AcDbEntity
  8
Walls
100
AcDbLine
 10
28.51
 20
-8.75
 30
0.0
 11
31.96
 21
-8.75
 31
0.0
  0
LINE
  5
2A5
330
17
100
AcDbEntity
  8
Walls
100
AcDbLine
 10
29.87
 20
-8.76
 30
0.0
 11
31.78
 21
-8.76
 31
0.0
  0
LINE
  5
2A6
330
17
100
AcDbEntity
  8
Walls
100
AcDbLine
 10
28.51
 20
-8.75
 30
0.0
 11
31.96
 21
-8.75
 31
0.0
  0
LINE
  5
2A7
330
17
100
AcDbEntity
  8
Walls
100
AcDbLine
 10
29.650000000000002
 20
-8.4
 30
0.0
 11
30.900000000000002
 21
-8.38
 31
0.0
  0
LINE
  5
2A8
330
17
100
AcDbEntity
  8
Walls
100
AcDbLine
 10
29.580000000000002
 20
-8.370000000000001
 30
0.0
 11
31.95
 21
-8.370000000000001
 31
0.0
  0
LINE
  5
2A9
330
17
100
AcDbEntity
  8
Walls
100
AcDbLine
 10
30.75
 20
-8.4
 30
0.0
 11
31.95
 21
-8.38
 31
0.0
  0
LINE
  5
2AA
330
17
100
AcDbEntity
  8
Walls
100
AcDbLine
 10
29.580000000000002
 20
-8.370000000000001
 30
0.0
 11
31.95
 21
-8.370000000000001
 31
0.0
  0
LINE
  5
2AB
330
17
100
AcDbEntity
  8
Walls
100
AcDbLine
 10
29.87
 20
-8.76
 30
0.0
 11
31.78
 21
-8.76
 31
0.0
  0
LINE
  5
2AC
330
17
100
AcDbEntity
  8
Walls
100
AcDbLine
 10
29.580000000000002
 20
-8.370000000000001
 30
0.0
 11
31.95
 21
-8.370000000000001
 31
0.0
  0
LINE
  5
2AD
330
17
100
AcDbEntity
  8
Walls
100
AcDbLine
 10
29.650000000000002
 20
-8.4
 30
0.0
 11
30.900000000000002
 21
-8.38
 31
0.0
  0
LINE
  5
2AE
330
17
100
AcDbEntity
  8
Walls
100
AcDbLine
 10
2.83
 20
-11.5
 30
0.0
 11
3.8200000000000003
 21
-11.49
 31
0.0
  0
LINE
  5
2AF
330
17
100
AcDbEntity
  8
Walls
100
AcDbLine
 10
1.86
 20
-11.53
 30
0.0
 11
3.87
 21
-11.49
 31
0.0
  0
LINE
  5
2B0
330
17
100
AcDbEntity
  8
Walls
100
AcDbLine
 10
7.53
 20
-4.2700000000000005
 30
0.0
 11
15.370000000000001
 21
-4.2700000000000005
 31
0.0
  0
LINE
  5
2B1
330
17
100
AcDbEntity
  8
Walls
100
AcDbLine
 10
10.67
 20
-4.3500000000000005
 30
0.0
 11
11.59
 21
-4.3500000000000005
 31
0.0
  0
LINE
  5
2B2
330
17
100
AcDbEntity
  8
Walls
100
AcDbLine
 10
18.76
 20
-15.11
 30
0.0
 11
20.47
 21
-15.13
 31
0.0
  0
LINE
  5
2B3
330
17
100
AcDbEntity
  8
Walls
100
AcDbLine
 10
19.7
 20
-15.11
 30
0.0
 11
20.55
 21
-15.120000000000001
 31
0.0
  0
LINE
  5
2B4
330
17
100
AcDbEntity
  8
Walls
100
AcDbLine
 10
10.98
 20
-9.69
 30
0.0
 11
12.43
 21
-9.69
 31
0.0
  0
LINE
  5
2B5
330
17
100
AcDbEntity
  8
Walls
100
AcDbLine
 10
11.43
 20
-9.68
 30
0.0
 11
12.51
 21
-9.68
 31
0.0
  0
LINE
  5
2B6
330
17
100
AcDbEntity
  8
Walls
100
AcDbLine
 10
17.5
 20
-14.790000000000001
 30
0.0
 11
19.61
 21
-14.790000000000001
 31
0.0
  0
LINE
  5
2B7
330
17
100
AcDbEntity
  8
Walls
100
AcDbLine
 10
17.37
 20
-15.11
 30
0.0
 11
18.85
 21
-15.13
 31
0.0
  0
LINE
  5
2B8
330
17
100
AcDbEntity
  8
Walls
100
AcDbLine
 10
17.5
 20
-14.790000000000001
 30
0.0
 11
19.61
 21
-14.790000000000001
 31
0.0
  0
LINE
  5
2B9
330
17
100
AcDbEntity
  8
Walls
100
AcDbLine
 10
18.36
 20
-15.11
 30
0.0
 11
19.21
 21
-15.13
 31
0.0
  0
LINE
  5
2BA
330
17
100
AcDbEntity
  8
Walls
100
AcDbLine
 10
17.5
 20
-14.790000000000001
 30
0.0
 11
19.61
 21
-14.790000000000001
 31
0.0
  0
LINE
  5
2BB
330
17
100
AcDbEntity
  8
Walls
100
AcDbLine
 10
17.43
 20
-14.8
 30
0.0
 11
20.5
 21
-14.8
 31
0.0
  0
LINE
  5
2BC
330
17
100
AcDbEntity
  8
Walls
100
AcDbLine
 10
22.650000000000002
 20
-5.23
 30
0.0
 11
25.490000000000002
 21
-5.23
 31
0.0
  0
LINE
  5
2BD
330
17
100
AcDbEntity
  8
Walls
100
AcDbLine
 10
16.94
 20
-5.57
 30
0.0
 11
31.900000000000002
 21
-5.57
 31
0.0
  0
LINE
  5
2BE
330
17
100
AcDbEntity
  8
Walls
100
AcDbLine
 10
21.69
 20
-13.8
 30
0.0
 11
23.400000000000002
 21
-13.780000000000001
 31
0.0
  0
LINE
  5
2BF
330
17
100
AcDbEntity
  8
Walls
100
AcDbLine
 10
21.38
 20
-13.8
 30
0.0
 11
22.830000000000002
 21
-13.780000000000001
 31
0.0
  0
LINE
  5
2C0
330
17
100
AcDbEntity
  8
Walls
100
AcDbLine
 10
21.69
 20
-13.8
 30
0.0
 11
23.400000000000002
 21
-13.780000000000001
 31
0.0
  0
LINE
  5
2C1
330
17
100
AcDbEntity
  8
Walls
100
AcDbLine
 10
22.330000000000002
 20
-14.14
 30
0.0
 11
23.27
 21
-14.18
 31
0.0
  0
LINE
  5
2C2
330
17
100
AcDbEntity
  8
Walls
100
AcDbLine
 10
21.69
 20
-13.8
 30
0.0
 11
23.400000000000002
 21
-13.780000000000001
 31
0.0
  0
LINE
  5
2C3
330
17
100
AcDbEntity
  8
Walls
100
AcDbLine
 10
22.650000000000002
 20
-13.8
 30
0.0
 11
23.63
 21
-13.780000000000001
 31
0.0
  0
LINE
  5
2C4
330
17
100
AcDbEntity
  8
Walls
100
AcDbLine
 10
23.82
 20
-8.82
 30
0.0
 11
25.11
 21
-8.82
 31
0.0
  0
LINE
  5
2C5
330
17
100
AcDbEntity
  8
Walls
100
AcDbLine
 10
23.59
 20
-8.84
 30
0.0
 11
24.84
 21
-8.84
 31
0.0
  0
LINE
  5
2C6
330
17
100
AcDbEntity
  8
Walls
100
AcDbLine
 10
1.56
 20
-14.700000000000001
 30
0.0
 11
3.2600000000000002
 21
-14.68
 31
0.0
  0
LINE
  5
2C7
330
17
100
AcDbEntity
  8
Walls
100
AcDbLine
 10
2.2
 20
-14.700000000000001
 30
0.0
 11
3.7800000000000002
 21
-14.68
 31
0.0
  0
LINE
  5
2C8
330
17
100
AcDbEntity
  8
Walls
100
AcDbLine
 10
1.87
 20
-11.51
 30
0.0
 11
2.71
 21
-11.5
 31
0.0
  0
LINE
  5
2C9
330
17
100
AcDbEntity
  8
Walls
100
AcDbLine
 10
1.86
 20
-11.53
 30
0.0
 11
3.87
 21
-11.49
 31
0.0
  0
LINE
  5
2CA
330
17
100
AcDbEntity
  8
Walls
100
AcDbLine
 10
16.73
 20
-4.26
 30
0.0
 11
17.87
 21
-4.29
 31
0.0
  0
LINE
  5
2CB
330
17
100
AcDbEntity
  8
Walls
100
AcDbLine
 10
16.6
 20
-4.26
 30
0.0
 11
17.580000000000002
 21
-4.29
 31
0.0
  0
LINE
  5
2CC
330
17
100
AcDbEntity
  8
Walls
100
AcDbLine
 10
30.42
 20
-4.32
 30
0.0
 11
31.63
 21
-4.3
 31
0.0
  0
LINE
  5
2CD
330
17
100
AcDbEntity
  8
Walls
100
AcDbLine
 10
30.740000000000002
 20
-4.32
 30
0.0
 11
31.91
 21
-4.3
 31
0.0
  0
LINE
  5
2CE
330
17
100
AcDbEntity
  8
Walls
100
AcDbLine
 10
21.38
 20
-13.8
 30
0.0
 11
22.830000000000002
 21
-13.780000000000001
 31
0.0
  0
LINE
  5
2CF
330
17
100
AcDbEntity
  8
Walls
100
AcDbLine
 10
21.38
 20
-13.790000000000001
 30
0.0
 11
22.21
 21
-13.780000000000001
 31
0.0
  0
LINE
  5
2D0
330
17
100
AcDbEntity
  8
Walls
100
AcDbLine
 10
22.330000000000002
 20
-14.14
 30
0.0
 11
23.27
 21
-14.18
 31
0.0
  0
LINE
  5
2D1
330
17
100
AcDbEntity
  8
Walls
100
AcDbLine
 10
22.650000000000002
 20
-13.8
 30
0.0
 11
23.63
 21
-13.780000000000001
 31
0.0
  0
LINE
  5
2D2
330
17
100
AcDbEntity
  8
Walls
100
AcDbLine
 10
17.29
 20
-11.46
 30
0.0
 11
18.14
 21
-11.48
 31
0.0
  0
LINE
  5
2D3
330
17
100
AcDbEntity
  8
Walls
100
AcDbLine
 10
17.86
 20
-11.47
 30
0.0
 11
18.75
 21
-11.46
 31
0.0
  0
LINE
  5
2D4
330
17
100
AcDbEntity
  8
Walls
100
AcDbLine
 10
17.66
 20
-18.27
 30
0.0
 11
18.79
 21
-18.28
 31
0.0
  0
LINE
  5
2D5
330
17
100
AcDbEntity
  8
Walls
100
AcDbLine
 10
17.900000000000002
 20
-17.89
 30
0.0
 11
19.35
 21
-17.91
 31
0.0
  0
LINE
  5
2D6
330
17
100
AcDbEntity
  8
Walls
100
AcDbLine
 10
17.66
 20
-18.27
 30
0.0
 11
18.79
 21
-18.28
 31
0.0
  0
LINE
  5
2D7
330
17
100
AcDbEntity
  8
Walls
100
AcDbLine
 10
17.900000000000002
 20
-18.26
 30
0.0
 11
19.52
 21
-18.28
 31
0.0
  0
LINE
  5
2D8
330
17
100
AcDbEntity
  8
Walls
100
AcDbLine
 10
18.36
 20
-15.11
 30
0.0
 11
19.21
 21
-15.13
 31
0.0
  0
LINE
  5
2D9
330
17
100
AcDbEntity
  8
Walls
100
AcDbLine
 10
17.43
 20
-14.8
 30
0.0
 11
20.5
 21
-14.8
 31
0.0
  0
LINE
  5
2DA
330
17
100
AcDbEntity
  8
Walls
100
AcDbLine
 10
17.900000000000002
 20
-17.89
 30
0.0
 11
19.35
 21
-17.91
 31
0.0
  0
LINE
  5
2DB
330
17
100
AcDbEntity
  8
Walls
100
AcDbLine
 10
17.900000000000002
 20
-18.26
 30
0.0
 11
19.52
 21
-18.28
 31
0.0
  0
LINE
  5
2DC
330
17
100
AcDbEntity
  8
Walls
100
AcDbLine
 10
4.39
 20
-14.63
 30
0.0
 11
4.54
 21
-5.73
 31
0.0
  0
LINE
  5
2DD
330
17
100
AcDbEntity
  8
Walls
100
AcDbLine
 10
4.18
 20
-14.620000000000001
 30
0.0
 11
4.33
 21
-5.72
 31
0.0
  0
LINE
  5
2DE
330
17
100
AcDbEntity
  8
Walls
100
AcDbLine
 10
4.39
 20
-14.63
 30
0.0
 11
4.54
 21
-5.73
 31
0.0
  0
LINE
  5
2DF
330
17
100
AcDbEntity
  8
Walls
100
AcDbLine
 10
3.97
 20
-14.700000000000001
 30
0.0
 11
4.12
 21
-5.5600000000000005
 31
0.0
  0
LINE
  5
2E0
330
17
100
AcDbEntity
  8
Walls
100
AcDbLine
 10
31.96
 20
-8.97
 30
0.0
 11
32.05
 21
-14.63
 31
0.0
  0
LINE
  5
2E1
330
17
100
AcDbEntity
  8
Walls
100
AcDbLine
 10
32.31
 20
-8.65
 30
0.0
 11
32.42
 21
-15.25
 31
0.0
  0
LINE
  5
2E2
330
17
100
AcDbEntity
  8
Walls
100
AcDbLine
 10
31.96
 20
-8.97
 30
0.0
 11
32.05
 21
-14.63
 31
0.0
  0
LINE
  5
2E3
330
17
100
AcDbEntity
  8
Walls
100
AcDbLine
 10
32.03
 20
-11.6
 30
0.0
 11
32.04
 21
-12.66
 31
0.0
  0
LINE
  5
2E4
330
17
100
AcDbEntity
  8
Walls
100
AcDbLine
 10
32.31
 20
-8.65
 30
0.0
 11
32.42
 21
-15.25
 31
0.0
  0
LINE
  5
2E5
330
17
100
AcDbEntity
  8
Walls
100
AcDbLine
 10
32.03
 20
-11.6
 30
0.0
 11
32.04
 21
-12.66
 31
0.0
  0
LINE
  5
2E6
330
17
100
AcDbEntity
  8
Walls
100
AcDbLine
 10
31.88
 20
-5.69
 30
0.0
 11
31.94
 21
-9.53
 31
0.0
  0
LINE
  5
2E7
330
17
100
AcDbEntity
  8
Walls
100
AcDbLine
 10
32.24
 20
-5.23
 30
0.0
 11
32.32
 21
-9.98
 31
0.0
  0
LINE
  5
2E8
330
17
100
AcDbEntity
  8
Walls
100
AcDbLine
 10
31.88
 20
-5.69
 30
0.0
 11
31.94
 21
-9.53
 31
0.0
  0
LINE
  5
2E9
330
17
100
AcDbEntity
  8
Walls
100
AcDbLine
 10
32.230000000000004
 20
-5.4
 30
0.0
 11
32.29
 21
-9.16
 31
0.0
  0
LINE
  5
2EA
330
17
100
AcDbEntity
  8
Walls
100
AcDbLine
 10
32.24
 20
-5.23
 30
0.0
 11
32.32
 21
-9.98
 31
0.0
  0
LINE
  5
2EB
330
17
100
AcDbEntity
  8
Walls
100
AcDbLine
 10
32.230000000000004
 20
-5.4
 30
0.0
 11
32.29
 21
-9.16
 31
0.0
  0
LINE
  5
2EC
330
17
100
AcDbEntity
  8
Walls
100
AcDbLine
 10
26.84
 20
-7.4
 30
0.0
 11
26.91
 21
-11.64
 31
0.0
  0
LINE
  5
2ED
330
17
100
AcDbEntity
  8
Walls
100
AcDbLine
 10
26.84
 20
-6.49
 30
0.0
 11
26.92
 21
-11.540000000000001
 31
0.0
  0
LINE
  5
2EE
330
17
100
AcDbEntity
  8
Walls
100
AcDbLine
 10
26.96
 20
-15.14
 30
0.0
 11
27.03
 21
-19.42
 31
0.0
  0
LINE
  5
2EF
330
17
100
AcDbEntity
  8
Walls
100
AcDbLine
 10
27.35
 20
-15.98
 30
0.0
 11
27.38
 21
-18.22
 31
0.0
  0
LINE
  5
2F0
330
17
100
AcDbEntity
  8
Walls
100
AcDbLine
 10
2.72
 20
-13.67
 30
0.0
 11
2.86
 21
-5.55
 31
0.0
  0
LINE
  5
2F1
330
17
100
AcDbEntity
  8
Walls
100
AcDbLine
 10
2.71
 20
-14.47
 30
0.0
 11
2.86
 21
-5.78
 31
0.0
  0
LINE
  5
2F2
330
17
100
AcDbEntity
  8
Walls
100
AcDbLine
 10
4.18
 20
-14.620000000000001
 30
0.0
 11
4.33
 21
-5.72
 31
0.0
  0
LINE
  5
2F3
330
17
100
AcDbEntity
  8
Walls
100
AcDbLine
 10
3.97
 20
-14.700000000000001
 30
0.0
 11
4.12
 21
-5.5600000000000005
 31
0.0
  0
LINE
  5
2F4
330
17
100
AcDbEntity
  8
Walls
100
AcDbLine
 10
4.18
 20
-14.620000000000001
 30
0.0
 11
4.33
 21
-5.72
 31
0.0
  0
LINE
  5
2F5
330
17
100
AcDbEntity
  8
Walls
100
AcDbLine
 10
4.15
 20
-10.1
 30
0.0
 11
4.15
 21
-9.23
 31
0.0
  0
LINE
  5
2F6
330
17
100
AcDbEntity
  8
Walls
100
AcDbLine
 10
4.43
 20
-11.88
 30
0.0
 11
4.53
 21
-5.64
 31
0.0
  0
LINE
  5
2F7
330
17
100
AcDbEntity
  8
Walls
100
AcDbLine
 10
4.04
 20
-9.71
 30
0.0
 11
4.07
 21
-7.68
 31
0.0
  0
LINE
  5
2F8
330
17
100
AcDbEntity
  8
Walls
100
AcDbLine
 10
4.43
 20
-11.88
 30
0.0
 11
4.53
 21
-5.64
 31
0.0
  0
LINE
  5
2F9
330
17
100
AcDbEntity
  8
Walls
100
AcDbLine
 10
4.17
 20
-9.1
 30
0.0
 11
4.19
 21
-7.390000000000001
 31
0.0
  0
LINE
  5
2FA
330
17
100
AcDbEntity
  8
Walls
100
AcDbLine
 10
3.97
 20
-14.700000000000001
 30
0.0
 11
4.12
 21
-5.5600000000000005
 31
0.0
  0
LINE
  5
2FB
330
17
100
AcDbEntity
  8
Walls
100
AcDbLine
 10
4.15
 20
-10.1
 30
0.0
 11
4.15
 21
-9.23
 31
0.0
  0
LINE
  5
2FC
330
17
100
AcDbEntity
  8
Walls
100
AcDbLine
 10
4.38
 20
-7.8
 30
0.0
 11
4.42
 21
-6.38
 31
0.0
  0
LINE
  5
2FD
330
17
100
AcDbEntity
  8
Walls
100
AcDbLine
 10
4.17
 20
-8.370000000000001
 30
0.0
 11
4.21
 21
-5.66
 31
0.0
  0
LINE
  5
2FE
330
17
100
AcDbEntity
  8
Walls
100
AcDbLine
 10
4.38
 20
-7.8
 30
0.0
 11
4.42
 21
-6.38
 31
0.0
  0
LINE
  5
2FF
330
17
100
AcDbEntity
  8
Walls
100
AcDbLine
 10
4.16
 20
-7.73
 30
0.0
 11
4.2
 21
-5.66
 31
0.0
  0
LINE
  5
300
330
17
100
AcDbEntity
  8
Walls
100
AcDbLine
 10
4.38
 20
-7.8
 30
0.0
 11
4.42
 21
-6.38
 31
0.0
  0
LINE
  5
301
330
17
100
AcDbEntity
  8
Walls
100
AcDbLine
 10
4.38
 20
-7.3
 30
0.0
 11
4.43
 21
-5.72
 31
0.0
  0
LINE
  5
302
330
17
100
AcDbEntity
  8
Walls
100
AcDbLine
 10
25.02
 20
-14.67
 30
0.0
 11
25.02
 21
-11.48
 31
0.0
  0
LINE
  5
303
330
17
100
AcDbEntity
  8
Walls
100
AcDbLine
 10
25.35
 20
-14.67
 30
0.0
 11
25.35
 21
-11.44
 31
0.0
  0
LINE
  5
304
330
17
100
AcDbEntity
  8
Walls
100
AcDbLine
 10
4.08
 20
-14.4
 30
0.0
 11
4.14
 21
-10.4
 31
0.0
  0
LINE
  5
305
330
17
100
AcDbEntity
  8
Walls
100
AcDbLine
 10
4.22
 20
-12.67
 30
0.0
 11
4.25
 21
-11.03
 31
0.0
  0
LINE
  5
306
330
17
100
AcDbEntity
  8
Walls
100
AcDbLine
 10
4.08
 20
-14.4
 30
0.0
 11
4.14
 21
-10.4
 31
0.0
  0
LINE
  5
307
330
17
100
AcDbEntity
  8
Walls
100
AcDbLine
 10
3.98
 20
-13.280000000000001
 30
0.0
 11
3.99
 21
-12.44
 31
0.0
  0
LINE
  5
308
330
17
100
AcDbEntity
  8
Walls
100
AcDbLine
 10
4.3100000000000005
 20
-17.94
 30
0.0
 11
4.36
 21
-14.69
 31
0.0
  0
LINE
  5
309
330
17
100
AcDbEntity
  8
Walls
100
AcDbLine
 10
3.94
 20
-18.31
 30
0.0
 11
4.0
 21
-14.75
 31
0.0
  0
LINE
  5
30A
330
17
100
AcDbEntity
  8
Walls
100
AcDbLine
 10
25.36
 20
-8.77
 30
0.0
 11
25.36
 21
-5.5600000000000005
 31
0.0
  0
LINE
  5
30B
330
17
100
AcDbEntity
  8
Walls
100
AcDbLine
 10
25.0
 20
-8.73
 30
0.0
 11
25.03
 21
-6.45
 31
0.0
  0
LINE
  5
30C
330
17
100
AcDbEntity
  8
Walls
100
AcDbLine
 10
18.67
 20
-8.91
 30
0.0
 11
18.73
 21
-5.65
 31
0.0
  0
LINE
  5
30D
330
17
100
AcDbEntity
  8
Walls
100
AcDbLine
 10
18.69
 20
-7.18
 30
0.0
 11
18.7
 21
-6.3100000000000005
 31
0.0
  0
LINE
  5
30E
330
17
100
AcDbEntity
  8
Walls
100
AcDbLine
 10
18.67
 20
-8.91
 30
0.0
 11
18.73
 21
-5.65
 31
0.0
  0
LINE
  5
30F
330
17
100
AcDbEntity
  8
Walls
100
AcDbLine
 10
19.0
 20
-8.57
 30
0.0
 11
19.04
 21
-5.72
 31
0.0
  0
LINE
  5
310
330
17
100
AcDbEntity
  8
Walls
100
AcDbLine
 10
18.67
 20
-8.91
 30
0.0
 11
18.73
 21
-5.65
 31
0.0
  0
LINE
  5
311
330
17
100
AcDbEntity
  8
Walls
100
AcDbLine
 10
19.0
 20
-7.92
 30
0.0
 11
19.01
 21
-7.1000000000000005
 31
0.0
  0
LINE
  5
312
330
17
100
AcDbEntity
  8
Walls
100
AcDbLine
 10
18.67
 20
-8.91
 30
0.0
 11
18.73
 21
-5.65
 31
0.0
  0
LINE
  5
313
330
17
100
AcDbEntity
  8
Walls
100
AcDbLine
 10
18.7
 20
-8.01
 30
0.0
 11
18.71
 21
-7.09
 31
0.0
  0
LINE
  5
314
330
17
100
AcDbEntity
  8
Walls
100
AcDbLine
 10
4.3
 20
-14.620000000000001
 30
0.0
 11
4.34
 21
-12.290000000000001
 31
0.0
  0
LINE
  5
315
330
17
100
AcDbEntity
  8
Walls
100
AcDbLine
 10
3.98
 20
-14.71
 30
0.0
 11
4.01
 21
-12.530000000000001
 31
0.0
  0
LINE
  5
316
330
17
100
AcDbEntity
  8
Walls
100
AcDbLine
 10
12.66
 20
-8.83
 30
0.0
 11
12.69
 21
-6.5600000000000005
 31
0.0
  0
LINE
  5
317
330
17
100
AcDbEntity
  8
Walls
100
AcDbLine
 10
12.32
 20
-8.21
 30
0.0
 11
12.33
 21
-7.18
 31
0.0
  0
LINE
  5
318
330
17
100
AcDbEntity
  8
Walls
100
AcDbLine
 10
12.66
 20
-8.83
 30
0.0
 11
12.69
 21
-6.5600000000000005
 31
0.0
  0
LINE
  5
319
330
17
100
AcDbEntity
  8
Walls
100
AcDbLine
 10
12.65
 20
-8.69
 30
0.0
 11
12.700000000000001
 21
-5.62
 31
0.0
  0
LINE
  5
31A
330
17
100
AcDbEntity
  8
Walls
100
AcDbLine
 10
27.310000000000002
 20
-12.02
 30
0.0
 11
27.35
 21
-14.72
 31
0.0
  0
LINE
  5
31B
330
17
100
AcDbEntity
  8
Walls
100
AcDbLine
 10
26.92
 20
-14.64
 30
0.0
 11
26.92
 21
-12.39
 31
0.0
  0
LINE
  5
31C
330
17
100
AcDbEntity
  8
Walls
100
AcDbLine
 10
27.310000000000002
 20
-12.02
 30
0.0
 11
27.35
 21
-14.72
 31
0.0
  0
LINE
  5
31D
330
17
100
AcDbEntity
  8
Walls
100
AcDbLine
 10
26.91
 20
-14.41
 30
0.0
 11
26.91
 21
-12.02
 31
0.0
  0
LINE
  5
31E
330
17
100
AcDbEntity
  8
Walls
100
AcDbLine
 10
27.310000000000002
 20
-12.02
 30
0.0
 11
27.35
 21
-14.72
 31
0.0
  0
LINE
  5
31F
330
17
100
AcDbEntity
  8
Walls
100
AcDbLine
 10
27.32
 20
-13.06
 30
0.0
 11
27.34
 21
-14.76
 31
0.0
  0
LINE
  5
320
330
17
100
AcDbEntity
  8
Walls
100
AcDbLine
 10
14.82
 20
-17.95
 30
0.0
 11
14.82
 21
-15.08
 31
0.0
  0
LINE
  5
321
330
17
100
AcDbEntity
  8
Walls
100
AcDbLine
 10
14.83
 20
-17.95
 30
0.0
 11
14.83
 21
-15.64
 31
0.0
  0
LINE
  5
322
330
17
100
AcDbEntity
  8
Walls
100
AcDbLine
 10
27.28
 20
-8.74
 30
0.0
 11
27.330000000000002
 21
-11.65
 31
0.0
  0
LINE
  5
323
330
17
100
AcDbEntity
  8
Walls
100
AcDbLine
 10
26.97
 20
-8.94
 30
0.0
 11
27.01
 21
-11.6
 31
0.0
  0
LINE
  5
324
330
17
100
AcDbEntity
  8
Walls
100
AcDbLine
 10
17.29
 20
-8.76
 30
0.0
 11
17.330000000000002
 21
-6.08
 31
0.0
  0
LINE
  5
325
330
17
100
AcDbEntity
  8
Walls
100
AcDbLine
 10
17.27
 20
-8.88
 30
0.0
 11
17.3
 21
-7.0600000000000005
 31
0.0
  0
LINE
  5
326
330
17
100
AcDbEntity
  8
Walls
100
AcDbLine
 10
26.92
 20
-14.64
 30
0.0
 11
26.92
 21
-12.39
 31
0.0
  0
LINE
  5
327
330
17
100
AcDbEntity
  8
Walls
100
AcDbLine
 10
26.91
 20
-14.41
 30
0.0
 11
26.91
 21
-12.02
 31
0.0
  0
LINE
  5
328
330
17
100
AcDbEntity
  8
Walls
100
AcDbLine
 10
26.92
 20
-14.64
 30
0.0
 11
26.92
 21
-12.39
 31
0.0
  0
LINE
  5
329
330
17
100
AcDbEntity
  8
Walls
100
AcDbLine
 10
26.990000000000002
 20
-13.32
 30
0.0
 11
27.02
 21
-14.56
 31
0.0
  0
LINE
  5
32A
330
17
100
AcDbEntity
  8
Walls
100
AcDbLine
 10
26.92
 20
-14.64
 30
0.0
 11
26.92
 21
-12.39
 31
0.0
  0
LINE
  5
32B
330
17
100
AcDbEntity
  8
Walls
100
AcDbLine
 10
27.32
 20
-13.06
 30
0.0
 11
27.34
 21
-14.76
 31
0.0
  0
LINE
  5
32C
330
17
100
AcDbEntity
  8
Walls
100
AcDbLine
 10
12.31
 20
-8.21
 30
0.0
 11
12.35
 21
-5.62
 31
0.0
  0
LINE
  5
32D
330
17
100
AcDbEntity
  8
Walls
100
AcDbLine
 10
12.65
 20
-8.69
 30
0.0
 11
12.700000000000001
 21
-5.62
 31
0.0
  0
LINE
  5
32E
330
17
100
AcDbEntity
  8
Walls
100
AcDbLine
 10
12.31
 20
-8.21
 30
0.0
 11
12.35
 21
-5.62
 31
0.0
  0
LINE
  5
32F
330
17
100
AcDbEntity
  8
Walls
100
AcDbLine
 10
12.34
 20
-7.0600000000000005
 30
0.0
 11
12.35
 21
-6.11
 31
0.0
  0
LINE
  5
330
330
17
100
AcDbEntity
  8
Walls
100
AcDbLine
 10
27.22
 20
-5.7
 30
0.0
 11
27.26
 21
-8.55
 31
0.0
  0
LINE
  5
331
330
17
100
AcDbEntity
  8
Walls
100
AcDbLine
 10
27.22
 20
-6.2700000000000005
 30
0.0
 11
27.26
 21
-8.75
 31
0.0
  0
LINE
  5
332
330
17
100
AcDbEntity
  8
Walls
100
AcDbLine
 10
27.22
 20
-5.7
 30
0.0
 11
27.26
 21
-8.55
 31
0.0
  0
LINE
  5
333
330
17
100
AcDbEntity
  8
Walls
100
AcDbLine
 10
26.96
 20
-6.61
 30
0.0
 11
27.0
 21
-8.03
 31
0.0
  0
LINE
  5
334
330
17
100
AcDbEntity
  8
Walls
100
AcDbLine
 10
27.22
 20
-5.7
 30
0.0
 11
27.26
 21
-8.55
 31
0.0
  0
LINE
  5
335
330
17
100
AcDbEntity
  8
Walls
100
AcDbLine
 10
27.22
 20
-5.57
 30
0.0
 11
27.26
 21
-7.97
 31
0.0
  0
LINE
  5
336
330
17
100
AcDbEntity
  8
Walls
100
AcDbLine
 10
33.27
 20
-9.08
 30
0.0
 11
33.36
 21
-14.58
 31
0.0
  0
LINE
  5
337
330
17
100
AcDbEntity
  8
Walls
100
AcDbLine
 10
33.29
 20
-9.78
 30
0.0
 11
33.35
 21
-13.280000000000001
 31
0.0
  0
LINE
  5
338
330
17
100
AcDbEntity
  8
Walls
100
AcDbLine
 10
26.84
 20
-6.49
 30
0.0
 11
26.92
 21
-11.540000000000001
 31
0.0
  0
LINE
  5
339
330
17
100
AcDbEntity
  8
Walls
100
AcDbLine
 10
26.98
 20
-8.03
 30
0.0
 11
27.0
 21
-9.46
 31
0.0
  0
LINE
  5
33A
330
17
100
AcDbEntity
  8
Walls
100
AcDbLine
 10
14.780000000000001
 20
-8.86
 30
0.0
 11
14.84
 21
-5.61
 31
0.0
  0
LINE
  5
33B
330
17
100
AcDbEntity
  8
Walls
100
AcDbLine
 10
15.120000000000001
 20
-8.790000000000001
 30
0.0
 11
15.17
 21
-5.62
 31
0.0
  0
LINE
  5
33C
330
17
100
AcDbEntity
  8
Walls
100
AcDbLine
 10
14.780000000000001
 20
-8.86
 30
0.0
 11
14.84
 21
-5.61
 31
0.0
  0
LINE
  5
33D
330
17
100
AcDbEntity
  8
Walls
100
AcDbLine
 10
14.83
 20
-7.62
 30
0.0
 11
14.83
 21
-6.32
 31
0.0
  0
LINE
  5
33E
330
17
100
AcDbEntity
  8
Walls
100
AcDbLine
 10
12.55
 20
-15.91
 30
0.0
 11
12.56
 21
-15.09
 31
0.0
  0
LINE
  5
33F
330
17
100
AcDbEntity
  8
Walls
100
AcDbLine
 10
12.55
 20
-16.71
 30
0.0
 11
12.58
 21
-15.09
 31
0.0
  0
LINE
  5
340
330
17
100
AcDbEntity
  8
Walls
100
AcDbLine
 10
22.75
 20
-17.900000000000002
 30
0.0
 11
22.77
 21
-16.2
 31
0.0
  0
LINE
  5
341
330
17
100
AcDbEntity
  8
Walls
100
AcDbLine
 10
22.77
 20
-17.97
 30
0.0
 11
22.77
 21
-16.77
 31
0.0
  0
LINE
  5
342
330
17
100
AcDbEntity
  8
Walls
100
AcDbLine
 10
4.17
 20
-8.370000000000001
 30
0.0
 11
4.21
 21
-5.66
 31
0.0
  0
LINE
  5
343
330
17
100
AcDbEntity
  8
Walls
100
AcDbLine
 10
4.16
 20
-7.73
 30
0.0
 11
4.2
 21
-5.66
 31
0.0
  0
LINE
  5
344
330
17
100
AcDbEntity
  8
Walls
100
AcDbLine
 10
4.17
 20
-8.370000000000001
 30
0.0
 11
4.21
 21
-5.66
 31
0.0
  0
LINE
  5
345
330
17
100
AcDbEntity
  8
Walls
100
AcDbLine
 10
4.38
 20
-7.3
 30
0.0
 11
4.43
 21
-5.72
 31
0.0
  0
LINE
  5
346
330
17
100
AcDbEntity
  8
Walls
100
AcDbLine
 10
4.17
 20
-8.370000000000001
 30
0.0
 11
4.21
 21
-5.66
 31
0.0
  0
LINE
  5
347
330
17
100
AcDbEntity
  8
Walls
100
AcDbLine
 10
4.08
 20
-5.94
 30
0.0
 11
4.11
 21
-6.91
 31
0.0
  0
LINE
  5
348
330
17
100
AcDbEntity
  8
Walls
100
AcDbLine
 10
32.47
 20
-18.7
 30
0.0
 11
32.5
 21
-19.79
 31
0.0
  0
LINE
  5
349
330
17
100
AcDbEntity
  8
Walls
100
AcDbLine
 10
32.45
 20
-17.84
 30
0.0
 11
32.5
 21
-19.54
 31
0.0
  0
LINE
  5
34A
330
17
100
AcDbEntity
  8
Walls
100
AcDbLine
 10
10.75
 20
-17.88
 30
0.0
 11
10.8
 21
-15.15
 31
0.0
  0
LINE
  5
34B
330
17
100
AcDbEntity
  8
Walls
100
AcDbLine
 10
10.43
 20
-17.95
 30
0.0
 11
10.43
 21
-14.69
 31
0.0
  0
LINE
  5
34C
330
17
100
AcDbEntity
  8
Walls
100
AcDbLine
 10
10.75
 20
-17.88
 30
0.0
 11
10.8
 21
-15.15
 31
0.0
  0
LINE
  5
34D
330
17
100
AcDbEntity
  8
Walls
100
AcDbLine
 10
10.77
 20
-17.54
 30
0.0
 11
10.790000000000001
 21
-16.18
 31
0.0
  0
LINE
  5
34E
330
17
100
AcDbEntity
  8
Walls
100
AcDbLine
 10
10.75
 20
-17.88
 30
0.0
 11
10.8
 21
-15.15
 31
0.0
  0
LINE
  5
34F
330
17
100
AcDbEntity
  8
Walls
100
AcDbLine
 10
11.06
 20
-17.95
 30
0.0
 11
11.06
 21
-15.09
 31
0.0
  0
LINE
  5
350
330
17
100
AcDbEntity
  8
Walls
100
AcDbLine
 10
10.75
 20
-17.88
 30
0.0
 11
10.8
 21
-15.15
 31
0.0
  0
LINE
  5
351
330
17
100
AcDbEntity
  8
Walls
100
AcDbLine
 10
10.42
 20
-17.95
 30
0.0
 11
10.42
 21
-15.1
 31
0.0
  0
LINE
  5
352
330
17
100
AcDbEntity
  8
Walls
100
AcDbLine
 10
10.75
 20
-17.88
 30
0.0
 11
10.8
 21
-15.15
 31
0.0
  0
LINE
  5
353
330
17
100
AcDbEntity
  8
Walls
100
AcDbLine
 10
10.76
 20
-16.91
 30
0.0
 11
10.790000000000001
 21
-15.08
 31
0.0
  0
LINE
  5
354
330
17
100
AcDbEntity
  8
Walls
100
AcDbLine
 10
10.75
 20
-17.88
 30
0.0
 11
10.8
 21
-15.15
 31
0.0
  0
LINE
  5
355
330
17
100
AcDbEntity
  8
Walls
100
AcDbLine
 10
11.07
 20
-16.94
 30
0.0
 11
11.07
 21
-15.08
 31
0.0
  0
LINE
  5
356
330
17
100
AcDbEntity
  8
Walls
100
AcDbLine
 10
10.75
 20
-17.88
 30
0.0
 11
10.8
 21
-15.15
 31
0.0
  0
LINE
  5
357
330
17
100
AcDbEntity
  8
Walls
100
AcDbLine
 10
10.41
 20
-17.95
 30
0.0
 11
10.41
 21
-16.02
 31
0.0
  0
LINE
  5
358
330
17
100
AcDbEntity
  8
Walls
100
AcDbLine
 10
24.060000000000002
 20
-19.79
 30
0.0
 11
24.060000000000002
 21
-15.16
 31
0.0
  0
LINE
  5
359
330
17
100
AcDbEntity
  8
Walls
100
AcDbLine
 10
24.44
 20
-19.42
 30
0.0
 11
24.44
 21
-15.120000000000001
 31
0.0
  0
LINE
  5
35A
330
17
100
AcDbEntity
  8
Walls
100
AcDbLine
 10
24.060000000000002
 20
-19.79
 30
0.0
 11
24.060000000000002
 21
-15.16
 31
0.0
  0
LINE
  5
35B
330
17
100
AcDbEntity
  8
Walls
100
AcDbLine
 10
24.07
 20
-19.8
 30
0.0
 11
24.07
 21
-16.18
 31
0.0
  0
LINE
  5
35C
330
17
100
AcDbEntity
  8
Walls
100
AcDbLine
 10
18.6
 20
-13.74
 30
0.0
 11
18.64
 21
-11.35
 31
0.0
  0
LINE
  5
35D
330
17
100
AcDbEntity
  8
Walls
100
AcDbLine
 10
18.96
 20
-13.74
 30
0.0
 11
18.96
 21
-11.370000000000001
 31
0.0
  0
LINE
  5
35E
330
17
100
AcDbEntity
  8
Walls
100
AcDbLine
 10
18.6
 20
-13.74
 30
0.0
 11
18.64
 21
-11.35
 31
0.0
  0
LINE
  5
35F
330
17
100
AcDbEntity
  8
Walls
100
AcDbLine
 10
18.95
 20
-13.74
 30
0.0
 11
18.95
 21
-12.17
 31
0.0
  0
LINE
  5
360
330
17
100
AcDbEntity
  8
Walls
100
AcDbLine
 10
18.6
 20
-13.74
 30
0.0
 11
18.64
 21
-11.35
 31
0.0
  0
LINE
  5
361
330
17
100
AcDbEntity
  8
Walls
100
AcDbLine
 10
18.6
 20
-13.43
 30
0.0
 11
18.6
 21
-12.38
 31
0.0
  0
LINE
  5
362
330
17
100
AcDbEntity
  8
Walls
100
AcDbLine
 10
1.84
 20
-8.96
 30
0.0
 11
1.8900000000000001
 21
-5.94
 31
0.0
  0
LINE
  5
363
330
17
100
AcDbEntity
  8
Walls
100
AcDbLine
 10
1.85
 20
-7.44
 30
0.0
 11
1.87
 21
-6.59
 31
0.0
  0
LINE
  5
364
330
17
100
AcDbEntity
  8
Walls
100
AcDbLine
 10
27.32
 20
-13.69
 30
0.0
 11
27.38
 21
-17.69
 31
0.0
  0
LINE
  5
365
330
17
100
AcDbEntity
  8
Walls
100
AcDbLine
 10
27.36
 20
-15.13
 30
0.0
 11
27.39
 21
-17.41
 31
0.0
  0
LINE
  5
366
330
17
100
AcDbEntity
  8
Walls
100
AcDbLine
 10
21.14
 20
-8.73
 30
0.0
 11
21.16
 21
-7.22
 31
0.0
  0
LINE
  5
367
330
17
100
AcDbEntity
  8
Walls
100
AcDbLine
 10
21.45
 20
-8.89
 30
0.0
 11
21.490000000000002
 21
-6.19
 31
0.0
  0
LINE
  5
368
330
17
100
AcDbEntity
  8
Walls
100
AcDbLine
 10
10.43
 20
-17.95
 30
0.0
 11
10.43
 21
-14.69
 31
0.0
  0
LINE
  5
369
330
17
100
AcDbEntity
  8
Walls
100
AcDbLine
 10
10.42
 20
-17.95
 30
0.0
 11
10.42
 21
-15.1
 31
0.0
  0
LINE
  5
36A
330
17
100
AcDbEntity
  8
Walls
100
AcDbLine
 10
10.43
 20
-17.95
 30
0.0
 11
10.43
 21
-14.69
 31
0.0
  0
LINE
  5
36B
330
17
100
AcDbEntity
  8
Walls
100
AcDbLine
 10
10.76
 20
-16.91
 30
0.0
 11
10.790000000000001
 21
-15.08
 31
0.0
  0
LINE
  5
36C
330
17
100
AcDbEntity
  8
Walls
100
AcDbLine
 10
10.200000000000001
 20
-8.86
 30
0.0
 11
10.24
 21
-6.13
 31
0.0
  0
LINE
  5
36D
330
17
100
AcDbEntity
  8
Walls
100
AcDbLine
 10
10.19
 20
-8.86
 30
0.0
 11
10.24
 21
-5.62
 31
0.0
  0
LINE
  5
36E
330
17
100
AcDbEntity
  8
Walls
100
AcDbLine
 10
10.200000000000001
 20
-8.86
 30
0.0
 11
10.24
 21
-6.13
 31
0.0
  0
LINE
  5
36F
330
17
100
AcDbEntity
  8
Walls
100
AcDbLine
 10
10.19
 20
-8.22
 30
0.0
 11
10.23
 21
-5.62
 31
0.0
  0
LINE
  5
370
330
17
100
AcDbEntity
  8
Walls
100
AcDbLine
 10
15.040000000000001
 20
-14.68
 30
0.0
 11
15.05
 21
-13.85
 31
0.0
  0
LINE
  5
371
330
17
100
AcDbEntity
  8
Walls
100
AcDbLine
 10
14.700000000000001
 20
-14.67
 30
0.0
 11
14.700000000000001
 21
-13.85
 31
0.0
  0
LINE
  5
372
330
17
100
AcDbEntity
  8
Walls
100
AcDbLine
 10
6.24
 20
-13.74
 30
0.0
 11
6.24
 21
-11.44
 31
0.0
  0
LINE
  5
373
330
17
100
AcDbEntity
  8
Walls
100
AcDbLine
 10
5.88
 20
-13.73
 30
0.0
 11
5.88
 21
-11.46
 31
0.0
  0
LINE
  5
374
330
17
100
AcDbEntity
  8
Walls
100
AcDbLine
 10
15.13
 20
-8.870000000000001
 30
0.0
 11
15.15
 21
-7.3100000000000005
 31
0.0
  0
LINE
  5
375
330
17
100
AcDbEntity
  8
Walls
100
AcDbLine
 10
14.8
 20
-8.71
 30
0.0
 11
14.81
 21
-7.72
 31
0.0
  0
LINE
  5
376
330
17
100
AcDbEntity
  8
Walls
100
AcDbLine
 10
26.01
 20
-12.09
 30
0.0
 11
26.05
 21
-14.76
 31
0.0
  0
LINE
  5
377
330
17
100
AcDbEntity
  8
Walls
100
AcDbLine
 10
26.01
 20
-12.76
 30
0.0
 11
26.02
 21
-13.67
 31
0.0
  0
LINE
  5
378
330
17
100
AcDbEntity
  8
Walls
100
AcDbLine
 10
8.78
 20
-8.790000000000001
 30
0.0
 11
8.8
 21
-7.63
 31
0.0
  0
LINE
  5
379
330
17
100
AcDbEntity
  8
Walls
100
AcDbLine
 10
8.41
 20
-8.77
 30
0.0
 11
8.43
 21
-7.390000000000001
 31
0.0
  0
LINE
  5
37A
330
17
100
AcDbEntity
  8
Walls
100
AcDbLine
 10
8.78
 20
-8.790000000000001
 30
0.0
 11
8.8
 21
-7.63
 31
0.0
  0
LINE
  5
37B
330
17
100
AcDbEntity
  8
Walls
100
AcDbLine
 10
8.43
 20
-8.870000000000001
 30
0.0
 11
8.44
 21
-7.87
 31
0.0
  0
LINE
  5
37C
330
17
100
AcDbEntity
  8
Walls
100
AcDbLine
 10
10.19
 20
-8.86
 30
0.0
 11
10.24
 21
-5.62
 31
0.0
  0
LINE
  5
37D
330
17
100
AcDbEntity
  8
Walls
100
AcDbLine
 10
10.19
 20
-8.22
 30
0.0
 11
10.23
 21
-5.62
 31
0.0
  0
LINE
  5
37E
330
17
100
AcDbEntity
  8
Walls
100
AcDbLine
 10
18.69
 20
-7.18
 30
0.0
 11
18.7
 21
-6.3100000000000005
 31
0.0
  0
LINE
  5
37F
330
17
100
AcDbEntity
  8
Walls
100
AcDbLine
 10
19.03
 20
-7.2700000000000005
 30
0.0
 11
19.04
 21
-6.29
 31
0.0
  0
LINE
  5
380
330
17
100
AcDbEntity
  8
Walls
100
AcDbLine
 10
18.69
 20
-7.18
 30
0.0
 11
18.7
 21
-6.3100000000000005
 31
0.0
  0
LINE
  5
381
330
17
100
AcDbEntity
  8
Walls
100
AcDbLine
 10
19.0
 20
-8.57
 30
0.0
 11
19.04
 21
-5.72
 31
0.0
  0
LINE
  5
382
330
17
100
AcDbEntity
  8
Walls
100
AcDbLine
 10
25.0
 20
-14.67
 30
0.0
 11
25.0
 21
-12.94
 31
0.0
  0
LINE
  5
383
330
17
100
AcDbEntity
  8
Walls
100
AcDbLine
 10
25.38
 20
-14.67
 30
0.0
 11
25.38
 21
-13.700000000000001
 31
0.0
  0
LINE
  5
384
330
17
100
AcDbEntity
  8
Walls
100
AcDbLine
 10
15.120000000000001
 20
-8.790000000000001
 30
0.0
 11
15.17
 21
-5.62
 31
0.0
  0
LINE
  5
385
330
17
100
AcDbEntity
  8
Walls
100
AcDbLine
 10
14.83
 20
-7.62
 30
0.0
 11
14.83
 21
-6.32
 31
0.0
  0
LINE
  5
386
330
17
100
AcDbEntity
  8
Walls
100
AcDbLine
 10
24.42
 20
-19.42
 30
0.0
 11
24.42
 21
-16.57
 31
0.0
  0
LINE
  5
387
330
17
100
AcDbEntity
  8
Walls
100
AcDbLine
 10
24.41
 20
-19.25
 30
0.0
 11
24.41
 21
-17.92
 31
0.0
  0
LINE
  5
388
330
17
100
AcDbEntity
  8
Walls
100
AcDbLine
 10
24.42
 20
-19.42
 30
0.0
 11
24.42
 21
-16.57
 31
0.0
  0
LINE
  5
389
330
17
100
AcDbEntity
  8
Walls
100
AcDbLine
 10
24.07
 20
-19.8
 30
0.0
 11
24.07
 21
-16.18
 31
0.0
  0
LINE
  5
38A
330
17
100
AcDbEntity
  8
Walls
100
AcDbLine
 10
24.42
 20
-19.42
 30
0.0
 11
24.42
 21
-16.57
 31
0.0
  0
LINE
  5
38B
330
17
100
AcDbEntity
  8
Walls
100
AcDbLine
 10
24.080000000000002
 20
-19.8
 30
0.0
 11
24.080000000000002
 21
-16.76
 31
0.0
  0
LINE
  5
38C
330
17
100
AcDbEntity
  8
Walls
100
AcDbLine
 10
3.94
 20
-18.31
 30
0.0
 11
4.0
 21
-14.75
 31
0.0
  0
LINE
  5
38D
330
17
100
AcDbEntity
  8
Walls
100
AcDbLine
 10
3.95
 20
-18.31
 30
0.0
 11
4.0
 21
-15.700000000000001
 31
0.0
  0
LINE
  5
38E
330
17
100
AcDbEntity
  8
Walls
100
AcDbLine
 10
23.68
 20
-14.68
 30
0.0
 11
23.68
 21
-11.43
 31
0.0
  0
LINE
  5
38F
330
17
100
AcDbEntity
  8
Walls
100
AcDbLine
 10
23.69
 20
-14.68
 30
0.0
 11
23.69
 21
-12.39
 31
0.0
  0
LINE
  5
390
330
17
100
AcDbEntity
  8
Walls
100
AcDbLine
 10
33.38
 20
-16.56
 30
0.0
 11
33.4
 21
-18.03
 31
0.0
  0
LINE
  5
391
330
17
100
AcDbEntity
  8
Walls
100
AcDbLine
 10
33.36
 20
-16.39
 30
0.0
 11
33.37
 21
-17.34
 31
0.0
  0
LINE
  5
392
330
17
100
AcDbEntity
  8
Walls
100
AcDbLine
 10
10.77
 20
-17.54
 30
0.0
 11
10.790000000000001
 21
-16.18
 31
0.0
  0
LINE
  5
393
330
17
100
AcDbEntity
  8
Walls
100
AcDbLine
 10
11.06
 20
-17.95
 30
0.0
 11
11.06
 21
-15.09
 31
0.0
  0
LINE
  5
394
330
17
100
AcDbEntity
  8
Walls
100
AcDbLine
 10
10.77
 20
-17.54
 30
0.0
 11
10.790000000000001
 21
-16.18
 31
0.0
  0
LINE
  5
395
330
17
100
AcDbEntity
  8
Walls
100
AcDbLine
 10
10.42
 20
-17.95
 30
0.0
 11
10.42
 21
-15.1
 31
0.0
  0
LINE
  5
396
330
17
100
AcDbEntity
  8
Walls
100
AcDbLine
 10
10.77
 20
-17.54
 30
0.0
 11
10.790000000000001
 21
-16.18
 31
0.0
  0
LINE
  5
397
330
17
100
AcDbEntity
  8
Walls
100
AcDbLine
 10
10.41
 20
-17.95
 30
0.0
 11
10.41
 21
-16.02
 31
0.0
  0
LINE
  5
398
330
17
100
AcDbEntity
  8
Walls
100
AcDbLine
 10
10.77
 20
-17.54
 30
0.0
 11
10.790000000000001
 21
-16.18
 31
0.0
  0
LINE
  5
399
330
17
100
AcDbEntity
  8
Walls
100
AcDbLine
 10
10.77
 20
-17.95
 30
0.0
 11
10.790000000000001
 21
-16.42
 31
0.0
  0
LINE
  5
39A
330
17
100
AcDbEntity
  8
Walls
100
AcDbLine
 10
25.94
 20
-6.01
 30
0.0
 11
25.98
 21
-8.86
 31
0.0
  0
LINE
  5
39B
330
17
100
AcDbEntity
  8
Walls
100
AcDbLine
 10
25.97
 20
-7.25
 30
0.0
 11
25.98
 21
-8.25
 31
0.0
  0
LINE
  5
39C
330
17
100
AcDbEntity
  8
Walls
100
AcDbLine
 10
3.98
 20
-14.71
 30
0.0
 11
4.01
 21
-12.530000000000001
 31
0.0
  0
LINE
  5
39D
330
17
100
AcDbEntity
  8
Walls
100
AcDbLine
 10
4.09
 20
-14.620000000000001
 30
0.0
 11
4.1
 21
-13.540000000000001
 31
0.0
  0
LINE
  5
39E
330
17
100
AcDbEntity
  8
Walls
100
AcDbLine
 10
24.41
 20
-19.25
 30
0.0
 11
24.41
 21
-17.92
 31
0.0
  0
LINE
  5
39F
330
17
100
AcDbEntity
  8
Walls
100
AcDbLine
 10
24.080000000000002
 20
-19.8
 30
0.0
 11
24.080000000000002
 21
-16.76
 31
0.0
  0
LINE
  5
3A0
330
17
100
AcDbEntity
  8
Walls
100
AcDbLine
 10
8.41
 20
-8.77
 30
0.0
 11
8.43
 21
-7.390000000000001
 31
0.0
  0
LINE
  5
3A1
330
17
100
AcDbEntity
  8
Walls
100
AcDbLine
 10
8.43
 20
-8.870000000000001
 30
0.0
 11
8.44
 21
-7.87
 31
0.0
  0
LINE
  5
3A2
330
17
100
AcDbEntity
  8
Walls
100
AcDbLine
 10
4.16
 20
-7.73
 30
0.0
 11
4.2
 21
-5.66
 31
0.0
  0
LINE
  5
3A3
330
17
100
AcDbEntity
  8
Walls
100
AcDbLine
 10
4.38
 20
-7.3
 30
0.0
 11
4.43
 21
-5.72
 31
0.0
  0
LINE
  5
3A4
330
17
100
AcDbEntity
  8
Walls
100
AcDbLine
 10
4.16
 20
-7.73
 30
0.0
 11
4.2
 21
-5.66
 31
0.0
  0
LINE
  5
3A5
330
17
100
AcDbEntity
  8
Walls
100
AcDbLine
 10
4.08
 20
-5.94
 30
0.0
 11
4.11
 21
-6.91
 31
0.0
  0
LINE
  5
3A6
330
17
100
AcDbEntity
  8
Walls
100
AcDbLine
 10
5.93
 20
-7.640000000000001
 30
0.0
 11
5.96
 21
-5.66
 31
0.0
  0
LINE
  5
3A7
330
17
100
AcDbEntity
  8
Walls
100
AcDbLine
 10
5.92
 20
-7.22
 30
0.0
 11
5.94
 21
-5.66
 31
0.0
  0
LINE
  5
3A8
330
17
100
AcDbEntity
  8
Walls
100
AcDbLine
 10
5.93
 20
-7.640000000000001
 30
0.0
 11
5.96
 21
-5.66
 31
0.0
  0
LINE
  5
3A9
330
17
100
AcDbEntity
  8
Walls
100
AcDbLine
 10
6.2700000000000005
 20
-6.93
 30
0.0
 11
6.28
 21
-6.08
 31
0.0
  0
LINE
  5
3AA
330
17
100
AcDbEntity
  8
Walls
100
AcDbLine
 10
24.05
 20
-18.3
 30
0.0
 11
24.05
 21
-15.07
 31
0.0
  0
LINE
  5
3AB
330
17
100
AcDbEntity
  8
Walls
100
AcDbLine
 10
24.45
 20
-17.93
 30
0.0
 11
24.45
 21
-15.120000000000001
 31
0.0
  0
LINE
  5
3AC
330
17
100
AcDbEntity
  8
Walls
100
AcDbLine
 10
24.05
 20
-18.3
 30
0.0
 11
24.05
 21
-15.07
 31
0.0
  0
LINE
  5
3AD
330
17
100
AcDbEntity
  8
Walls
100
AcDbLine
 10
24.04
 20
-17.32
 30
0.0
 11
24.04
 21
-15.07
 31
0.0
  0
LINE
  5
3AE
330
17
100
AcDbEntity
  8
Walls
100
AcDbLine
 10
32.4
 20
-15.74
 30
0.0
 11
32.49
 21
-18.59
 31
0.0
  0
LINE
  5
3AF
330
17
100
AcDbEntity
  8
Walls
100
AcDbLine
 10
32.4
 20
-16.080000000000002
 30
0.0
 11
32.49
 21
-18.93
 31
0.0
  0
LINE
  5
3B0
330
17
100
AcDbEntity
  8
Walls
100
AcDbLine
 10
8.44
 20
-7.3100000000000005
 30
0.0
 11
8.44
 21
-5.64
 31
0.0
  0
LINE
  5
3B1
330
17
100
AcDbEntity
  8
Walls
100
AcDbLine
 10
8.790000000000001
 20
-6.96
 30
0.0
 11
8.81
 21
-5.63
 31
0.0
  0
LINE
  5
3B2
330
17
100
AcDbEntity
  8
Walls
100
AcDbLine
 10
26.96
 20
-7.17
 30
0.0
 11
27.0
 21
-8.59
 31
0.0
  0
LINE
  5
3B3
330
17
100
AcDbEntity
  8
Walls
100
AcDbLine
 10
27.22
 20
-6.2700000000000005
 30
0.0
 11
27.26
 21
-8.75
 31
0.0
  0
LINE
  5
3B4
330
17
100
AcDbEntity
  8
Walls
100
AcDbLine
 10
26.96
 20
-7.17
 30
0.0
 11
27.0
 21
-8.59
 31
0.0
  0
LINE
  5
3B5
330
17
100
AcDbEntity
  8
Walls
100
AcDbLine
 10
26.96
 20
-6.61
 30
0.0
 11
27.0
 21
-8.03
 31
0.0
  0
LINE
  5
3B6
330
17
100
AcDbEntity
  8
Walls
100
AcDbLine
 10
21.44
 20
-8.89
 30
0.0
 11
21.490000000000002
 21
-5.65
 31
0.0
  0
LINE
  5
3B7
330
17
100
AcDbEntity
  8
Walls
100
AcDbLine
 10
21.45
 20
-8.89
 30
0.0
 11
21.490000000000002
 21
-6.19
 31
0.0
  0
LINE
  5
3B8
330
17
100
AcDbEntity
  8
Walls
100
AcDbLine
 10
21.44
 20
-8.89
 30
0.0
 11
21.490000000000002
 21
-5.65
 31
0.0
  0
LINE
  5
3B9
330
17
100
AcDbEntity
  8
Walls
100
AcDbLine
 10
21.13
 20
-8.72
 30
0.0
 11
21.18
 21
-5.63
 31
0.0
  0
LINE
  5
3BA
330
17
100
AcDbEntity
  8
Walls
100
AcDbLine
 10
11.81
 20
-17.95
 30
0.0
 11
11.81
 21
-15.09
 31
0.0
  0
LINE
  5
3BB
330
17
100
AcDbEntity
  8
Walls
100
AcDbLine
 10
11.790000000000001
 20
-17.89
 30
0.0
 11
11.790000000000001
 21
-16.18
 31
0.0
  0
LINE
  5
3BC
330
17
100
AcDbEntity
  8
Walls
100
AcDbLine
 10
12.57
 20
-13.74
 30
0.0
 11
12.61
 21
-11.44
 31
0.0
  0
LINE
  5
3BD
330
17
100
AcDbEntity
  8
Walls
100
AcDbLine
 10
12.21
 20
-13.74
 30
0.0
 11
12.25
 21
-11.41
 31
0.0
  0
LINE
  5
3BE
330
17
100
AcDbEntity
  8
Walls
100
AcDbLine
 10
12.57
 20
-13.74
 30
0.0
 11
12.61
 21
-11.44
 31
0.0
  0
LINE
  5
3BF
330
17
100
AcDbEntity
  8
Walls
100
AcDbLine
 10
12.61
 20
-12.57
 30
0.0
 11
12.61
 21
-11.51
 31
0.0
  0
LINE
  5
3C0
330
17
100
AcDbEntity
  8
Walls
100
AcDbLine
 10
24.07
 20
-19.8
 30
0.0
 11
24.07
 21
-16.18
 31
0.0
  0
LINE
  5
3C1
330
17
100
AcDbEntity
  8
Walls
100
AcDbLine
 10
24.080000000000002
 20
-19.8
 30
0.0
 11
24.080000000000002
 21
-16.76
 31
0.0
  0
LINE
  5
3C2
330
17
100
AcDbEntity
  8
Walls
100
AcDbLine
 10
11.06
 20
-17.95
 30
0.0
 11
11.06
 21
-15.09
 31
0.0
  0
LINE
  5
3C3
330
17
100
AcDbEntity
  8
Walls
100
AcDbLine
 10
10.76
 20
-16.91
 30
0.0
 11
10.790000000000001
 21
-15.08
 31
0.0
  0
LINE
  5
3C4
330
17
100
AcDbEntity
  8
Walls
100
AcDbLine
 10
11.06
 20
-17.95
 30
0.0
 11
11.06
 21
-15.09
 31
0.0
  0
LINE
  5
3C5
330
17
100
AcDbEntity
  8
Walls
100
AcDbLine
 10
11.07
 20
-16.94
 30
0.0
 11
11.07
 21
-15.08
 31
0.0
  0
LINE
  5
3C6
330
17
100
AcDbEntity
  8
Walls
100
AcDbLine
 10
27.36
 20
-17.88
 30
0.0
 11
27.38
 21
-18.73
 31
0.0
  0
LINE
  5
3C7
330
17
100
AcDbEntity
  8
Walls
100
AcDbLine
 10
27.36
 20
-18.27
 30
0.0
 11
27.39
 21
-19.41
 31
0.0
  0
LINE
  5
3C8
330
17
100
AcDbEntity
  8
Walls
100
AcDbLine
 10
27.36
 20
-17.88
 30
0.0
 11
27.38
 21
-18.73
 31
0.0
  0
LINE
  5
3C9
330
17
100
AcDbEntity
  8
Walls
100
AcDbLine
 10
27.02
 20
-17.57
 30
0.0
 11
27.03
 21
-18.56
 31
0.0
  0
LINE
  5
3CA
330
17
100
AcDbEntity
  8
Walls
100
AcDbLine
 10
14.06
 20
-17.96
 30
0.0
 11
14.06
 21
-15.08
 31
0.0
  0
LINE
  5
3CB
330
17
100
AcDbEntity
  8
Walls
100
AcDbLine
 10
14.05
 20
-17.96
 30
0.0
 11
14.05
 21
-15.81
 31
0.0
  0
LINE
  5
3CC
330
17
100
AcDbEntity
  8
Walls
100
AcDbLine
 10
10.42
 20
-17.95
 30
0.0
 11
10.42
 21
-15.1
 31
0.0
  0
LINE
  5
3CD
330
17
100
AcDbEntity
  8
Walls
100
AcDbLine
 10
10.41
 20
-17.95
 30
0.0
 11
10.41
 21
-16.02
 31
0.0
  0
LINE
  5
3CE
330
17
100
AcDbEntity
  8
Walls
100
AcDbLine
 10
18.94
 20
-14.64
 30
0.0
 11
18.95
 21
-13.84
 31
0.0
  0
LINE
  5
3CF
330
17
100
AcDbEntity
  8
Walls
100
AcDbLine
 10
18.57
 20
-14.71
 30
0.0
 11
18.59
 21
-13.85
 31
0.0
  0
LINE
  5
3D0
330
17
100
AcDbEntity
  8
Walls
100
AcDbLine
 10
23.650000000000002
 20
-8.77
 30
0.0
 11
23.650000000000002
 21
-5.64
 31
0.0
  0
LINE
  5
3D1
330
17
100
AcDbEntity
  8
Walls
100
AcDbLine
 10
23.63
 20
-8.2
 30
0.0
 11
23.63
 21
-5.65
 31
0.0
  0
LINE
  5
3D2
330
17
100
AcDbEntity
  8
Walls
100
AcDbLine
 10
18.96
 20
-13.74
 30
0.0
 11
18.96
 21
-11.370000000000001
 31
0.0
  0
LINE
  5
3D3
330
17
100
AcDbEntity
  8
Walls
100
AcDbLine
 10
18.95
 20
-13.74
 30
0.0
 11
18.95
 21
-12.17
 31
0.0
  0
LINE
  5
3D4
330
17
100
AcDbEntity
  8
Walls
100
AcDbLine
 10
18.96
 20
-13.74
 30
0.0
 11
18.96
 21
-11.370000000000001
 31
0.0
  0
LINE
  5
3D5
330
17
100
AcDbEntity
  8
Walls
100
AcDbLine
 10
18.6
 20
-13.43
 30
0.0
 11
18.6
 21
-12.38
 31
0.0
  0
LINE
  5
3D6
330
17
100
AcDbEntity
  8
Walls
100
AcDbLine
 10
24.45
 20
-17.93
 30
0.0
 11
24.45
 21
-15.120000000000001
 31
0.0
  0
LINE
  5
3D7
330
17
100
AcDbEntity
  8
Walls
100
AcDbLine
 10
24.400000000000002
 20
-16.95
 30
0.0
 11
24.400000000000002
 21
-15.08
 31
0.0
  0
LINE
  5
3D8
330
17
100
AcDbEntity
  8
Walls
100
AcDbLine
 10
24.45
 20
-17.93
 30
0.0
 11
24.45
 21
-15.120000000000001
 31
0.0
  0
LINE
  5
3D9
330
17
100
AcDbEntity
  8
Walls
100
AcDbLine
 10
24.04
 20
-17.32
 30
0.0
 11
24.04
 21
-15.07
 31
0.0
  0
LINE
  5
3DA
330
17
100
AcDbEntity
  8
Walls
100
AcDbLine
 10
4.04
 20
-9.71
 30
0.0
 11
4.07
 21
-7.68
 31
0.0
  0
LINE
  5
3DB
330
17
100
AcDbEntity
  8
Walls
100
AcDbLine
 10
4.17
 20
-9.1
 30
0.0
 11
4.19
 21
-7.390000000000001
 31
0.0
  0
LINE
  5
3DC
330
17
100
AcDbEntity
  8
Walls
100
AcDbLine
 10
26.84
 20
-5.79
 30
0.0
 11
26.86
 21
-7.5
 31
0.0
  0
LINE
  5
3DD
330
17
100
AcDbEntity
  8
Walls
100
AcDbLine
 10
26.85
 20
-5.5600000000000005
 30
0.0
 11
26.86
 21
-6.5600000000000005
 31
0.0
  0
LINE
  5
3DE
330
17
100
AcDbEntity
  8
Walls
100
AcDbLine
 10
26.84
 20
-5.79
 30
0.0
 11
26.86
 21
-7.5
 31
0.0
  0
LINE
  5
3DF
330
17
100
AcDbEntity
  8
Walls
100
AcDbLine
 10
26.96
 20
-5.57
 30
0.0
 11
26.98
 21
-7.0600000000000005
 31
0.0
  0
LINE
  5
3E0
330
17
100
AcDbEntity
  8
Walls
100
AcDbLine
 10
26.84
 20
-5.79
 30
0.0
 11
26.86
 21
-7.5
 31
0.0
  0
LINE
  5
3E1
330
17
100
AcDbEntity
  8
Walls
100
AcDbLine
 10
27.23
 20
-5.57
 30
0.0
 11
27.26
 21
-7.32
 31
0.0
  0
LINE
  5
3E2
330
17
100
AcDbEntity
  8
Walls
100
AcDbLine
 10
26.84
 20
-5.79
 30
0.0
 11
26.86
 21
-7.5
 31
0.0
  0
LINE
  5
3E3
330
17
100
AcDbEntity
  8
Walls
100
AcDbLine
 10
27.22
 20
-5.57
 30
0.0
 11
27.26
 21
-7.97
 31
0.0
  0
LINE
  5
3E4
330
17
100
AcDbEntity
  8
Walls
100
AcDbLine
 10
26.85
 20
-5.5600000000000005
 30
0.0
 11
26.86
 21
-6.5600000000000005
 31
0.0
  0
LINE
  5
3E5
330
17
100
AcDbEntity
  8
Walls
100
AcDbLine
 10
26.96
 20
-5.57
 30
0.0
 11
26.98
 21
-7.0600000000000005
 31
0.0
  0
LINE
  5
3E6
330
17
100
AcDbEntity
  8
Walls
100
AcDbLine
 10
26.85
 20
-5.5600000000000005
 30
0.0
 11
26.86
 21
-6.5600000000000005
 31
0.0
  0
LINE
  5
3E7
330
17
100
AcDbEntity
  8
Walls
100
AcDbLine
 10
27.23
 20
-5.57
 30
0.0
 11
27.26
 21
-7.32
 31
0.0
  0
LINE
  5
3E8
330
17
100
AcDbEntity
  8
Walls
100
AcDbLine
 10
21.45
 20
-8.89
 30
0.0
 11
21.490000000000002
 21
-6.19
 31
0.0
  0
LINE
  5
3E9
330
17
100
AcDbEntity
  8
Walls
100
AcDbLine
 10
21.13
 20
-8.72
 30
0.0
 11
21.18
 21
-5.63
 31
0.0
  0
LINE
  5
3EA
330
17
100
AcDbEntity
  8
Walls
100
AcDbLine
 10
15.07
 20
-13.74
 30
0.0
 11
15.07
 21
-11.73
 31
0.0
  0
LINE
  5
3EB
330
17
100
AcDbEntity
  8
Walls
100
AcDbLine
 10
15.08
 20
-13.17
 30
0.0
 11
15.08
 21
-11.63
 31
0.0
  0
LINE
  5
3EC
330
17
100
AcDbEntity
  8
Walls
100
AcDbLine
 10
15.07
 20
-13.74
 30
0.0
 11
15.07
 21
-11.73
 31
0.0
  0
LINE
  5
3ED
330
17
100
AcDbEntity
  8
Walls
100
AcDbLine
 10
14.72
 20
-13.040000000000001
 30
0.0
 11
14.74
 21
-11.46
 31
0.0
  0
LINE
  5
3EE
330
17
100
AcDbEntity
  8
Walls
100
AcDbLine
 10
15.07
 20
-13.74
 30
0.0
 11
15.07
 21
-11.73
 31
0.0
  0
LINE
  5
3EF
330
17
100
AcDbEntity
  8
Walls
100
AcDbLine
 10
15.09
 20
-12.76
 30
0.0
 11
15.09
 21
-11.63
 31
0.0
  0
LINE
  5
3F0
330
17
100
AcDbEntity
  8
Walls
100
AcDbLine
 10
26.900000000000002
 20
-15.120000000000001
 30
0.0
 11
26.93
 21
-17.400000000000002
 31
0.0
  0
LINE
  5
3F1
330
17
100
AcDbEntity
  8
Walls
100
AcDbLine
 10
27.36
 20
-15.13
 30
0.0
 11
27.39
 21
-17.41
 31
0.0
  0
LINE
  5
3F2
330
17
100
AcDbEntity
  8
Walls
100
AcDbLine
 10
19.03
 20
-7.2700000000000005
 30
0.0
 11
19.04
 21
-6.29
 31
0.0
  0
LINE
  5
3F3
330
17
100
AcDbEntity
  8
Walls
100
AcDbLine
 10
19.0
 20
-8.57
 30
0.0
 11
19.04
 21
-5.72
 31
0.0
  0
LINE
  5
3F4
330
17
100
AcDbEntity
  8
Walls
100
AcDbLine
 10
8.35
 20
-13.72
 30
0.0
 11
8.38
 21
-12.280000000000001
 31
0.0
  0
LINE
  5
3F5
330
17
100
AcDbEntity
  8
Walls
100
AcDbLine
 10
8.36
 20
-13.73
 30
0.0
 11
8.38
 21
-12.76
 31
0.0
  0
LINE
  5
3F6
330
17
100
AcDbEntity
  8
Walls
100
AcDbLine
 10
8.35
 20
-13.72
 30
0.0
 11
8.38
 21
-12.280000000000001
 31
0.0
  0
LINE
  5
3F7
330
17
100
AcDbEntity
  8
Walls
100
AcDbLine
 10
8.700000000000001
 20
-13.73
 30
0.0
 11
8.73
 21
-12.620000000000001
 31
0.0
  0
LINE
  5
3F8
330
17
100
AcDbEntity
  8
Walls
100
AcDbLine
 10
25.0
 20
-8.73
 30
0.0
 11
25.03
 21
-6.45
 31
0.0
  0
LINE
  5
3F9
330
17
100
AcDbEntity
  8
Walls
100
AcDbLine
 10
25.34
 20
-8.77
 30
0.0
 11
25.34
 21
-7.26
 31
0.0
  0
LINE
  5
3FA
330
17
100
AcDbEntity
  8
Walls
100
AcDbLine
 10
5.92
 20
-7.22
 30
0.0
 11
5.94
 21
-5.66
 31
0.0
  0
LINE
  5
3FB
330
17
100
AcDbEntity
  8
Walls
100
AcDbLine
 10
6.2700000000000005
 20
-6.93
 30
0.0
 11
6.28
 21
-6.08
 31
0.0
  0
LINE
  5
3FC
330
17
100
AcDbEntity
  8
Walls
100
AcDbLine
 10
21.080000000000002
 20
-13.030000000000001
 30
0.0
 11
21.11
 21
-11.540000000000001
 31
0.0
  0
LINE
  5
3FD
330
17
100
AcDbEntity
  8
Walls
100
AcDbLine
 10
21.07
 20
-13.030000000000001
 30
0.0
 11
21.080000000000002
 21
-12.15
 31
0.0
  0
LINE
  5
3FE
330
17
100
AcDbEntity
  8
Walls
100
AcDbLine
 10
27.22
 20
-6.2700000000000005
 30
0.0
 11
27.26
 21
-8.75
 31
0.0
  0
LINE
  5
3FF
330
17
100
AcDbEntity
  8
Walls
100
AcDbLine
 10
26.96
 20
-6.61
 30
0.0
 11
27.0
 21
-8.03
 31
0.0
  0
LINE
  5
400
330
17
100
AcDbEntity
  8
Walls
100
AcDbLine
 10
19.0
 20
-8.57
 30
0.0
 11
19.04
 21
-5.72
 31
0.0
  0
LINE
  5
401
330
17
100
AcDbEntity
  8
Walls
100
AcDbLine
 10
19.0
 20
-7.92
 30
0.0
 11
19.01
 21
-7.1000000000000005
 31
0.0
  0
LINE
  5
402
330
17
100
AcDbEntity
  8
Walls
100
AcDbLine
 10
19.0
 20
-8.57
 30
0.0
 11
19.04
 21
-5.72
 31
0.0
  0
LINE
  5
403
330
17
100
AcDbEntity
  8
Walls
100
AcDbLine
 10
18.7
 20
-8.01
 30
0.0
 11
18.71
 21
-7.09
 31
0.0
  0
LINE
  5
404
330
17
100
AcDbEntity
  8
Walls
100
AcDbLine
 10
26.990000000000002
 20
-13.32
 30
0.0
 11
27.02
 21
-14.56
 31
0.0
  0
LINE
  5
405
330
17
100
AcDbEntity
  8
Walls
100
AcDbLine
 10
27.32
 20
-13.06
 30
0.0
 11
27.34
 21
-14.76
 31
0.0
  0
LINE
  5
406
330
17
100
AcDbEntity
  8
Walls
100
AcDbLine
 10
3.99
 20
-14.71
 30
0.0
 11
4.0
 21
-13.85
 31
0.0
  0
LINE
  5
407
330
17
100
AcDbEntity
  8
Walls
100
AcDbLine
 10
4.09
 20
-14.620000000000001
 30
0.0
 11
4.1
 21
-13.540000000000001
 31
0.0
  0
LINE
  5
408
330
17
100
AcDbEntity
  8
Walls
100
AcDbLine
 10
24.400000000000002
 20
-16.95
 30
0.0
 11
24.400000000000002
 21
-15.08
 31
0.0
  0
LINE
  5
409
330
17
100
AcDbEntity
  8
Walls
100
AcDbLine
 10
24.04
 20
-17.32
 30
0.0
 11
24.04
 21
-15.07
 31
0.0
  0
LINE
  5
40A
330
17
100
AcDbEntity
  8
Walls
100
AcDbLine
 10
32.1
 20
-17.330000000000002
 30
0.0
 11
32.13
 21
-19.42
 31
0.0
  0
LINE
  5
40B
330
17
100
AcDbEntity
  8
Walls
100
AcDbLine
 10
32.45
 20
-17.84
 30
0.0
 11
32.5
 21
-19.54
 31
0.0
  0
LINE
  5
40C
330
17
100
AcDbEntity
  8
Walls
100
AcDbLine
 10
8.36
 20
-13.73
 30
0.0
 11
8.38
 21
-12.76
 31
0.0
  0
LINE
  5
40D
330
17
100
AcDbEntity
  8
Walls
100
AcDbLine
 10
8.700000000000001
 20
-13.73
 30
0.0
 11
8.73
 21
-12.620000000000001
 31
0.0
  0
LINE
  5
40E
330
17
100
AcDbEntity
  8
Walls
100
AcDbLine
 10
33.19
 20
-7.8100000000000005
 30
0.0
 11
33.19
 21
-5.67
 31
0.0
  0
LINE
  5
40F
330
17
100
AcDbEntity
  8
Walls
100
AcDbLine
 10
33.18
 20
-7.26
 30
0.0
 11
33.18
 21
-5.55
 31
0.0
  0
LINE
  5
410
330
17
100
AcDbEntity
  8
Walls
100
AcDbLine
 10
33.19
 20
-7.8100000000000005
 30
0.0
 11
33.19
 21
-5.67
 31
0.0
  0
LINE
  5
411
330
17
100
AcDbEntity
  8
Walls
100
AcDbLine
 10
33.2
 20
-7.930000000000001
 30
0.0
 11
33.2
 21
-6.11
 31
0.0
  0
LINE
  5
412
330
17
100
AcDbEntity
  8
Walls
100
AcDbLine
 10
26.96
 20
-5.57
 30
0.0
 11
26.98
 21
-7.0600000000000005
 31
0.0
  0
LINE
  5
413
330
17
100
AcDbEntity
  8
Walls
100
AcDbLine
 10
27.23
 20
-5.57
 30
0.0
 11
27.26
 21
-7.32
 31
0.0
  0
LINE
  5
414
330
17
100
AcDbEntity
  8
Walls
100
AcDbLine
 10
26.96
 20
-5.57
 30
0.0
 11
26.98
 21
-7.0600000000000005
 31
0.0
  0
LINE
  5
415
330
17
100
AcDbEntity
  8
Walls
100
AcDbLine
 10
27.22
 20
-5.57
 30
0.0
 11
27.26
 21
-7.97
 31
0.0
  0
LINE
  5
416
330
17
100
AcDbEntity
  8
Walls
100
AcDbLine
 10
32.38
 20
-14.46
 30
0.0
 11
32.42
 21
-15.4
 31
0.0
  0
LINE
  5
417
330
17
100
AcDbEntity
  8
Walls
100
AcDbLine
 10
32.38
 20
-14.65
 30
0.0
 11
32.42
 21
-16.03
 31
0.0
  0
LINE
  5
418
330
17
100
AcDbEntity
  8
Walls
100
AcDbLine
 10
10.76
 20
-16.91
 30
0.0
 11
10.790000000000001
 21
-15.08
 31
0.0
  0
LINE
  5
419
330
17
100
AcDbEntity
  8
Walls
100
AcDbLine
 10
11.07
 20
-16.94
 30
0.0
 11
11.07
 21
-15.08
 31
0.0
  0
LINE
  5
41A
330
17
100
AcDbEntity
  8
Walls
100
AcDbLine
 10
5.91
 20
-8.84
 30
0.0
 11
5.93
 21
-7.82
 31
0.0
  0
LINE
  5
41B
330
17
100
AcDbEntity
  8
Walls
100
AcDbLine
 10
6.26
 20
-8.950000000000001
 30
0.0
 11
6.28
 21
-7.61
 31
0.0
  0
LINE
  5
41C
330
17
100
AcDbEntity
  8
Walls
100
AcDbLine
 10
33.21
 20
-8.32
 30
0.0
 11
33.21
 21
-6.49
 31
0.0
  0
LINE
  5
41D
330
17
100
AcDbEntity
  8
Walls
100
AcDbLine
 10
33.2
 20
-7.930000000000001
 30
0.0
 11
33.2
 21
-6.11
 31
0.0
  0
LINE
  5
41E
330
17
100
AcDbEntity
  8
Walls
100
AcDbLine
 10
10.41
 20
-17.95
 30
0.0
 11
10.41
 21
-16.02
 31
0.0
  0
LINE
  5
41F
330
17
100
AcDbEntity
  8
Walls
100
AcDbLine
 10
10.77
 20
-17.95
 30
0.0
 11
10.790000000000001
 21
-16.42
 31
0.0
  0
LINE
  5
420
330
17
100
AcDbEntity
  8
Walls
100
AcDbLine
 10
10.41
 20
-17.95
 30
0.0
 11
10.41
 21
-16.02
 31
0.0
  0
LINE
  5
421
330
17
100
AcDbEntity
  8
Walls
100
AcDbLine
 10
10.4
 20
-17.95
 30
0.0
 11
10.4
 21
-17.04
 31
0.0
  0
LINE
  5
422
330
17
100
AcDbEntity
  8
Walls
100
AcDbLine
 10
33.18
 20
-7.26
 30
0.0
 11
33.18
 21
-5.55
 31
0.0
  0
LINE
  5
423
330
17
100
AcDbEntity
  8
Walls
100
AcDbLine
 10
33.17
 20
-6.48
 30
0.0
 11
33.17
 21
-5.55
 31
0.0
  0
LINE
  5
424
330
17
100
AcDbEntity
  8
Walls
100
AcDbLine
 10
15.08
 20
-13.17
 30
0.0
 11
15.08
 21
-11.63
 31
0.0
  0
LINE
  5
425
330
17
100
AcDbEntity
  8
Walls
100
AcDbLine
 10
14.72
 20
-13.040000000000001
 30
0.0
 11
14.74
 21
-11.46
 31
0.0
  0
LINE
  5
426
330
17
100
AcDbEntity
  8
Walls
100
AcDbLine
 10
15.08
 20
-13.17
 30
0.0
 11
15.08
 21
-11.63
 31
0.0
  0
LINE
  5
427
330
17
100
AcDbEntity
  8
Walls
100
AcDbLine
 10
15.09
 20
-12.76
 30
0.0
 11
15.09
 21
-11.63
 31
0.0
  0
LINE
  5
428
330
17
100
AcDbEntity
  8
Walls
100
AcDbLine
 10
18.66
 20
-8.77
 30
0.0
 11
18.68
 21
-7.44
 31
0.0
  0
LINE
  5
429
330
17
100
AcDbEntity
  8
Walls
100
AcDbLine
 10
18.7
 20
-8.01
 30
0.0
 11
18.71
 21
-7.09
 31
0.0
  0
LINE
  5
42A
330
17
100
AcDbEntity
  8
Walls
100
AcDbLine
 10
4.38
 20
-7.3
 30
0.0
 11
4.43
 21
-5.72
 31
0.0
  0
LINE
  5
42B
330
17
100
AcDbEntity
  8
Walls
100
AcDbLine
 10
4.08
 20
-5.94
 30
0.0
 11
4.11
 21
-6.91
 31
0.0
  0
LINE
  5
42C
330
17
100
AcDbEntity
  8
Walls
100
AcDbLine
 10
14.84
 20
-17.71
 30
0.0
 11
14.84
 21
-16.56
 31
0.0
  0
LINE
  5
42D
330
17
100
AcDbEntity
  8
Walls
100
AcDbLine
 10
14.83
 20
-17.95
 30
0.0
 11
14.83
 21
-15.64
 31
0.0
  0
LINE
  5
42E
330
17
100
AcDbEntity
  8
Walls
100
AcDbLine
 10
12.34
 20
-7.0600000000000005
 30
0.0
 11
12.35
 21
-6.11
 31
0.0
  0
LINE
  5
42F
330
17
100
AcDbEntity
  8
Walls
100
AcDbLine
 10
12.66
 20
-7.0200000000000005
 30
0.0
 11
12.68
 21
-5.63
 31
0.0
  0
LINE
  5
430
330
17
100
AcDbEntity
  8
Walls
100
AcDbLine
 10
18.95
 20
-13.74
 30
0.0
 11
18.95
 21
-12.17
 31
0.0
  0
LINE
  5
431
330
17
100
AcDbEntity
  8
Walls
100
AcDbLine
 10
18.6
 20
-13.43
 30
0.0
 11
18.6
 21
-12.38
 31
0.0
  0
LINE
  5
432
330
17
100
AcDbEntity
  8
Walls
100
AcDbLine
 10
10.77
 20
-17.95
 30
0.0
 11
10.790000000000001
 21
-16.42
 31
0.0
  0
LINE
  5
433
330
17
100
AcDbEntity
  8
Walls
100
AcDbLine
 10
10.4
 20
-17.95
 30
0.0
 11
10.4
 21
-17.04
 31
0.0
  0
LINE
  5
434
330
17
100
AcDbEntity
  8
Walls
100
AcDbLine
 10
14.72
 20
-13.040000000000001
 30
0.0
 11
14.74
 21
-11.46
 31
0.0
  0
LINE
  5
435
330
17
100
AcDbEntity
  8
Walls
100
AcDbLine
 10
15.09
 20
-12.76
 30
0.0
 11
15.09
 21
-11.63
 31
0.0
  0
LINE
  5
436
330
17
100
AcDbEntity
  8
Walls
100
AcDbLine
 10
27.23
 20
-5.57
 30
0.0
 11
27.26
 21
-7.32
 31
0.0
  0
LINE
  5
437
330
17
100
AcDbEntity
  8
Walls
100
AcDbLine
 10
27.22
 20
-5.57
 30
0.0
 11
27.26
 21
-7.97
 31
0.0
  0
LINE
  5
438
330
17
100
AcDbEntity
  8
Walls
100
AcDbLine
 10
4.49
 20
-9.91
 30
0.0
 11
4.5
 21
-8.94
 31
0.0
  0
LINE
  5
439
330
17
100
AcDbEntity
  8
Walls
100
AcDbLine
 10
4.15
 20
-10.1
 30
0.0
 11
4.15
 21
-9.23
 31
0.0
  0
LINE
  5
43A
330
17
100
AcDbEntity
  8
Walls
100
AcDbLine
 10
25.34
 20
-8.77
 30
0.0
 11
25.34
 21
-7.26
 31
0.0
  0
LINE
  5
43B
330
17
100
AcDbEntity
  8
Walls
100
AcDbLine
 10
25.02
 20
-7.76
 30
0.0
 11
25.03
 21
-8.75
 31
0.0
  0
LINE
  5
43C
330
17
100
AcDbEntity
  8
Walls
100
AcDbLine
 10
19.0
 20
-7.92
 30
0.0
 11
19.01
 21
-7.1000000000000005
 31
0.0
  0
LINE
  5
43D
330
17
100
AcDbEntity
  8
Walls
100
AcDbLine
 10
18.7
 20
-8.01
 30
0.0
 11
18.71
 21
-7.09
 31
0.0
  0
ENDSEC
  0
SECTION
  2
OBJECTS
  0
DICTIONARY
  5
A
330
0
100
AcDbDictionary
281
1
  3
ACAD_COLOR
350
B
  3
ACAD_GROUP
350
C
  3
ACAD_LAYOUT
350
D
  3
ACAD_MATERIAL
350
E
  3
ACAD_MLEADERSTYLE
350
F
  3
ACAD_MLINESTYLE
350
10
  3
ACAD_PLOTSETTINGS
350
11
  3
ACAD_PLOTSTYLENAME
350
12
  3
ACAD_SCALELIST
350
14
  3
ACAD_TABLESTYLE
350
15
  3
ACAD_VISUALSTYLE
350
16
  3
EZDXF_META
350
2D
  0
DICTIONARY
  5
B
330
A
100
AcDbDictionary
281
1
  0
DICTIONARY
  5
C
330
A
100
AcDbDictionary
281
1
  0
DICTIONARY
  5
D
330
A
100
AcDbDictionary
281
1
  3
Model
350
1A
  3
Layout1
350
1E
  0
DICTIONARY
  5
E
330
A
100
AcDbDictionary
281
1
  3
ByBlock
350
1F
  3
ByLayer
350
20
  3
Global
350
21
  0
DICTIONARY
  5
F
330
A
100
AcDbDictionary
281
1
  3
Standard
350
2C
  0
DICTIONARY
  5
10
330
A
100
AcDbDictionary
281
1
  3
Standard
350
22
  0
DICTIONARY
  5
11
330
A
100
AcDbDictionary
281
1
  0
ACDBDICTIONARYWDFLT
  5
12
330
A
100
AcDbDictionary
281
1
  3
Normal
350
13
100
AcDbDictionaryWithDefault
340
13
  0
ACDBPLACEHOLDER
  5
13
330
12
  0
DICTIONARY
  5
14
330
A
100
AcDbDictionary
281
1
  0
DICTIONARY
  5
15
330
A
100
AcDbDictionary
281
1
  0
DICTIONARY
  5
16
330
A
100
AcDbDictionary
281
1
  0
LAYOUT
  5
1A
330
D
100
AcDbPlotSettings
  1

  4
A3
  6

 40
7.5
 41
20.0
 42
7.5
 43
20.0
 44
420.0
 45
297.0
 46
0.0
 47
0.0
 48
0.0
 49
0.0
140
0.0
141
0.0
142
1.0
143
1.0
 70
1024
 72
1
 73
0
 74
5
  7

 75
16
 76
0
 77
2
 78
300
147
1.0
148
0.0
149
0.0
100
AcDbLayout
  1
Model
 70
1
 71
0
 10
0.0
 20
0.0
 11
420.0
 21
297.0
 12
0.0
 22
0.0
 32
0.0
 14
1e+20
 24
1e+20
 34
1e+20
 15
-1e+20
 25
-1e+20
 35
-1e+20
146
0.0
 13
0.0
 23
0.0
 33
0.0
 16
1.0
 26
0.0
 36
0.0
 17
0.0
 27
1.0
 37
0.0
 76
1
330
17
  0
LAYOUT
  5
1E
330
D
100
AcDbPlotSettings
  1

  4
A3
  6

 40
7.5
 41
20.0
 42
7.5
 43
20.0
 44
420.0
 45
297.0
 46
0.0
 47
0.0
 48
0.0
 49
0.0
140
0.0
141
0.0
142
1.0
143
1.0
 70
0
 72
1
 73
0
 74
5
  7

 75
16
 76
0
 77
2
 78
300
147
1.0
148
0.0
149
0.0
100
AcDbLayout
  1
Layout1
 70
1
 71
1
 10
0.0
 20
0.0
 11
420.0
 21
297.0
 12
0.0
 22
0.0
 32
0.0
 14
1e+20
 24
1e+20
 34
1e+20
 15
-1e+20
 25
-1e+20
 35
-1e+20
146
0.0
 13
0.0
 23
0.0
 33
0.0
 16
1.0
 26
0.0
 36
0.0
 17
0.0
 27
1.0
 37
0.0
 76
1
330
1B
  0
MATERIAL
  5
1F
102
{ACAD_REACTORS
330
E
102
}
330
E
100
AcDbMaterial
  1
ByBlock
  2

 70
0
 40
1.0
 71
1
 41
1.0
 91
-1023410177
 42
1.0
 72
1
  3

 73
1
 74
1
 75
1
 44
0.5
 73
0
 45
1.0
 46
1.0
 77
1
  4

 78
1
 79
1
170
1
 48
1.0
171
1
  6

172
1
173
1
174
1
140
1.0
141
1.0
175
1
  7

176
1
177
1
178
1
143
1.0
179
1
  8

270
1
271
1
272
1
145
1.0
146
1.0
273
1
  9

274
1
275
1
276
1
 42
1.0
 72
1
  3

 73
1
 74
1
 75
1
 94
63
  0
MATERIAL
  5
20
102
{ACAD_REACTORS
330
E
102
}
330
E
100
AcDbMaterial
  1
ByLayer
  2

 70
0
 40
1.0
 71
1
 41
1.0
 91
-1023410177
 42
1.0
 72
1
  3

 73
1
 74
1
 75
1
 44
0.5
 73
0
 45
1.0
 46
1.0
 77
1
  4

 78
1
 79
1
170
1
 48
1.0
171
1
  6

172
1
173
1
174
1
140
1.0
141
1.0
175
1
  7

176
1
177
1
178
1
143
1.0
179
1
  8

270
1
271
1
272
1
145
1.0
146
1.0
273
1
  9

274
1
275
1
276
1
 42
1.0
 72
1
  3

 73
1
 74
1
 75
1
 94
63
  0
MATERIAL
  5
21
102
{ACAD_REACTORS
330
E
102
}
330
E
100
AcDbMaterial
  1
Global
  2

 70
0
 40
1.0
 71
1
 41
1.0
 91
-1023410177
 42
1.0
 72
1
  3

 73
1
 74
1
 75
1
 44
0.5
 73
0
 45
1.0
 46
1.0
 77
1
  4

 78
1
 79
1
170
1
 48
1.0
171
1
  6

172
1
173
1
174
1
140
1.0
141
1.0
175
1
  7

176
1
177
1
178
1
143
1.0
179
1
  8

270
1
271
1
272
1
145
1.0
146
1.0
273
1
  9

274
1
275
1
276
1
 42
1.0
 72
1
  3

 73
1
 74
1
 75
1
 94
63
  0
MLINESTYLE
  5
22
102
{ACAD_REACTORS
330
10
102
}
330
10
100
AcDbMlineStyle
  2
Standard
 70
0
  3

 62
256
 51
90.0
 52
90.0
 71
2
 49
0.5
 62
256
  6
BYLAYER
 49
-0.5
 62
256
  6
BYLAYER
  0
MLEADERSTYLE
  5
2C
102
{ACAD_REACTORS
330
F
102
}
330
F
100
AcDbMLeaderStyle
179
2
170
2
171
1
172
0
 90
2
 40
0.0
 41
0.0
173
1
 91
-1056964608
 92
-2
290
1
 42
2.0
291
1
 43
8.0
  3
Standard
 44
4.0
300

342
29
174
1
175
1
176
0
178
1
 93
-1056964608
 45
4.0
292
0
297
0
 46
4.0
 94
-1056964608
 47
1.0
 49
1.0
140
1.0
294
1
141
0.0
177
0
142
1.0
295
0
296
0
143
3.75
271
0
272
9
273
9
  0
DICTIONARY
  5
2D
330
A
100
AcDbDictionary
280
1
281
1
  3
CREATED_BY_EZDXF
350
2E
  3
WRITTEN_BY_EZDXF
350
440
  0
DICTIONARYVAR
  5
2E
330
2D
100
DictionaryVariables
280
0
  1
1.4.2 @ 2025-06-12T06:08:50.969996+00:00
  0
DICTIONARYVAR
  5
440
330
2D
100
DictionaryVariables
280
0
  1
1.4.2 @ 2025-06-12T06:08:50.985365+00:00
  0
ENDSEC
  0
EOF
