  0
SECTION
  2
HEADER
  9
$ACADVER
  1
AC1024
  9
$ACADMAINTVER
 70
6
  9
$DWGCODEPAGE
  3
ANSI_1252
  9
$LASTSAVEDBY
  1
ezdxf
  9
$INSBASE
 10
0.0
 20
0.0
 30
0.0
  9
$EXTMIN
 10
1e+20
 20
1e+20
 30
1e+20
  9
$EXTMAX
 10
-1e+20
 20
-1e+20
 30
-1e+20
  9
$LIMMIN
 10
0.0
 20
0.0
  9
$LIMMAX
 10
420.0
 20
297.0
  9
$ORTHOMODE
 70
0
  9
$REGENMODE
 70
1
  9
$FILLMODE
 70
1
  9
$QTEXTMODE
 70
0
  9
$MIRRTEXT
 70
1
  9
$LTSCALE
 40
1.0
  9
$ATTMODE
 70
1
  9
$TEXTSIZE
 40
2.5
  9
$TRACEWID
 40
1.0
  9
$TEXTSTYLE
  7
Standard
  9
$CLAYER
  8
0
  9
$CELTYPE
  6
ByLayer
  9
$CECOLOR
 62
256
  9
$CELTSCALE
 40
1.0
  9
$DISPSILH
 70
0
  9
$DIMSCALE
 40
1.0
  9
$DIMASZ
 40
2.5
  9
$DIMEXO
 40
0.625
  9
$DIMDLI
 40
3.75
  9
$DIMRND
 40
0.0
  9
$DIMDLE
 40
0.0
  9
$DIMEXE
 40
1.25
  9
$DIMTP
 40
0.0
  9
$DIMTM
 40
0.0
  9
$DIMTXT
 40
2.5
  9
$DIMCEN
 40
2.5
  9
$DIMTSZ
 40
0.0
  9
$DIMTOL
 70
0
  9
$DIMLIM
 70
0
  9
$DIMTIH
 70
0
  9
$DIMTOH
 70
0
  9
$DIMSE1
 70
0
  9
$DIMSE2
 70
0
  9
$DIMTAD
 70
1
  9
$DIMZIN
 70
8
  9
$DIMBLK
  1

  9
$DIMASO
 70
1
  9
$DIMSHO
 70
1
  9
$DIMPOST
  1

  9
$DIMAPOST
  1

  9
$DIMALT
 70
0
  9
$DIMALTD
 70
3
  9
$DIMALTF
 40
0.03937007874
  9
$DIMLFAC
 40
1.0
  9
$DIMTOFL
 70
1
  9
$DIMTVP
 40
0.0
  9
$DIMTIX
 70
0
  9
$DIMSOXD
 70
0
  9
$DIMSAH
 70
0
  9
$DIMBLK1
  1

  9
$DIMBLK2
  1

  9
$DIMSTYLE
  2
ISO-25
  9
$DIMCLRD
 70
0
  9
$DIMCLRE
 70
0
  9
$DIMCLRT
 70
0
  9
$DIMTFAC
 40
1.0
  9
$DIMGAP
 40
0.625
  9
$DIMJUST
 70
0
  9
$DIMSD1
 70
0
  9
$DIMSD2
 70
0
  9
$DIMTOLJ
 70
0
  9
$DIMTZIN
 70
8
  9
$DIMALTZ
 70
0
  9
$DIMALTTZ
 70
0
  9
$DIMUPT
 70
0
  9
$DIMDEC
 70
2
  9
$DIMTDEC
 70
2
  9
$DIMALTU
 70
2
  9
$DIMALTTD
 70
3
  9
$DIMTXSTY
  7
Standard
  9
$DIMAUNIT
 70
0
  9
$DIMADEC
 70
0
  9
$DIMALTRND
 40
0.0
  9
$DIMAZIN
 70
0
  9
$DIMDSEP
 70
44
  9
$DIMATFIT
 70
3
  9
$DIMFRAC
 70
0
  9
$DIMLDRBLK
  1

  9
$DIMLUNIT
 70
2
  9
$DIMLWD
 70
-2
  9
$DIMLWE
 70
-2
  9
$DIMTMOVE
 70
0
  9
$DIMFXL
 40
1.0
  9
$DIMFXLON
 70
0
  9
$DIMJOGANG
 40
0.785398163397
  9
$DIMTFILL
 70
0
  9
$DIMTFILLCLR
 70
0
  9
$DIMARCSYM
 70
0
  9
$DIMLTYPE
  6

  9
$DIMLTEX1
  6

  9
$DIMLTEX2
  6

  9
$DIMTXTDIRECTION
 70
0
  9
$LUNITS
 70
2
  9
$LUPREC
 70
4
  9
$SKETCHINC
 40
1.0
  9
$FILLETRAD
 40
10.0
  9
$AUNITS
 70
0
  9
$AUPREC
 70
2
  9
$MENU
  1
.
  9
$ELEVATION
 40
0.0
  9
$PELEVATION
 40
0.0
  9
$THICKNESS
 40
0.0
  9
$LIMCHECK
 70
0
  9
$CHAMFERA
 40
0.0
  9
$CHAMFERB
 40
0.0
  9
$CHAMFERC
 40
0.0
  9
$CHAMFERD
 40
0.0
  9
$SKPOLY
 70
0
  9
$TDCREATE
 40
2460839.4768171296
  9
$TDUCREATE
 40
2458532.153996898
  9
$TDUPDATE
 40
2460839.4768171296
  9
$TDUUPDATE
 40
2458532.1544311
  9
$TDINDWG
 40
0.0
  9
$TDUSRTIMER
 40
0.0
  9
$USRTIMER
 70
1
  9
$ANGBASE
 50
0.0
  9
$ANGDIR
 70
0
  9
$PDMODE
 70
0
  9
$PDSIZE
 40
0.0
  9
$PLINEWID
 40
0.0
  9
$SPLFRAME
 70
0
  9
$SPLINETYPE
 70
6
  9
$SPLINESEGS
 70
8
  9
$HANDSEED
  5
110
  9
$SURFTAB1
 70
6
  9
$SURFTAB2
 70
6
  9
$SURFTYPE
 70
6
  9
$SURFU
 70
6
  9
$SURFV
 70
6
  9
$UCSBASE
  2

  9
$UCSNAME
  2

  9
$UCSORG
 10
0.0
 20
0.0
 30
0.0
  9
$UCSXDIR
 10
1.0
 20
0.0
 30
0.0
  9
$UCSYDIR
 10
0.0
 20
1.0
 30
0.0
  9
$UCSORTHOREF
  2

  9
$UCSORTHOVIEW
 70
0
  9
$UCSORGTOP
 10
0.0
 20
0.0
 30
0.0
  9
$UCSORGBOTTOM
 10
0.0
 20
0.0
 30
0.0
  9
$UCSORGLEFT
 10
0.0
 20
0.0
 30
0.0
  9
$UCSORGRIGHT
 10
0.0
 20
0.0
 30
0.0
  9
$UCSORGFRONT
 10
0.0
 20
0.0
 30
0.0
  9
$UCSORGBACK
 10
0.0
 20
0.0
 30
0.0
  9
$PUCSBASE
  2

  9
$PUCSNAME
  2

  9
$PUCSORG
 10
0.0
 20
0.0
 30
0.0
  9
$PUCSXDIR
 10
1.0
 20
0.0
 30
0.0
  9
$PUCSYDIR
 10
0.0
 20
1.0
 30
0.0
  9
$PUCSORTHOREF
  2

  9
$PUCSORTHOVIEW
 70
0
  9
$PUCSORGTOP
 10
0.0
 20
0.0
 30
0.0
  9
$PUCSORGBOTTOM
 10
0.0
 20
0.0
 30
0.0
  9
$PUCSORGLEFT
 10
0.0
 20
0.0
 30
0.0
  9
$PUCSORGRIGHT
 10
0.0
 20
0.0
 30
0.0
  9
$PUCSORGFRONT
 10
0.0
 20
0.0
 30
0.0
  9
$PUCSORGBACK
 10
0.0
 20
0.0
 30
0.0
  9
$USERI1
 70
0
  9
$USERI2
 70
0
  9
$USERI3
 70
0
  9
$USERI4
 70
0
  9
$USERI5
 70
0
  9
$USERR1
 40
0.0
  9
$USERR2
 40
0.0
  9
$USERR3
 40
0.0
  9
$USERR4
 40
0.0
  9
$USERR5
 40
0.0
  9
$WORLDVIEW
 70
1
  9
$SHADEDGE
 70
3
  9
$SHADEDIF
 70
70
  9
$TILEMODE
 70
1
  9
$MAXACTVP
 70
64
  9
$PINSBASE
 10
0.0
 20
0.0
 30
0.0
  9
$PLIMCHECK
 70
0
  9
$PEXTMIN
 10
1e+20
 20
1e+20
 30
1e+20
  9
$PEXTMAX
 10
-1e+20
 20
-1e+20
 30
-1e+20
  9
$PLIMMIN
 10
0.0
 20
0.0
  9
$PLIMMAX
 10
420.0
 20
297.0
  9
$UNITMODE
 70
0
  9
$VISRETAIN
 70
1
  9
$PLINEGEN
 70
0
  9
$PSLTSCALE
 70
1
  9
$TREEDEPTH
 70
3020
  9
$CMLSTYLE
  2
Standard
  9
$CMLJUST
 70
0
  9
$CMLSCALE
 40
20.0
  9
$PROXYGRAPHICS
 70
1
  9
$MEASUREMENT
 70
1
  9
$CELWEIGHT
370
-1
  9
$ENDCAPS
280
0
  9
$JOINSTYLE
280
0
  9
$LWDISPLAY
290
0
  9
$INSUNITS
 70
6
  9
$HYPERLINKBASE
  1

  9
$STYLESHEET
  1

  9
$XEDIT
290
1
  9
$CEPSNTYPE
380
0
  9
$PSTYLEMODE
290
1
  9
$FINGERPRINTGUID
  2
{76019C69-8E33-4DBD-8F95-EDB6346D445A}
  9
$VERSIONGUID
  2
{26E4D1B3-4757-4C2D-8CA3-9BB535D8D6DF}
  9
$EXTNAMES
290
1
  9
$PSVPSCALE
 40
0.0
  9
$OLESTARTUP
290
0
  9
$SORTENTS
280
127
  9
$INDEXCTL
280
0
  9
$HIDETEXT
280
1
  9
$XCLIPFRAME
280
1
  9
$HALOGAP
280
0
  9
$OBSCOLOR
 70
257
  9
$OBSLTYPE
280
0
  9
$INTERSECTIONDISPLAY
280
0
  9
$INTERSECTIONCOLOR
 70
257
  9
$DIMASSOC
280
2
  9
$PROJECTNAME
  1

  9
$CAMERADISPLAY
290
0
  9
$LENSLENGTH
 40
50.0
  9
$CAMERAHEIGHT
 40
0.0
  9
$STEPSPERSEC
 40
24.0
  9
$STEPSIZE
 40
100.0
  9
$3DDWFPREC
 40
2.0
  9
$PSOLWIDTH
 40
0.005
  9
$PSOLHEIGHT
 40
0.08
  9
$LOFTANG1
 40
1.570796326795
  9
$LOFTANG2
 40
1.570796326795
  9
$LOFTMAG1
 40
0.0
  9
$LOFTMAG2
 40
0.0
  9
$LOFTPARAM
 70
7
  9
$LOFTNORMALS
280
1
  9
$LATITUDE
 40
37.795
  9
$LONGITUDE
 40
-122.394
  9
$NORTHDIRECTION
 40
0.0
  9
$TIMEZONE
 70
-8000
  9
$LIGHTGLYPHDISPLAY
280
1
  9
$TILEMODELIGHTSYNCH
280
1
  9
$CMATERIAL
347
20
  9
$SOLIDHIST
280
0
  9
$SHOWHIST
280
1
  9
$DWFFRAME
280
2
  9
$DGNFRAME
280
2
  9
$REALWORLDSCALE
290
1
  9
$INTERFERECOLOR
 62
256
  9
$CSHADOW
280
0
  9
$SHADOWPLANELOCATION
 40
0.0
  0
ENDSEC
  0
SECTION
  2
CLASSES
  0
CLASS
  1
ACDBDICTIONARYWDFLT
  2
AcDbDictionaryWithDefault
  3
ObjectDBX Classes
 90
0
 91
0
280
0
281
0
  0
CLASS
  1
SUN
  2
AcDbSun
  3
SCENEOE
 90
1153
 91
0
280
0
281
0
  0
CLASS
  1
VISUALSTYLE
  2
AcDbVisualStyle
  3
ObjectDBX Classes
 90
4095
 91
0
280
0
281
0
  0
CLASS
  1
MATERIAL
  2
AcDbMaterial
  3
ObjectDBX Classes
 90
1153
 91
0
280
0
281
0
  0
CLASS
  1
SCALE
  2
AcDbScale
  3
ObjectDBX Classes
 90
1153
 91
0
280
0
281
0
  0
CLASS
  1
TABLESTYLE
  2
AcDbTableStyle
  3
ObjectDBX Classes
 90
4095
 91
0
280
0
281
0
  0
CLASS
  1
MLEADERSTYLE
  2
AcDbMLeaderStyle
  3
ACDB_MLEADERSTYLE_CLASS
 90
4095
 91
0
280
0
281
0
  0
CLASS
  1
DICTIONARYVAR
  2
AcDbDictionaryVar
  3
ObjectDBX Classes
 90
0
 91
0
280
0
281
0
  0
CLASS
  1
CELLSTYLEMAP
  2
AcDbCellStyleMap
  3
ObjectDBX Classes
 90
1152
 91
0
280
0
281
0
  0
CLASS
  1
MENTALRAYRENDERSETTINGS
  2
AcDbMentalRayRenderSettings
  3
SCENEOE
 90
1024
 91
0
280
0
281
0
  0
CLASS
  1
ACDBDETAILVIEWSTYLE
  2
AcDbDetailViewStyle
  3
ObjectDBX Classes
 90
1025
 91
0
280
0
281
0
  0
CLASS
  1
ACDBSECTIONVIEWSTYLE
  2
AcDbSectionViewStyle
  3
ObjectDBX Classes
 90
1025
 91
0
280
0
281
0
  0
CLASS
  1
RASTERVARIABLES
  2
AcDbRasterVariables
  3
ISM
 90
0
 91
0
280
0
281
0
  0
CLASS
  1
LAYOUT
  2
AcDbLayout
  3
ObjectDBX Classes
 90
0
 91
0
280
0
281
0
  0
CLASS
  1
ACDBPLACEHOLDER
  2
AcDbPlaceHolder
  3
ObjectDBX Classes
 90
0
 91
0
280
0
281
0
  0
ENDSEC
  0
SECTION
  2
TABLES
  0
TABLE
  2
VPORT
  5
8
330
0
100
AcDbSymbolTable
 70
1
  0
VPORT
  5
23
330
8
100
AcDbSymbolTableRecord
100
AcDbViewportTableRecord
  2
*Active
 70
0
 10
0.0
 20
0.0
 11
1.0
 21
1.0
 12
0.0
 22
0.0
 13
0.0
 23
0.0
 14
0.5
 24
0.5
 15
0.5
 25
0.5
 16
0.0
 26
0.0
 36
1.0
 17
0.0
 27
0.0
 37
0.0
 40
1000.0
 41
1.34
 42
50.0
 43
0.0
 44
0.0
 50
0.0
 51
0.0
 71
0
 72
1000
 73
1
 74
3
 75
0
 76
0
 77
0
 78
0
281
0
 65
0
146
0.0
  0
ENDTAB
  0
TABLE
  2
LTYPE
  5
2
330
0
100
AcDbSymbolTable
 70
3
  0
LTYPE
  5
24
330
2
100
AcDbSymbolTableRecord
100
AcDbLinetypeTableRecord
  2
ByBlock
 70
0
  3

 72
65
 73
0
 40
0.0
  0
LTYPE
  5
25
330
2
100
AcDbSymbolTableRecord
100
AcDbLinetypeTableRecord
  2
ByLayer
 70
0
  3

 72
65
 73
0
 40
0.0
  0
LTYPE
  5
26
330
2
100
AcDbSymbolTableRecord
100
AcDbLinetypeTableRecord
  2
Continuous
 70
0
  3

 72
65
 73
0
 40
0.0
  0
ENDTAB
  0
TABLE
  2
LAYER
  5
1
330
0
100
AcDbSymbolTable
 70
8
  0
LAYER
  5
27
330
1
100
AcDbSymbolTableRecord
100
AcDbLayerTableRecord
  2
0
 70
0
 62
7
  6
Continuous
370
-3
390
13
347
21
  0
LAYER
  5
28
330
1
100
AcDbSymbolTableRecord
100
AcDbLayerTableRecord
  2
Defpoints
 70
0
 62
7
  6
Continuous
290
0
370
-3
390
13
347
21
  0
LAYER
  5
2F
330
1
100
AcDbSymbolTableRecord
100
AcDbLayerTableRecord
  2
Lines
 70
0
 62
7
  6
Continuous
370
-3
390
13
347
21
  0
LAYER
  5
30
330
1
100
AcDbSymbolTableRecord
100
AcDbLayerTableRecord
  2
Circles
 70
0
 62
1
  6
Continuous
370
-3
390
13
347
21
  0
LAYER
  5
31
330
1
100
AcDbSymbolTableRecord
100
AcDbLayerTableRecord
  2
Rectangles
 70
0
 62
5
  6
Continuous
370
-3
390
13
347
21
  0
LAYER
  5
32
330
1
100
AcDbSymbolTableRecord
100
AcDbLayerTableRecord
  2
Walls
 70
0
 62
2
  6
Continuous
370
-3
390
13
347
21
  0
LAYER
  5
33
330
1
100
AcDbSymbolTableRecord
100
AcDbLayerTableRecord
  2
Doors
 70
0
 62
3
  6
Continuous
370
-3
390
13
347
21
  0
LAYER
  5
34
330
1
100
AcDbSymbolTableRecord
100
AcDbLayerTableRecord
  2
Windows
 70
0
 62
4
  6
Continuous
370
-3
390
13
347
21
  0
ENDTAB
  0
TABLE
  2
STYLE
  5
5
330
0
100
AcDbSymbolTable
 70
1
  0
STYLE
  5
29
330
5
100
AcDbSymbolTableRecord
100
AcDbTextStyleTableRecord
  2
Standard
 70
0
 40
0.0
 41
1.0
 50
0.0
 71
0
 42
2.5
  3
txt
  4

  0
ENDTAB
  0
TABLE
  2
VIEW
  5
7
330
0
100
AcDbSymbolTable
 70
0
  0
ENDTAB
  0
TABLE
  2
UCS
  5
6
330
0
100
AcDbSymbolTable
 70
0
  0
ENDTAB
  0
TABLE
  2
APPID
  5
3
330
0
100
AcDbSymbolTable
 70
3
  0
APPID
  5
2A
330
3
100
AcDbSymbolTableRecord
100
AcDbRegAppTableRecord
  2
ACAD
 70
0
  0
APPID
  5
10D
330
3
100
AcDbSymbolTableRecord
100
AcDbRegAppTableRecord
  2
HATCHBACKGROUNDCOLOR
 70
0
  0
APPID
  5
10E
330
3
100
AcDbSymbolTableRecord
100
AcDbRegAppTableRecord
  2
EZDXF
 70
0
  0
ENDTAB
  0
TABLE
  2
DIMSTYLE
  5
4
330
0
100
AcDbSymbolTable
 70
1
100
AcDbDimStyleTable
  0
DIMSTYLE
105
2B
330
4
100
AcDbSymbolTableRecord
100
AcDbDimStyleTableRecord
  2
Standard
 70
0
 40
1.0
 41
2.5
 42
0.625
 43
3.75
 44
1.25
 45
0.0
 46
0.0
 47
0.0
 48
0.0
 49
2.5
140
2.5
141
2.5
142
0.0
143
0.03937007874
144
1.0
145
0.0
146
1.0
147
0.625
148
0.0
 69
0
 70
0
 71
0
 72
0
 73
0
 74
0
 75
0
 76
0
 77
1
 78
8
 79
3
170
0
171
3
172
1
173
0
174
0
175
0
176
0
177
0
178
0
179
2
271
2
272
2
273
2
274
3
275
0
276
0
277
2
278
44
279
0
280
0
281
0
282
0
283
0
284
8
285
0
286
0
288
0
289
3
290
0
371
-2
372
-2
  0
ENDTAB
  0
TABLE
  2
BLOCK_RECORD
  5
9
330
0
100
AcDbSymbolTable
 70
2
  0
BLOCK_RECORD
  5
17
330
9
100
AcDbSymbolTableRecord
100
AcDbBlockTableRecord
  2
*Model_Space
340
1A
 70
0
280
1
281
0
  0
BLOCK_RECORD
  5
1B
330
9
100
AcDbSymbolTableRecord
100
AcDbBlockTableRecord
  2
*Paper_Space
340
1E
 70
0
280
1
281
0
  0
ENDTAB
  0
ENDSEC
  0
SECTION
  2
BLOCKS
  0
BLOCK
  5
18
330
17
100
AcDbEntity
  8
0
100
AcDbBlockBegin
  2
*Model_Space
 70
0
 10
0.0
 20
0.0
 30
0.0
  3
*Model_Space
  1

  0
ENDBLK
  5
19
330
17
100
AcDbEntity
  8
0
100
AcDbBlockEnd
  0
BLOCK
  5
1C
330
1B
100
AcDbEntity
  8
0
100
AcDbBlockBegin
  2
*Paper_Space
 70
0
 10
0.0
 20
0.0
 30
0.0
  3
*Paper_Space
  1

  0
ENDBLK
  5
1D
330
1B
100
AcDbEntity
  8
0
100
AcDbBlockEnd
  0
ENDSEC
  0
SECTION
  2
ENTITIES
  0
LINE
  5
35
330
17
100
AcDbEntity
  8
Lines
100
AcDbLine
 10
4.45
 20
-13.77
 30
0.0
 11
23.6
 21
-13.77
 31
0.0
  0
LINE
  5
36
330
17
100
AcDbEntity
  8
Lines
100
AcDbLine
 10
32.5
 20
-5.55
 30
0.0
 11
33.18
 21
-5.55
 31
0.0
  0
LINE
  5
37
330
17
100
AcDbEntity
  8
Lines
100
AcDbLine
 10
4.29
 20
-17.900000000000002
 30
0.0
 11
24.060000000000002
 21
-17.900000000000002
 31
0.0
  0
LINE
  5
38
330
17
100
AcDbEntity
  8
Lines
100
AcDbLine
 10
23.79
 20
-8.82
 30
0.0
 11
25.07
 21
-8.8
 31
0.0
  0
LINE
  5
39
330
17
100
AcDbEntity
  8
Lines
100
AcDbLine
 10
21.86
 20
-8.8
 30
0.0
 11
22.97
 21
-8.790000000000001
 31
0.0
  0
LINE
  5
3A
330
17
100
AcDbEntity
  8
Lines
100
AcDbLine
 10
3.94
 20
-14.66
 30
0.0
 11
10.43
 21
-14.68
 31
0.0
  0
LINE
  5
3B
330
17
100
AcDbEntity
  8
Lines
100
AcDbLine
 10
17.34
 20
-15.09
 30
0.0
 11
20.52
 21
-15.11
 31
0.0
  0
LINE
  5
3C
330
17
100
AcDbEntity
  8
Lines
100
AcDbLine
 10
12.58
 20
-11.450000000000001
 30
0.0
 11
14.790000000000001
 21
-11.450000000000001
 31
0.0
  0
LINE
  5
3D
330
17
100
AcDbEntity
  8
Lines
100
AcDbLine
 10
20.5
 20
-15.08
 30
0.0
 11
26.97
 21
-15.07
 31
0.0
  0
LINE
  5
3E
330
17
100
AcDbEntity
  8
Lines
100
AcDbLine
 10
17.34
 20
-14.67
 30
0.0
 11
23.59
 21
-14.8
 31
0.0
  0
LINE
  5
3F
330
17
100
AcDbEntity
  8
Lines
100
AcDbLine
 10
10.34
 20
-14.69
 30
0.0
 11
17.36
 21
-14.69
 31
0.0
  0
LINE
  5
40
330
17
100
AcDbEntity
  8
Lines
100
AcDbLine
 10
4.33
 20
-15.11
 30
0.0
 11
10.43
 21
-15.09
 31
0.0
  0
LINE
  5
41
330
17
100
AcDbEntity
  8
Lines
100
AcDbLine
 10
2.8000000000000003
 20
-5.5600000000000005
 30
0.0
 11
3.49
 21
-5.5600000000000005
 31
0.0
  0
LINE
  5
42
330
17
100
AcDbEntity
  8
Lines
100
AcDbLine
 10
24.400000000000002
 20
-19.39
 30
0.0
 11
32.13
 21
-19.37
 31
0.0
  0
LINE
  5
43
330
17
100
AcDbEntity
  8
Lines
100
AcDbLine
 10
17.03
 20
-19.22
 30
0.0
 11
24.080000000000002
 21
-19.22
 31
0.0
  0
LINE
  5
44
330
17
100
AcDbEntity
  8
Lines
100
AcDbLine
 10
24.04
 20
-19.73
 30
0.0
 11
32.5
 21
-19.73
 31
0.0
  0
LINE
  5
45
330
17
100
AcDbEntity
  8
Lines
100
AcDbLine
 10
12.57
 20
-8.8
 30
0.0
 11
14.700000000000001
 21
-8.78
 31
0.0
  0
LINE
  5
46
330
17
100
AcDbEntity
  8
Lines
100
AcDbLine
 10
26.87
 20
-12.01
 30
0.0
 11
32.01
 21
-11.99
 31
0.0
  0
LINE
  5
47
330
17
100
AcDbEntity
  8
Lines
100
AcDbLine
 10
27.21
 20
-8.71
 30
0.0
 11
31.93
 21
-8.73
 31
0.0
  0
LINE
  5
48
330
17
100
AcDbEntity
  8
Lines
100
AcDbLine
 10
26.87
 20
-11.59
 30
0.0
 11
32.01
 21
-11.620000000000001
 31
0.0
  0
LINE
  5
49
330
17
100
AcDbEntity
  8
Lines
100
AcDbLine
 10
27.330000000000002
 20
-17.87
 30
0.0
 11
32.09
 21
-17.85
 31
0.0
  0
LINE
  5
4A
330
17
100
AcDbEntity
  8
Lines
100
AcDbLine
 10
15.08
 20
-8.790000000000001
 30
0.0
 11
16.62
 21
-8.790000000000001
 31
0.0
  0
LINE
  5
4B
330
17
100
AcDbEntity
  8
Lines
100
AcDbLine
 10
29.55
 20
-8.35
 30
0.0
 11
31.93
 21
-8.38
 31
0.0
  0
LINE
  5
4C
330
17
100
AcDbEntity
  8
Lines
100
AcDbLine
 10
4.92
 20
-9.69
 30
0.0
 11
5.69
 21
-9.71
 31
0.0
  0
LINE
  5
4D
330
17
100
AcDbEntity
  8
Lines
100
AcDbLine
 10
26.07
 20
-11.47
 30
0.0
 11
26.79
 21
-11.49
 31
0.0
  0
LINE
  5
4E
330
17
100
AcDbEntity
  8
Lines
100
AcDbLine
 10
27.21
 20
-8.700000000000001
 30
0.0
 11
29.67
 21
-8.700000000000001
 31
0.0
  0
LINE
  5
4F
330
17
100
AcDbEntity
  8
Lines
100
AcDbLine
 10
6.34
 20
-8.8
 30
0.0
 11
7.12
 21
-8.790000000000001
 31
0.0
  0
LINE
  5
50
330
17
100
AcDbEntity
  8
Lines
100
AcDbLine
 10
15.08
 20
-11.450000000000001
 30
0.0
 11
16.44
 21
-11.43
 31
0.0
  0
LINE
  5
51
330
17
100
AcDbEntity
  8
Lines
100
AcDbLine
 10
6.3
 20
-11.46
 30
0.0
 11
8.39
 21
-11.46
 31
0.0
  0
LINE
  5
52
330
17
100
AcDbEntity
  8
Lines
100
AcDbLine
 10
2.83
 20
-11.49
 30
0.0
 11
3.84
 21
-11.49
 31
0.0
  0
LINE
  5
53
330
17
100
AcDbEntity
  8
Lines
100
AcDbLine
 10
8.83
 20
-8.790000000000001
 30
0.0
 11
9.870000000000001
 21
-8.81
 31
0.0
  0
LINE
  5
54
330
17
100
AcDbEntity
  8
Lines
100
AcDbLine
 10
14.790000000000001
 20
-16.48
 30
0.0
 11
17.080000000000002
 21
-16.48
 31
0.0
  0
LINE
  5
55
330
17
100
AcDbEntity
  8
Lines
100
AcDbLine
 10
2.86
 20
-8.9
 30
0.0
 11
3.71
 21
-8.89
 31
0.0
  0
LINE
  5
56
330
17
100
AcDbEntity
  8
Lines
100
AcDbLine
 10
29.23
 20
-9.98
 30
0.0
 11
30.27
 21
-10.01
 31
0.0
  0
LINE
  5
57
330
17
100
AcDbEntity
  8
Lines
100
AcDbLine
 10
10.9
 20
-9.700000000000001
 30
0.0
 11
12.52
 21
-9.64
 31
0.0
  0
LINE
  5
58
330
17
100
AcDbEntity
  8
Lines
100
AcDbLine
 10
32.65
 20
-11.98
 30
0.0
 11
33.34
 21
-11.99
 31
0.0
  0
LINE
  5
59
330
17
100
AcDbEntity
  8
Lines
100
AcDbLine
 10
29.27
 20
-10.34
 30
0.0
 11
30.310000000000002
 21
-10.39
 31
0.0
  0
LINE
  5
5A
330
17
100
AcDbEntity
  8
Lines
100
AcDbLine
 10
1.6400000000000001
 20
-8.92
 30
0.0
 11
2.67
 21
-8.89
 31
0.0
  0
LINE
  5
5B
330
17
100
AcDbEntity
  8
Lines
100
AcDbLine
 10
10.67
 20
-8.8
 30
0.0
 11
12.0
 21
-8.81
 31
0.0
  0
LINE
  5
5C
330
17
100
AcDbEntity
  8
Lines
100
AcDbLine
 10
15.92
 20
-15.08
 30
0.0
 11
17.42
 21
-15.040000000000001
 31
0.0
  0
LINE
  5
5D
330
17
100
AcDbEntity
  8
Lines
100
AcDbLine
 10
22.21
 20
-14.13
 30
0.0
 11
23.52
 21
-14.13
 31
0.0
  0
LINE
  5
5E
330
17
100
AcDbEntity
  8
Lines
100
AcDbLine
 10
20.45
 20
-15.05
 30
0.0
 11
27.34
 21
-15.06
 31
0.0
  0
LINE
  5
5F
330
17
100
AcDbEntity
  8
Lines
100
AcDbLine
 10
1.94
 20
-5.6000000000000005
 30
0.0
 11
2.73
 21
-5.61
 31
0.0
  0
LINE
  5
60
330
17
100
AcDbEntity
  8
Lines
100
AcDbLine
 10
23.63
 20
-11.49
 30
0.0
 11
24.35
 21
-11.46
 31
0.0
  0
LINE
  5
61
330
17
100
AcDbEntity
  8
Lines
100
AcDbLine
 10
27.61
 20
-17.56
 30
0.0
 11
28.310000000000002
 21
-17.56
 31
0.0
  0
LINE
  5
62
330
17
100
AcDbEntity
  8
Lines
100
AcDbLine
 10
27.82
 20
-10.98
 30
0.0
 11
28.82
 21
-10.950000000000001
 31
0.0
  0
LINE
  5
63
330
17
100
AcDbEntity
  8
Lines
100
AcDbLine
 10
17.2
 20
-11.450000000000001
 30
0.0
 11
17.95
 21
-11.450000000000001
 31
0.0
  0
LINE
  5
64
330
17
100
AcDbEntity
  8
Lines
100
AcDbLine
 10
25.96
 20
-12.02
 30
0.0
 11
26.66
 21
-12.0
 31
0.0
  0
LINE
  5
65
330
17
100
AcDbEntity
  8
Lines
100
AcDbLine
 10
23.68
 20
-14.51
 30
0.0
 11
24.310000000000002
 21
-14.72
 31
0.0
  0
LINE
  5
66
330
17
100
AcDbEntity
  8
Lines
100
AcDbLine
 10
4.66
 20
-8.81
 30
0.0
 11
5.41
 21
-8.790000000000001
 31
0.0
  0
LINE
  5
67
330
17
100
AcDbEntity
  8
Lines
100
AcDbLine
 10
15.16
 20
-15.08
 30
0.0
 11
16.48
 21
-15.07
 31
0.0
  0
LINE
  5
68
330
17
100
AcDbEntity
  8
Lines
100
AcDbLine
 10
4.37
 20
-14.6
 30
0.0
 11
4.51
 21
-5.62
 31
0.0
  0
LINE
  5
69
330
17
100
AcDbEntity
  8
Lines
100
AcDbLine
 10
4.07
 20
-13.25
 30
0.0
 11
4.09
 21
-5.53
 31
0.0
  0
LINE
  5
6A
330
17
100
AcDbEntity
  8
Lines
100
AcDbLine
 10
18.650000000000002
 20
-8.73
 30
0.0
 11
18.71
 21
-5.66
 31
0.0
  0
LINE
  5
6B
330
17
100
AcDbEntity
  8
Lines
100
AcDbLine
 10
10.91
 20
-6.8500000000000005
 30
0.0
 11
10.93
 21
-5.7
 31
0.0
  0
LINE
  5
6C
330
17
100
AcDbEntity
  8
Lines
100
AcDbLine
 10
1.81
 20
-8.9
 30
0.0
 11
1.87
 21
-5.87
 31
0.0
  0
LINE
  5
6D
330
17
100
AcDbEntity
  8
Lines
100
AcDbLine
 10
14.66
 20
-14.64
 30
0.0
 11
14.72
 21
-11.43
 31
0.0
  0
LINE
  5
6E
330
17
100
AcDbEntity
  8
Lines
100
AcDbLine
 10
27.330000000000002
 20
-14.69
 30
0.0
 11
27.28
 21
-11.99
 31
0.0
  0
LINE
  5
6F
330
17
100
AcDbEntity
  8
Lines
100
AcDbLine
 10
12.65
 20
-7.01
 30
0.0
 11
12.68
 21
-5.6000000000000005
 31
0.0
  0
LINE
  5
70
330
17
100
AcDbEntity
  8
Lines
100
AcDbLine
 10
24.990000000000002
 20
-6.890000000000001
 30
0.0
 11
25.0
 21
-5.63
 31
0.0
  0
LINE
  5
71
330
17
100
AcDbEntity
  8
Lines
100
AcDbLine
 10
12.27
 20
-8.82
 30
0.0
 11
12.31
 21
-7.23
 31
0.0
  0
LINE
  5
72
330
17
100
AcDbEntity
  8
Lines
100
AcDbLine
 10
12.530000000000001
 20
-17.93
 30
0.0
 11
12.55
 21
-15.06
 31
0.0
  0
LINE
  5
73
330
17
100
AcDbEntity
  8
Lines
100
AcDbLine
 10
25.34
 20
-11.56
 30
0.0
 11
25.34
 21
-14.63
 31
0.0
  0
LINE
  5
74
330
17
100
AcDbEntity
  8
Lines
100
AcDbLine
 10
33.21
 20
-8.39
 30
0.0
 11
33.15
 21
-5.64
 31
0.0
  0
LINE
  5
75
330
17
100
AcDbEntity
  8
Lines
100
AcDbLine
 10
12.21
 20
-12.61
 30
0.0
 11
12.24
 21
-11.39
 31
0.0
  0
LINE
  5
76
330
17
100
AcDbEntity
  8
Lines
100
AcDbLine
 10
27.35
 20
-19.39
 30
0.0
 11
27.34
 21
-15.040000000000001
 31
0.0
  0
LINE
  5
77
330
17
100
AcDbEntity
  8
Lines
100
AcDbLine
 10
14.790000000000001
 20
-17.93
 30
0.0
 11
14.81
 21
-15.05
 31
0.0
  0
LINE
  5
78
330
17
100
AcDbEntity
  8
Lines
100
AcDbLine
 10
17.34
 20
-14.42
 30
0.0
 11
17.36
 21
-13.73
 31
0.0
  0
LINE
  5
79
330
17
100
AcDbEntity
  8
Lines
100
AcDbLine
 10
24.41
 20
-15.05
 30
0.0
 11
24.41
 21
-19.39
 31
0.0
  0
LINE
  5
7A
330
17
100
AcDbEntity
  8
Lines
100
AcDbLine
 10
1.76
 20
-12.74
 30
0.0
 11
1.76
 21
-11.72
 31
0.0
  0
LINE
  5
7B
330
17
100
AcDbEntity
  8
Lines
100
AcDbLine
 10
10.1
 20
-13.68
 30
0.0
 11
10.13
 21
-12.23
 31
0.0
  0
LINE
  5
7C
330
17
100
AcDbEntity
  8
Lines
100
AcDbLine
 10
3.93
 20
-18.28
 30
0.0
 11
4.0
 21
-14.66
 31
0.0
  0
LINE
  5
7D
330
17
100
AcDbEntity
  8
Lines
100
AcDbLine
 10
11.040000000000001
 20
-17.92
 30
0.0
 11
10.75
 21
-15.05
 31
0.0
  0
LINE
  5
7E
330
17
100
AcDbEntity
  8
Lines
100
AcDbLine
 10
21.11
 20
-8.68
 30
0.0
 11
21.14
 21
-7.11
 31
0.0
  0
LINE
  5
7F
330
17
100
AcDbEntity
  8
Lines
100
AcDbLine
 10
24.98
 20
-8.73
 30
0.0
 11
25.01
 21
-7.1000000000000005
 31
0.0
  0
LINE
  5
80
330
17
100
AcDbEntity
  8
Lines
100
AcDbLine
 10
4.04
 20
-7.7700000000000005
 30
0.0
 11
4.08
 21
-5.54
 31
0.0
  0
LINE
  5
81
330
17
100
AcDbEntity
  8
Lines
100
AcDbLine
 10
17.07
 20
-17.92
 30
0.0
 11
17.05
 21
-15.05
 31
0.0
  0
LINE
  5
82
330
17
100
AcDbEntity
  8
Lines
100
AcDbLine
 10
17.07
 20
-19.26
 30
0.0
 11
17.07
 21
-18.55
 31
0.0
  0
LINE
  5
83
330
17
100
AcDbEntity
  8
Lines
100
AcDbLine
 10
18.97
 20
-8.5
 30
0.0
 11
19.02
 21
-5.63
 31
0.0
  0
LINE
  5
84
330
17
100
AcDbEntity
  8
Lines
100
AcDbLine
 10
4.17
 20
-14.59
 30
0.0
 11
4.19
 21
-13.38
 31
0.0
  0
LINE
  5
85
330
17
100
AcDbEntity
  8
Lines
100
AcDbLine
 10
3.96
 20
-14.68
 30
0.0
 11
4.32
 21
-12.17
 31
0.0
  0
LINE
  5
86
330
17
100
AcDbEntity
  8
Lines
100
AcDbLine
 10
16.54
 20
-8.84
 30
0.0
 11
16.56
 21
-6.47
 31
0.0
  0
LINE
  5
87
330
17
100
AcDbEntity
  8
Lines
100
AcDbLine
 10
13.280000000000001
 20
-17.93
 30
0.0
 11
13.3
 21
-15.05
 31
0.0
  0
LINE
  5
88
330
17
100
AcDbEntity
  8
Lines
100
AcDbLine
 10
21.42
 20
-8.85
 30
0.0
 11
21.46
 21
-7.2
 31
0.0
  0
LINE
  5
89
330
17
100
AcDbEntity
  8
Lines
100
AcDbLine
 10
15.55
 20
-15.05
 30
0.0
 11
15.55
 21
-17.92
 31
0.0
  0
LINE
  5
8A
330
17
100
AcDbEntity
  8
Lines
100
AcDbLine
 10
14.05
 20
-15.05
 30
0.0
 11
14.05
 21
-17.93
 31
0.0
  0
LINE
  5
8B
330
17
100
AcDbEntity
  8
Lines
100
AcDbLine
 10
15.02
 20
-14.65
 30
0.0
 11
15.07
 21
-12.14
 31
0.0
  0
LINE
  5
8C
330
17
100
AcDbEntity
  8
Lines
100
AcDbLine
 10
11.790000000000001
 20
-15.06
 30
0.0
 11
11.790000000000001
 21
-17.92
 31
0.0
  0
LINE
  5
8D
330
17
100
AcDbEntity
  8
Lines
100
AcDbLine
 10
23.64
 20
-11.55
 30
0.0
 11
23.64
 21
-12.36
 31
0.0
  0
LINE
  5
8E
330
17
100
AcDbEntity
  8
Lines
100
AcDbLine
 10
23.63
 20
-8.84
 30
0.0
 11
23.62
 21
-7.07
 31
0.0
  0
LINE
  5
8F
330
17
100
AcDbEntity
  8
Lines
100
AcDbLine
 10
16.3
 20
-15.05
 30
0.0
 11
16.3
 21
-17.92
 31
0.0
  0
LINE
  5
90
330
17
100
AcDbEntity
  8
Lines
100
AcDbLine
 10
18.55
 20
-14.68
 30
0.0
 11
18.62
 21
-11.33
 31
0.0
  0
LINE
  5
91
330
17
100
AcDbEntity
  8
Lines
100
AcDbLine
 10
6.23
 20
-12.31
 30
0.0
 11
6.23
 21
-14.59
 31
0.0
  0
LINE
  5
92
330
17
100
AcDbEntity
  8
Lines
100
AcDbLine
 10
10.4
 20
-14.42
 30
0.0
 11
10.43
 21
-13.74
 31
0.0
  0
LINE
  5
93
330
17
100
AcDbEntity
  8
Lines
100
AcDbLine
 10
21.05
 20
-13.16
 30
0.0
 11
21.07
 21
-12.13
 31
0.0
  0
LINE
  5
94
330
17
100
AcDbEntity
  8
Lines
100
AcDbLine
 10
27.22
 20
-4.93
 30
0.0
 11
27.19
 21
-4.3500000000000005
 31
0.0
  0
LINE
  5
95
330
17
100
AcDbEntity
  8
Lines
100
AcDbLine
 10
16.48
 20
-14.72
 30
0.0
 11
16.46
 21
-13.83
 31
0.0
  0
LINE
  5
96
330
17
100
AcDbEntity
  8
Lines
100
AcDbLine
 10
12.64
 20
-7.19
 30
0.0
 11
12.64
 21
-8.8
 31
0.0
  0
LINE
  5
97
330
17
100
AcDbEntity
  8
Lines
100
AcDbLine
 10
1.74
 20
-12.950000000000001
 30
0.0
 11
1.74
 21
-14.17
 31
0.0
  0
LINE
  5
98
330
17
100
AcDbEntity
  8
Lines
100
AcDbLine
 10
26.97
 20
-6.87
 30
0.0
 11
26.82
 21
-5.53
 31
0.0
  0
LINE
  5
99
330
17
100
AcDbEntity
  8
Lines
100
AcDbLine
 10
8.42
 20
-6.83
 30
0.0
 11
8.44
 21
-5.62
 31
0.0
  0
LINE
  5
9A
330
17
100
AcDbEntity
  8
Lines
100
AcDbLine
 10
10.77
 20
-13.68
 30
0.0
 11
10.82
 21
-12.32
 31
0.0
  0
LINE
  5
9B
330
17
100
AcDbEntity
  8
Lines
100
AcDbLine
 10
6.24
 20
-7.41
 30
0.0
 11
6.24
 21
-8.72
 31
0.0
  0
LINE
  5
9C
330
17
100
AcDbEntity
  8
Lines
100
AcDbLine
 10
23.62
 20
-6.8100000000000005
 30
0.0
 11
23.64
 21
-5.63
 31
0.0
  0
LINE
  5
9D
330
17
100
AcDbEntity
  8
Lines
100
AcDbLine
 10
10.17
 20
-8.82
 30
0.0
 11
10.18
 21
-7.41
 31
0.0
  0
LINE
  5
9E
330
17
100
AcDbEntity
  8
Lines
100
AcDbLine
 10
25.330000000000002
 20
-7.6000000000000005
 30
0.0
 11
25.330000000000002
 21
-8.8
 31
0.0
  0
LINE
  5
9F
330
17
100
AcDbEntity
  8
Lines
100
AcDbLine
 10
31.16
 20
-10.72
 30
0.0
 11
31.14
 21
-9.65
 31
0.0
  0
LINE
  5
A0
330
17
100
AcDbEntity
  8
Lines
100
AcDbLine
 10
1.76
 20
-11.39
 30
0.0
 11
1.78
 21
-10.08
 31
0.0
  0
LINE
  5
A1
330
17
100
AcDbEntity
  8
Lines
100
AcDbLine
 10
29.580000000000002
 20
-20.42
 30
0.0
 11
29.54
 21
-19.8
 31
0.0
  0
LINE
  5
A2
330
17
100
AcDbEntity
  8
Lines
100
AcDbLine
 10
8.78
 20
-6.47
 30
0.0
 11
8.8
 21
-5.62
 31
0.0
  0
LINE
  5
A3
330
17
100
AcDbEntity
  8
Lines
100
AcDbLine
 10
8.33
 20
-14.6
 30
0.0
 11
8.35
 21
-13.870000000000001
 31
0.0
  0
LINE
  5
A4
330
17
100
AcDbEntity
  8
Lines
100
AcDbLine
 10
32.26
 20
-7.46
 30
0.0
 11
32.26
 21
-6.46
 31
0.0
  0
LINE
  5
A5
330
17
100
AcDbEntity
  8
Lines
100
AcDbLine
 10
12.19
 20
-13.290000000000001
 30
0.0
 11
12.200000000000001
 21
-12.17
 31
0.0
  0
LINE
  5
A6
330
17
100
AcDbEntity
  8
Lines
100
AcDbLine
 10
23.66
 20
-13.77
 30
0.0
 11
23.67
 21
-13.11
 31
0.0
  0
LINE
  5
A7
330
17
100
AcDbEntity
  8
Lines
100
AcDbLine
 10
5.86
 20
-13.84
 30
0.0
 11
5.86
 21
-14.6
 31
0.0
  0
LINE
  5
A8
330
17
100
AcDbEntity
  8
Lines
100
AcDbLine
 10
12.56
 20
-14.64
 30
0.0
 11
12.540000000000001
 21
-13.84
 31
0.0
  0
LINE
  5
A9
330
17
100
AcDbEntity
  8
Lines
100
AcDbLine
 10
17.48
 20
-16.11
 30
0.0
 11
20.12
 21
-16.07
 31
0.0
  0
LINE
  5
AA
330
17
100
AcDbEntity
  8
Lines
100
AcDbLine
 10
30.63
 20
-14.84
 30
0.0
 11
31.12
 21
-14.83
 31
0.0
  0
LINE
  5
AB
330
17
100
AcDbEntity
  8
Lines
100
AcDbLine
 10
17.63
 20
-16.17
 30
0.0
 11
18.990000000000002
 21
-16.02
 31
0.0
  0
LINE
  5
AC
330
17
100
AcDbEntity
  8
Lines
100
AcDbLine
 10
29.23
 20
-10.0
 30
0.0
 11
30.27
 21
-9.99
 31
0.0
  0
LINE
  5
AD
330
17
100
AcDbEntity
  8
Lines
100
AcDbLine
 10
3.98
 20
-13.370000000000001
 30
0.0
 11
4.6000000000000005
 21
-12.33
 31
0.0
  0
LINE
  5
AE
330
17
100
AcDbEntity
  8
Lines
100
AcDbLine
 10
23.92
 20
-11.49
 30
0.0
 11
25.11
 21
-11.48
 31
0.0
  0
LINE
  5
AF
330
17
100
AcDbEntity
  8
Lines
100
AcDbLine
 10
8.16
 20
-10.4
 30
0.0
 11
8.8
 21
-10.34
 31
0.0
  0
LINE
  5
B0
330
17
100
AcDbEntity
  8
Lines
100
AcDbLine
 10
15.56
 20
-4.09
 30
0.0
 11
16.36
 21
-3.99
 31
0.0
  0
LINE
  5
B1
330
17
100
AcDbEntity
  8
Lines
100
AcDbLine
 10
31.27
 20
-10.81
 30
0.0
 11
32.01
 21
-10.73
 31
0.0
  0
LINE
  5
B2
330
17
100
AcDbEntity
  8
Lines
100
AcDbLine
 10
13.8
 20
-13.27
 30
0.0
 11
14.700000000000001
 21
-13.23
 31
0.0
  0
LINE
  5
B3
330
17
100
AcDbEntity
  8
Lines
100
AcDbLine
 10
7.3100000000000005
 20
-13.5
 30
0.0
 11
8.11
 21
-13.23
 31
0.0
  0
LINE
  5
B4
330
17
100
AcDbEntity
  8
Lines
100
AcDbLine
 10
23.95
 20
-8.48
 30
0.0
 11
24.98
 21
-8.25
 31
0.0
  0
LINE
  5
B5
330
17
100
AcDbEntity
  8
Lines
100
AcDbLine
 10
2.24
 20
-10.02
 30
0.0
 11
2.79
 21
-9.41
 31
0.0
  0
LINE
  5
B6
330
17
100
AcDbEntity
  8
Lines
100
AcDbLine
 10
25.62
 20
-11.620000000000001
 30
0.0
 11
26.98
 21
-11.46
 31
0.0
  0
LINE
  5
B7
330
17
100
AcDbEntity
  8
Lines
100
AcDbLine
 10
14.23
 20
-11.450000000000001
 30
0.0
 11
14.790000000000001
 21
-11.44
 31
0.0
  0
LINE
  5
B8
330
17
100
AcDbEntity
  8
Lines
100
AcDbLine
 10
9.120000000000001
 20
-8.82
 30
0.0
 11
10.28
 21
-8.790000000000001
 31
0.0
  0
LINE
  5
B9
330
17
100
AcDbEntity
  8
Lines
100
AcDbLine
 10
20.34
 20
-13.24
 30
0.0
 11
21.11
 21
-13.24
 31
0.0
  0
LINE
  5
BA
330
17
100
AcDbEntity
  8
Lines
100
AcDbLine
 10
19.41
 20
-7.11
 30
0.0
 11
20.06
 21
-7.09
 31
0.0
  0
LINE
  5
BB
330
17
100
AcDbEntity
  8
Lines
100
AcDbLine
 10
14.94
 20
-10.33
 30
0.0
 11
15.950000000000001
 21
-10.32
 31
0.0
  0
LINE
  5
BC
330
17
100
AcDbEntity
  8
Lines
100
AcDbLine
 10
15.530000000000001
 20
-16.39
 30
0.0
 11
16.44
 21
-16.07
 31
0.0
  0
LINE
  5
BD
330
17
100
AcDbEntity
  8
Lines
100
AcDbLine
 10
32.88
 20
-18.62
 30
0.0
 11
33.410000000000004
 21
-18.330000000000002
 31
0.0
  0
LINE
  5
BE
330
17
100
AcDbEntity
  8
Lines
100
AcDbLine
 10
27.78
 20
-18.81
 30
0.0
 11
28.3
 21
-18.79
 31
0.0
  0
LINE
  5
BF
330
17
100
AcDbEntity
  8
Lines
100
AcDbLine
 10
27.560000000000002
 20
-10.97
 30
0.0
 11
29.25
 21
-10.93
 31
0.0
  0
LINE
  5
C0
330
17
100
AcDbEntity
  8
Lines
100
AcDbLine
 10
9.16
 20
-11.93
 30
0.0
 11
10.15
 21
-11.66
 31
0.0
  0
LINE
  5
C1
330
17
100
AcDbEntity
  8
Lines
100
AcDbLine
 10
32.8
 20
-17.87
 30
0.0
 11
33.42
 21
-17.830000000000002
 31
0.0
  0
LINE
  5
C2
330
17
100
AcDbEntity
  8
Lines
100
AcDbLine
 10
4.0
 20
-9.99
 30
0.0
 11
4.62
 21
-9.58
 31
0.0
  0
LINE
  5
C3
330
17
100
AcDbEntity
  8
Lines
100
AcDbLine
 10
6.71
 20
-16.41
 30
0.0
 11
7.76
 21
-16.3
 31
0.0
  0
LINE
  5
C4
330
17
100
AcDbEntity
  8
Lines
100
AcDbLine
 10
16.92
 20
-5.19
 30
0.0
 11
18.17
 21
-5.18
 31
0.0
  0
LINE
  5
C5
330
17
100
AcDbEntity
  8
Lines
100
AcDbLine
 10
25.490000000000002
 20
-11.47
 30
0.0
 11
26.060000000000002
 21
-12.0
 31
0.0
  0
LINE
  5
C6
330
17
100
AcDbEntity
  8
Lines
100
AcDbLine
 10
17.240000000000002
 20
-8.81
 30
0.0
 11
17.89
 21
-8.77
 31
0.0
  0
LINE
  5
C7
330
17
100
AcDbEntity
  8
Lines
100
AcDbLine
 10
32.82
 20
-14.66
 30
0.0
 11
33.35
 21
-14.65
 31
0.0
  0
LINE
  5
C8
330
17
100
AcDbEntity
  8
Lines
100
AcDbLine
 10
15.09
 20
-8.82
 30
0.0
 11
15.8
 21
-8.5
 31
0.0
  0
LINE
  5
C9
330
17
100
AcDbEntity
  8
Lines
100
AcDbLine
 10
25.44
 20
-9.14
 30
0.0
 11
25.96
 21
-9.120000000000001
 31
0.0
  0
LINE
  5
CA
330
17
100
AcDbEntity
  8
Lines
100
AcDbLine
 10
27.7
 20
-13.280000000000001
 30
0.0
 11
28.23
 21
-13.040000000000001
 31
0.0
  0
LINE
  5
CB
330
17
100
AcDbEntity
  8
Lines
100
AcDbLine
 10
32.75
 20
-10.46
 30
0.0
 11
33.28
 21
-9.91
 31
0.0
  0
LINE
  5
CC
330
17
100
AcDbEntity
  8
Lines
100
AcDbLine
 10
6.640000000000001
 20
-12.59
 30
0.0
 11
7.13
 21
-12.47
 31
0.0
  0
LINE
  5
CD
330
17
100
AcDbEntity
  8
Lines
100
AcDbLine
 10
10.44
 20
-9.3
 30
0.0
 11
10.97
 21
-9.26
 31
0.0
  0
LINE
  5
CE
330
17
100
AcDbEntity
  8
Lines
100
AcDbLine
 10
30.86
 20
-21.04
 30
0.0
 11
31.36
 21
-20.77
 31
0.0
  0
LINE
  5
CF
330
17
100
AcDbEntity
  8
Lines
100
AcDbLine
 10
20.46
 20
-19.02
 30
0.0
 11
21.27
 21
-18.830000000000002
 31
0.0
  0
LINE
  5
D0
330
17
100
AcDbEntity
  8
Lines
100
AcDbLine
 10
18.01
 20
-16.07
 30
0.0
 11
19.02
 21
-16.14
 31
0.0
  0
LINE
  5
D1
330
17
100
AcDbEntity
  8
Lines
100
AcDbLine
 10
13.200000000000001
 20
-11.450000000000001
 30
0.0
 11
14.25
 21
-11.43
 31
0.0
  0
LINE
  5
D2
330
17
100
AcDbEntity
  8
Lines
100
AcDbLine
 10
25.36
 20
-11.61
 30
0.0
 11
26.02
 21
-11.58
 31
0.0
  0
LINE
  5
D3
330
17
100
AcDbEntity
  8
Lines
100
AcDbLine
 10
31.12
 20
-9.84
 30
0.0
 11
31.970000000000002
 21
-9.99
 31
0.0
  0
LINE
  5
D4
330
17
100
AcDbEntity
  8
Lines
100
AcDbLine
 10
18.59
 20
-15.39
 30
0.0
 11
19.19
 21
-14.26
 31
0.0
  0
LINE
  5
D5
330
17
100
AcDbEntity
  8
Lines
100
AcDbLine
 10
17.95
 20
-8.4
 30
0.0
 11
18.66
 21
-8.35
 31
0.0
  0
LINE
  5
D6
330
17
100
AcDbEntity
  8
Lines
100
AcDbLine
 10
25.47
 20
-8.23
 30
0.0
 11
25.94
 21
-7.8500000000000005
 31
0.0
  0
LINE
  5
D7
330
17
100
AcDbEntity
  8
Lines
100
AcDbLine
 10
22.14
 20
-8.44
 30
0.0
 11
22.89
 21
-8.23
 31
0.0
  0
LINE
  5
D8
330
17
100
AcDbEntity
  8
Lines
100
AcDbLine
 10
15.290000000000001
 20
-10.47
 30
0.0
 11
15.98
 21
-10.18
 31
0.0
  0
LINE
  5
D9
330
17
100
AcDbEntity
  8
Lines
100
AcDbLine
 10
1.34
 20
-13.5
 30
0.0
 11
1.75
 21
-13.17
 31
0.0
  0
LINE
  5
DA
330
17
100
AcDbEntity
  8
Lines
100
AcDbLine
 10
26.89
 20
-11.57
 30
0.0
 11
27.490000000000002
 21
-11.53
 31
0.0
  0
LINE
  5
DB
330
17
100
AcDbEntity
  8
Lines
100
AcDbLine
 10
13.06
 20
-7.21
 30
0.0
 11
13.52
 21
-7.2
 31
0.0
  0
LINE
  5
DC
330
17
100
AcDbEntity
  8
Lines
100
AcDbLine
 10
19.240000000000002
 20
-15.51
 30
0.0
 11
18.740000000000002
 21
-14.16
 31
0.0
  0
LINE
  5
DD
330
17
100
AcDbEntity
  8
Lines
100
AcDbLine
 10
31.150000000000002
 20
-9.370000000000001
 30
0.0
 11
31.93
 21
-9.27
 31
0.0
  0
LINE
  5
DE
330
17
100
AcDbEntity
  8
Lines
100
AcDbLine
 10
13.94
 20
-7.2700000000000005
 30
0.0
 11
14.41
 21
-7.24
 31
0.0
  0
LINE
  5
DF
330
17
100
AcDbEntity
  8
Lines
100
AcDbLine
 10
4.04
 20
-8.61
 30
0.0
 11
4.47
 21
-8.53
 31
0.0
  0
LINE
  5
E0
330
17
100
AcDbEntity
  8
Lines
100
AcDbLine
 10
1.42
 20
-7.38
 30
0.0
 11
1.86
 21
-7.3500000000000005
 31
0.0
  0
LINE
  5
E1
330
17
100
AcDbEntity
  8
Lines
100
AcDbLine
 10
6.69
 20
-9.64
 30
0.0
 11
7.26
 21
-9.55
 31
0.0
  0
LINE
  5
E2
330
17
100
AcDbEntity
  8
Lines
100
AcDbLine
 10
4.83
 20
-9.51
 30
0.0
 11
5.3
 21
-9.25
 31
0.0
  0
LINE
  5
E3
330
17
100
AcDbEntity
  8
Lines
100
AcDbLine
 10
4.01
 20
-9.42
 30
0.0
 11
4.87
 21
-9.39
 31
0.0
  0
LINE
  5
E4
330
17
100
AcDbEntity
  8
Lines
100
AcDbLine
 10
9.07
 20
-9.48
 30
0.0
 11
9.63
 21
-9.47
 31
0.0
  0
LINE
  5
E5
330
17
100
AcDbEntity
  8
Lines
100
AcDbLine
 10
9.71
 20
-11.790000000000001
 30
0.0
 11
10.15
 21
-11.69
 31
0.0
  0
LINE
  5
E6
330
17
100
AcDbEntity
  8
Lines
100
AcDbLine
 10
27.75
 20
-16.6
 30
0.0
 11
28.27
 21
-15.76
 31
0.0
  0
LINE
  5
E7
330
17
100
AcDbEntity
  8
Lines
100
AcDbLine
 10
26.26
 20
-7.26
 30
0.0
 11
26.71
 21
-7.19
 31
0.0
  0
LINE
  5
E8
330
17
100
AcDbEntity
  8
Lines
100
AcDbLine
 10
32.7
 20
-6.91
 30
0.0
 11
33.18
 21
-6.71
 31
0.0
  0
LINE
  5
E9
330
17
100
AcDbEntity
  8
Lines
100
AcDbLine
 10
29.43
 20
-4.1
 30
0.0
 11
30.19
 21
-3.94
 31
0.0
  0
LINE
  5
EA
330
17
100
AcDbEntity
  8
Lines
100
AcDbLine
 10
26.89
 20
-14.05
 30
0.0
 11
27.330000000000002
 21
-14.27
 31
0.0
  0
LINE
  5
EB
330
17
100
AcDbEntity
  8
Lines
100
AcDbLine
 10
18.98
 20
-14.68
 30
0.0
 11
18.69
 21
-14.16
 31
0.0
  0
LINE
  5
EC
330
17
100
AcDbEntity
  8
Lines
100
AcDbLine
 10
4.1
 20
-5.7700000000000005
 30
0.0
 11
4.51
 21
-6.17
 31
0.0
  0
LINE
  5
ED
330
17
100
AcDbEntity
  8
Lines
100
AcDbLine
 10
26.87
 20
-15.16
 30
0.0
 11
27.34
 21
-15.1
 31
0.0
  0
LINE
  5
EE
330
17
100
AcDbEntity
  8
Lines
100
AcDbLine
 10
21.43
 20
-8.48
 30
0.0
 11
21.86
 21
-8.45
 31
0.0
  0
LINE
  5
EF
330
17
100
AcDbEntity
  8
Lines
100
AcDbLine
 10
7.49
 20
-7.21
 30
0.0
 11
7.97
 21
-7.140000000000001
 31
0.0
  0
LINE
  5
F0
330
17
100
AcDbEntity
  8
Lines
100
AcDbLine
 10
25.53
 20
-13.55
 30
0.0
 11
26.03
 21
-13.73
 31
0.0
  0
LINE
  5
F1
330
17
100
AcDbEntity
  8
Walls
100
AcDbLine
 10
4.45
 20
-13.77
 30
0.0
 11
23.6
 21
-13.77
 31
0.0
  0
LINE
  5
F2
330
17
100
AcDbEntity
  8
Walls
100
AcDbLine
 10
13.8
 20
-13.27
 30
0.0
 11
14.700000000000001
 21
-13.23
 31
0.0
  0
LINE
  5
F3
330
17
100
AcDbEntity
  8
Walls
100
AcDbLine
 10
3.94
 20
-14.66
 30
0.0
 11
10.43
 21
-14.68
 31
0.0
  0
LINE
  5
F4
330
17
100
AcDbEntity
  8
Walls
100
AcDbLine
 10
4.33
 20
-15.11
 30
0.0
 11
10.43
 21
-15.09
 31
0.0
  0
LINE
  5
F5
330
17
100
AcDbEntity
  8
Walls
100
AcDbLine
 10
24.400000000000002
 20
-19.39
 30
0.0
 11
32.13
 21
-19.37
 31
0.0
  0
LINE
  5
F6
330
17
100
AcDbEntity
  8
Walls
100
AcDbLine
 10
24.04
 20
-19.73
 30
0.0
 11
32.5
 21
-19.73
 31
0.0
  0
LINE
  5
F7
330
17
100
AcDbEntity
  8
Walls
100
AcDbLine
 10
26.87
 20
-12.01
 30
0.0
 11
32.01
 21
-11.99
 31
0.0
  0
LINE
  5
F8
330
17
100
AcDbEntity
  8
Walls
100
AcDbLine
 10
26.87
 20
-11.59
 30
0.0
 11
32.01
 21
-11.620000000000001
 31
0.0
  0
LINE
  5
F9
330
17
100
AcDbEntity
  8
Walls
100
AcDbLine
 10
8.83
 20
-8.790000000000001
 30
0.0
 11
9.870000000000001
 21
-8.81
 31
0.0
  0
LINE
  5
FA
330
17
100
AcDbEntity
  8
Walls
100
AcDbLine
 10
9.120000000000001
 20
-8.82
 30
0.0
 11
10.28
 21
-8.790000000000001
 31
0.0
  0
LINE
  5
FB
330
17
100
AcDbEntity
  8
Walls
100
AcDbLine
 10
29.23
 20
-9.98
 30
0.0
 11
30.27
 21
-10.01
 31
0.0
  0
LINE
  5
FC
330
17
100
AcDbEntity
  8
Walls
100
AcDbLine
 10
29.27
 20
-10.34
 30
0.0
 11
30.310000000000002
 21
-10.39
 31
0.0
  0
LINE
  5
FD
330
17
100
AcDbEntity
  8
Walls
100
AcDbLine
 10
29.27
 20
-10.34
 30
0.0
 11
30.310000000000002
 21
-10.39
 31
0.0
  0
LINE
  5
FE
330
17
100
AcDbEntity
  8
Walls
100
AcDbLine
 10
29.23
 20
-10.0
 30
0.0
 11
30.27
 21
-9.99
 31
0.0
  0
LINE
  5
FF
330
17
100
AcDbEntity
  8
Walls
100
AcDbLine
 10
18.650000000000002
 20
-8.73
 30
0.0
 11
18.71
 21
-5.66
 31
0.0
  0
LINE
  5
100
330
17
100
AcDbEntity
  8
Walls
100
AcDbLine
 10
18.97
 20
-8.5
 30
0.0
 11
19.02
 21
-5.63
 31
0.0
  0
LINE
  5
101
330
17
100
AcDbEntity
  8
Walls
100
AcDbLine
 10
14.66
 20
-14.64
 30
0.0
 11
14.72
 21
-11.43
 31
0.0
  0
LINE
  5
102
330
17
100
AcDbEntity
  8
Walls
100
AcDbLine
 10
15.02
 20
-14.65
 30
0.0
 11
15.07
 21
-12.14
 31
0.0
  0
LINE
  5
103
330
17
100
AcDbEntity
  8
Walls
100
AcDbLine
 10
12.27
 20
-8.82
 30
0.0
 11
12.31
 21
-7.23
 31
0.0
  0
LINE
  5
104
330
17
100
AcDbEntity
  8
Walls
100
AcDbLine
 10
12.64
 20
-7.19
 30
0.0
 11
12.64
 21
-8.8
 31
0.0
  0
LINE
  5
105
330
17
100
AcDbEntity
  8
Walls
100
AcDbLine
 10
21.11
 20
-8.68
 30
0.0
 11
21.14
 21
-7.11
 31
0.0
  0
LINE
  5
106
330
17
100
AcDbEntity
  8
Walls
100
AcDbLine
 10
21.42
 20
-8.85
 30
0.0
 11
21.46
 21
-7.2
 31
0.0
  0
LINE
  5
107
330
17
100
AcDbEntity
  8
Walls
100
AcDbLine
 10
24.98
 20
-8.73
 30
0.0
 11
25.01
 21
-7.1000000000000005
 31
0.0
  0
LINE
  5
108
330
17
100
AcDbEntity
  8
Walls
100
AcDbLine
 10
25.330000000000002
 20
-7.6000000000000005
 30
0.0
 11
25.330000000000002
 21
-8.8
 31
0.0
  0
LINE
  5
109
330
17
100
AcDbEntity
  8
Walls
100
AcDbLine
 10
8.42
 20
-6.83
 30
0.0
 11
8.44
 21
-5.62
 31
0.0
  0
LINE
  5
10A
330
17
100
AcDbEntity
  8
Walls
100
AcDbLine
 10
8.78
 20
-6.47
 30
0.0
 11
8.8
 21
-5.62
 31
0.0
  0
LINE
  5
10B
330
17
100
AcDbEntity
  8
Walls
100
AcDbLine
 10
17.48
 20
-16.11
 30
0.0
 11
20.12
 21
-16.07
 31
0.0
  0
LINE
  5
10C
330
17
100
AcDbEntity
  8
Walls
100
AcDbLine
 10
18.01
 20
-16.07
 30
0.0
 11
19.02
 21
-16.14
 31
0.0
  0
ENDSEC
  0
SECTION
  2
OBJECTS
  0
DICTIONARY
  5
A
330
0
100
AcDbDictionary
281
1
  3
ACAD_COLOR
350
B
  3
ACAD_GROUP
350
C
  3
ACAD_LAYOUT
350
D
  3
ACAD_MATERIAL
350
E
  3
ACAD_MLEADERSTYLE
350
F
  3
ACAD_MLINESTYLE
350
10
  3
ACAD_PLOTSETTINGS
350
11
  3
ACAD_PLOTSTYLENAME
350
12
  3
ACAD_SCALELIST
350
14
  3
ACAD_TABLESTYLE
350
15
  3
ACAD_VISUALSTYLE
350
16
  3
EZDXF_META
350
2D
  0
DICTIONARY
  5
B
330
A
100
AcDbDictionary
281
1
  0
DICTIONARY
  5
C
330
A
100
AcDbDictionary
281
1
  0
DICTIONARY
  5
D
330
A
100
AcDbDictionary
281
1
  3
Model
350
1A
  3
Layout1
350
1E
  0
DICTIONARY
  5
E
330
A
100
AcDbDictionary
281
1
  3
ByBlock
350
1F
  3
ByLayer
350
20
  3
Global
350
21
  0
DICTIONARY
  5
F
330
A
100
AcDbDictionary
281
1
  3
Standard
350
2C
  0
DICTIONARY
  5
10
330
A
100
AcDbDictionary
281
1
  3
Standard
350
22
  0
DICTIONARY
  5
11
330
A
100
AcDbDictionary
281
1
  0
ACDBDICTIONARYWDFLT
  5
12
330
A
100
AcDbDictionary
281
1
  3
Normal
350
13
100
AcDbDictionaryWithDefault
340
13
  0
ACDBPLACEHOLDER
  5
13
330
12
  0
DICTIONARY
  5
14
330
A
100
AcDbDictionary
281
1
  0
DICTIONARY
  5
15
330
A
100
AcDbDictionary
281
1
  0
DICTIONARY
  5
16
330
A
100
AcDbDictionary
281
1
  0
LAYOUT
  5
1A
330
D
100
AcDbPlotSettings
  1

  4
A3
  6

 40
7.5
 41
20.0
 42
7.5
 43
20.0
 44
420.0
 45
297.0
 46
0.0
 47
0.0
 48
0.0
 49
0.0
140
0.0
141
0.0
142
1.0
143
1.0
 70
1024
 72
1
 73
0
 74
5
  7

 75
16
 76
0
 77
2
 78
300
147
1.0
148
0.0
149
0.0
100
AcDbLayout
  1
Model
 70
1
 71
0
 10
0.0
 20
0.0
 11
420.0
 21
297.0
 12
0.0
 22
0.0
 32
0.0
 14
1e+20
 24
1e+20
 34
1e+20
 15
-1e+20
 25
-1e+20
 35
-1e+20
146
0.0
 13
0.0
 23
0.0
 33
0.0
 16
1.0
 26
0.0
 36
0.0
 17
0.0
 27
1.0
 37
0.0
 76
1
330
17
  0
LAYOUT
  5
1E
330
D
100
AcDbPlotSettings
  1

  4
A3
  6

 40
7.5
 41
20.0
 42
7.5
 43
20.0
 44
420.0
 45
297.0
 46
0.0
 47
0.0
 48
0.0
 49
0.0
140
0.0
141
0.0
142
1.0
143
1.0
 70
0
 72
1
 73
0
 74
5
  7

 75
16
 76
0
 77
2
 78
300
147
1.0
148
0.0
149
0.0
100
AcDbLayout
  1
Layout1
 70
1
 71
1
 10
0.0
 20
0.0
 11
420.0
 21
297.0
 12
0.0
 22
0.0
 32
0.0
 14
1e+20
 24
1e+20
 34
1e+20
 15
-1e+20
 25
-1e+20
 35
-1e+20
146
0.0
 13
0.0
 23
0.0
 33
0.0
 16
1.0
 26
0.0
 36
0.0
 17
0.0
 27
1.0
 37
0.0
 76
1
330
1B
  0
MATERIAL
  5
1F
102
{ACAD_REACTORS
330
E
102
}
330
E
100
AcDbMaterial
  1
ByBlock
  2

 70
0
 40
1.0
 71
1
 41
1.0
 91
-1023410177
 42
1.0
 72
1
  3

 73
1
 74
1
 75
1
 44
0.5
 73
0
 45
1.0
 46
1.0
 77
1
  4

 78
1
 79
1
170
1
 48
1.0
171
1
  6

172
1
173
1
174
1
140
1.0
141
1.0
175
1
  7

176
1
177
1
178
1
143
1.0
179
1
  8

270
1
271
1
272
1
145
1.0
146
1.0
273
1
  9

274
1
275
1
276
1
 42
1.0
 72
1
  3

 73
1
 74
1
 75
1
 94
63
  0
MATERIAL
  5
20
102
{ACAD_REACTORS
330
E
102
}
330
E
100
AcDbMaterial
  1
ByLayer
  2

 70
0
 40
1.0
 71
1
 41
1.0
 91
-1023410177
 42
1.0
 72
1
  3

 73
1
 74
1
 75
1
 44
0.5
 73
0
 45
1.0
 46
1.0
 77
1
  4

 78
1
 79
1
170
1
 48
1.0
171
1
  6

172
1
173
1
174
1
140
1.0
141
1.0
175
1
  7

176
1
177
1
178
1
143
1.0
179
1
  8

270
1
271
1
272
1
145
1.0
146
1.0
273
1
  9

274
1
275
1
276
1
 42
1.0
 72
1
  3

 73
1
 74
1
 75
1
 94
63
  0
MATERIAL
  5
21
102
{ACAD_REACTORS
330
E
102
}
330
E
100
AcDbMaterial
  1
Global
  2

 70
0
 40
1.0
 71
1
 41
1.0
 91
-1023410177
 42
1.0
 72
1
  3

 73
1
 74
1
 75
1
 44
0.5
 73
0
 45
1.0
 46
1.0
 77
1
  4

 78
1
 79
1
170
1
 48
1.0
171
1
  6

172
1
173
1
174
1
140
1.0
141
1.0
175
1
  7

176
1
177
1
178
1
143
1.0
179
1
  8

270
1
271
1
272
1
145
1.0
146
1.0
273
1
  9

274
1
275
1
276
1
 42
1.0
 72
1
  3

 73
1
 74
1
 75
1
 94
63
  0
MLINESTYLE
  5
22
102
{ACAD_REACTORS
330
10
102
}
330
10
100
AcDbMlineStyle
  2
Standard
 70
0
  3

 62
256
 51
90.0
 52
90.0
 71
2
 49
0.5
 62
256
  6
BYLAYER
 49
-0.5
 62
256
  6
BYLAYER
  0
MLEADERSTYLE
  5
2C
102
{ACAD_REACTORS
330
F
102
}
330
F
100
AcDbMLeaderStyle
179
2
170
2
171
1
172
0
 90
2
 40
0.0
 41
0.0
173
1
 91
-1056964608
 92
-2
290
1
 42
2.0
291
1
 43
8.0
  3
Standard
 44
4.0
300

342
29
174
1
175
1
176
0
178
1
 93
-1056964608
 45
4.0
292
0
297
0
 46
4.0
 94
-1056964608
 47
1.0
 49
1.0
140
1.0
294
1
141
0.0
177
0
142
1.0
295
0
296
0
143
3.75
271
0
272
9
273
9
  0
DICTIONARY
  5
2D
330
A
100
AcDbDictionary
280
1
281
1
  3
CREATED_BY_EZDXF
350
2E
  3
WRITTEN_BY_EZDXF
350
10F
  0
DICTIONARYVAR
  5
2E
330
2D
100
DictionaryVariables
280
0
  1
1.4.2 @ 2025-06-12T02:26:37.818563+00:00
  0
DICTIONARYVAR
  5
10F
330
2D
100
DictionaryVariables
280
0
  1
1.4.2 @ 2025-06-12T02:26:37.821698+00:00
  0
ENDSEC
  0
EOF
